<ttFont>
          <CharString index="0">
            -2 -14 9 -9 14 0 rrcurveto
            100 hlineto
            14 0 10 8 2 15 rrcurveto
            16.5 102 rlineto
            2 14 -6 11 -15 0 rrcurveto
            -100 hlineto
            -16 0 -10 -10 -2 -15 rrcurveto
            return
          </CharString>
          <CharString index="1">
            11.25 73 rlineto
            5.5 36.75 15.75 8.25 31 0 rrcurveto
            63.5 hlineto
            32.75 0 9.25 -8 -5.75 -37 rrcurveto
            -11.25 -73 rlineto
            -4.25 -28.5 -9.25 -16.5 -39.25 0 rrcurveto
            -63.5 hlineto
            -36.5 0 -3.5 16.25 4.25 28.75 rrcurveto
            return
          </CharString>
          <CharString index="2">
            116 0 560.75 732 -110.75 0 rlineto
            return
          </CharString>
          <CharString index="3">
            11.25 73 rlineto
            5.5 36.75 16.25 8.25 31 0 rrcurveto
            62.75 hlineto
            32.75 0 9.5 -8 -5.75 -37 rrcurveto
            -11.25 -73 rlineto
            -4.25 -28.5 -9.5 -16.5 -39.25 0 rrcurveto
            -62.75 hlineto
            -36.5 0 -4 16.25 4.25 28.75 rrcurveto
            return
          </CharString>
          <CharString index="4">
            -142.5 -21.5 rlineto
            return
          </CharString>
          <CharString index="5">
            314 0 21 134 -314 0 rlineto
            return
          </CharString>
          <CharString index="6">
            -2 -14 9 -9 14 0 rrcurveto
            98 hlineto
            14 0 11 5 3 18 rrcurveto
            16.5 102 rlineto
            3 16 -6 9 -18 0 rrcurveto
            -98 hlineto
            -16 0 -10 -10 -2 -15 rrcurveto
            return
          </CharString>
          <CharString index="7">
            -19 -120 72.5 -64.5 120.25 0 rrcurveto
            164 hlineto
            117 0 59.25 65.5 19 119 rrcurveto
            57.5 363 rlineto
            15.25 94.75 -42.25 89.75 -139 0 rrcurveto
            -164 hlineto
            -121 0 -62.5 -65.75 -20.25 -126.25 rrcurveto
            return
          </CharString>
          <CharString index="8">
            47.75 302.25 rlineto
            3.25 21.25 10.25 44.25 58.75 0 rrcurveto
            83.75 hlineto
            38.75 0 17.75 -16.75 -7.5 -48.75 rrcurveto
            -48.5 -303 rlineto
            -9 -54 -25.75 -11.5 -40.75 0 rrcurveto
            -72.5 hlineto
            -28.5 0 -38 1.5 10.25 64.75 rrcurveto
            return
          </CharString>
          <CharString index="9">
            517.5 0 24 149 -242.5 0 rlineto
            75.25 56.25 203.25 136.75 20.75 150.25 19 131.5 -59 118.25 -150.75 0 rrcurveto
            return
          </CharString>
          <CharString index="10">
            -135.75 0 -75.75 -10.75 -89.75 -16.75 rrcurveto
            -19.5 -122.5 rlineto
            return
          </CharString>
          <CharString index="11">
            243 hlineto
            84 0 31.75 -18.5 -10.5 -65.75 -15.5 -97.75 -295 -205.25 -101.5 -61.75 rrcurveto
            return
          </CharString>
          <CharString index="12">
            83 -31 111.5 3 114 0 122 0 79.25 50 18.5 118 rrcurveto
            6.25 36.5 rlineto
            12 76 -10.75 72.5 -57.25 18 55 9.5 35 44 12.25 75 rrcurveto
            8 46.5 rlineto
            18 113 -67.75 80 -106.5 2 -117 2 -120.5 1 -93 -31 rrcurveto
            -19 -121 251 0 rlineto
            52 0 44.75 -3.75 -9.75 -57.25 rrcurveto
            -3.5 -23.25 rlineto
            -7.75 -49.75 -29.75 -8.75 -69 -3 rrcurveto
            -184 -8.5 -22 -133 182 -8.5 rlineto
            60.75 -3.5 33 -1.75 -9.25 -59.5 rrcurveto
            -3.25 -22.25 rlineto
            -8 -52 -31.75 -7.25 -70.5 0 rrcurveto
            -238 hlineto
            return
          </CharString>
          <CharString index="13">
            22 -74.5 334.25 0 -23 -147.5 164.75 0 23 147.5 72 26.5 19.5 126.5 -67.5 0 36.75 229.5 -134.5 0 -42.25 -77.25 -24.75 -152.25 -141.75 0 259.25 429.5 -179.25 0 rlineto
            return
          </CharString>
          <CharString index="14">
            146 hlineto
            43.5 0 5.75 -12.5 -7.75 -47.5 rrcurveto
            -7.75 -46.25 rlineto
            -7.25 -45.5 -23 -9.75 -33 0 rrcurveto
            -53.75 hlineto
            -73.75 0 -6.25 53.5 17.25 108 rrcurveto
            return
          </CharString>
          <CharString index="15">
            316 0 -305 -583 176.5 0 342.25 661.5 -30.25 70.5 -475.5 0 rlineto
            return
          </CharString>
          <CharString index="16">
            -9 -57.25 -12.5 -130.5 184.5 0 rrcurveto
            152.5 hlineto
            92 0 89.5 4.5 25.25 157.75 rrcurveto
            12.75 81.5 rlineto
            7.25 43 2 96.5 -63.75 14.25 68 10.5 23.5 65.25 3.5 25.75 rrcurveto
            8 49.25 rlineto
            19.25 123.5 -56 65.25 -113.25 0 rrcurveto
            -153.5 hlineto
            -105.5 0 -90.75 -19.25 -21.75 -138.75 rrcurveto
            -10.25 -65 rlineto
            -9.5 -57.75 -2.25 -70.25 67.5 -33.25 -54.75 -8 -34 -36.75 -9 -56 rrcurveto
            return
          </CharString>
          <CharString index="17">
            8.75 56.25 rlineto
            5.5 35.75 18.75 19.75 43 0 rrcurveto
            80.25 hlineto
            40.25 0 11 -21.75 -5.25 -33.75 rrcurveto
            -8.75 -56.25 rlineto
            -5.25 -36 -18.5 -17.75 -42.75 0 rrcurveto
            -75.25 hlineto
            -44.5 0 -14 13 6.75 40.75 rrcurveto
            return
          </CharString>
          <CharString index="18">
            5.75 39.5 rlineto
            8 52 19.5 10 43.25 0 rrcurveto
            75.5 hlineto
            34 0 22.5 -6 -9.25 -56 rrcurveto
            -5.75 -39.5 rlineto
            -5.25 -31.5 -8.75 -22.5 -51.25 0 rrcurveto
            -78.75 hlineto
            -34 0 -22.75 8 7.25 46 rrcurveto
            return
          </CharString>
          <CharString index="19">
            7 46.25 rlineto
            7.25 45.5 23 9.75 33 0 rrcurveto
            53 hlineto
            73.75 0 7 -53.5 -17.25 -108 rrcurveto
            -146 hlineto
            -43.5 0 -5 12.5 7.75 47.5 rrcurveto
            return
          </CharString>
          <CharString index="20">
            427 0 21.25 134 -427 0 rlineto
            return
          </CharString>
          <CharString index="21">
            -18.5 -120.5 35.25 -120 185.75 0 rrcurveto
            90.5 hlineto
            return
          </CharString>
          <CharString index="22">
            126 0 116 17 50 10 rrcurveto
            16.25 99.5 rlineto
            return
          </CharString>
          <CharString index="23">
            -386 hlineto
            -86 0 -10.25 42 9 57 rrcurveto
            72.75 459.5 rlineto
            8 50.5 16.75 60 95 0 rrcurveto
            352 hlineto
            63.25 0 28.25 -15.25 -13.75 -95.25 rrcurveto
            -40.25 -271.5 rlineto
            -12.25 -81 -14.25 -9 -48 0 rrcurveto
            50 348.75 rlineto
            -51 49 -69 18.25 -106.25 0 -96.5 0 -107 -36 -34 -221.75 -28.75 -189.5 59.25 -99.75 121.5 -2.5 73 -1.25 33.25 35 19 25.75 rrcurveto
            23.75 -52.5 106.5 0 rlineto
            144 0 43.5 62.25 13.75 94.25 rrcurveto
            47 316.5 rlineto
            20.75 141.5 -34.75 111.5 -155.25 0 rrcurveto
            -360 hlineto
            -150.75 0 -96.25 -44.75 -26.25 -163.25 rrcurveto
            return
          </CharString>
          <CharString index="24">
            17 118.25 33.25 32.75 55.75 0 28.5 0 31.25 -0.75 36.75 -7 rrcurveto
            -34.5 -222.25 rlineto
            -19.25 -47.5 -36.75 -18.75 -55 -1.25 -72 -2 4.5 74.75 10.5 73.75 rrcurveto
            return
          </CharString>
          <CharString index="25">
            181.5 0 69.75 147 215.25 0 25.5 -147 168 0 -114.75 732 -190.25 0 rlineto
            return
          </CharString>
          <CharString index="26">
            106.75 234.5 33 -234.5 rlineto
            return
          </CharString>
          <CharString index="27">
            305.5 hlineto
            154 0 80 26.25 23.75 171 13.25 100 -43.5 72.5 -62 10.25 69 8.5 48.5 58.75 10.5 71.5 17.5 114 -45.25 99.25 -153.5 0 rrcurveto
            -301.75 hlineto
            return
          </CharString>
          <CharString index="28">
            27.25 174.75 133.75 0 rlineto
            50.25 0 10 -43 -7.5 -46.25 -10 -62.75 -29.5 -22.75 -40.5 0 rrcurveto
            return
          </CharString>
          <CharString index="29">
            22.25 140.25 126.5 0 rlineto
            32.5 0 27.5 -14.5 -9 -57.25 -6.25 -41.5 -26 -27 -41.25 0 rrcurveto
            return
          </CharString>
          <CharString index="30">
            -35.5 -227 42.5 -168 185.25 -2.25 127.25 -2.25 66 6.75 70.75 25.25 rrcurveto
            20 128 rlineto
            -35.5 -2.5 -91.75 -7 -89.75 0.75 -105 2.25 -16.75 57.25 26.5 163.5 36 229 55 -4.25 76.75 0.25 101 0.5 103.5 -16.25 6.25 -0.75 rrcurveto
            20.25 128 rlineto
            -77.75 27.25 -54.75 10.25 -121 0 -199 0 -73.5 -115.5 -36.75 -233.25 rrcurveto
            return
          </CharString>
          <CharString index="31">
            318 hlineto
            172.5 0 89 77.25 40 263.25 30.25 198.5 -23 193 -205.5 0 rrcurveto
            -15 -290.25 0 -0.25 hvcurveto
            return
          </CharString>
          <CharString index="32">
            71 448.25 120.25 0 rlineto
            75 0 33.25 -40.25 -29.75 -186.25 -22.5 -143 -39 -78.75 -80.5 0 rrcurveto
            return
          </CharString>
          <CharString index="33">
            -21.75 -138.25 105.25 -28 72.25 2.75 rrcurveto
            return
          </CharString>
          <CharString index="34">
            0 0 223 6.5 79.5 10.5 rrcurveto
            22 135.75 rlineto
            return
          </CharString>
          <CharString index="35">
            -254.5 hlineto
            -29 0 -33.75 -1 8.5 53 rrcurveto
            14 86 rlineto
            return
          </CharString>
          <CharString index="36">
            269.25 9.25 22 135.5 rlineto
            return
          </CharString>
          <CharString index="37">
            -266.5 10.75 12.5 80 rlineto
            4 27 5.25 29 51 0 rrcurveto
            return
          </CharString>
          <CharString index="38">
            264.5 0 21.75 136.75 rlineto
            return
          </CharString>
          <CharString index="39">
            -86.25 12 -220.25 4 0 0 -85.75 1 -89.5 -21 -21.25 -132.5 rrcurveto
            return
          </CharString>
          <CharString index="40">
            164 0 45 284.75 rlineto
            return
          </CharString>
          <CharString index="41">
            271 9.25 21 135.5 rlineto
            return
          </CharString>
          <CharString index="42">
            -267 10.75 13 83 rlineto
            4 27 6 29 51 0 rrcurveto
            264.5 0 rlineto
            return
          </CharString>
          <CharString index="43">
            -86.25 12 -220.25 4 0 0 -86.5 1 -90.25 -36 -21.25 -132.5 rrcurveto
            return
          </CharString>
          <CharString index="44">
            -37.75 -198.5 15.75 -215.75 203.25 9.5 79 3.75 34.75 17.75 33.5 35 rrcurveto
            37.75 -51 117 0 67.75 423.5 rlineto
            -24 2 -22.75 1 -21 0 -69.75 0 -62 -4.25 -47.25 -20.75 rrcurveto
            -16.25 -102.5 79 0 -17.5 -104.25 rlineto
            0 -41.75 -48.25 -66 vhcurveto
            -95.25 -0.25 -7.75 57.25 26 163.75 30.75 198.5 45.25 32.75 84.5 -0.25 106.75 -0.25 111.75 -17.5 19.5 -2.25 rrcurveto
            20 125 rlineto
            -113.75 31 -36 5.75 -131.5 -0.25 -199 0 -58.75 -107.25 -44.25 -233.25 rrcurveto
            return
          </CharString>
          <CharString index="45">
            164 0 44.25 279.5 215 0 -44.25 -279.5 164 0 116 732 -164 0 -48.25 -303.5 -215 0 48.25 303.5 -164 0 rlineto
            return
          </CharString>
          <CharString index="46">
            164 0 116 732 -164 0 rlineto
            return
          </CharString>
          <CharString index="47">
            47 -34 133.25 -6 58 34 55 32 14.5 68 7 47 rrcurveto
            90 567 -164 0 -76.5 -483.75 rlineto
            -14.25 -91.25 -32.25 -8.5 -96.5 4.5 rrcurveto
            return
          </CharString>
          <CharString index="48">
            157.5 0 46 292.5 59.5 0 117.25 -292.5 185.75 0 -154.25 352.25 270.25 379.75 -197.75 0 -215 -298 -44.25 0 47.5 298 -156.5 0 rlineto
            return
          </CharString>
          <CharString index="49">
            -17.25 -108.25 67 -40.25 85 0 rrcurveto
            299 0 23.75 149 -231 0 rlineto
            -29 0 -33.25 -1 8 53 rrcurveto
            84.25 531 -163.75 0 rlineto
            return
          </CharString>
          <CharString index="50">
            165.5 0 111.75 448.75 25.5 -448.75 189.25 0 165.75 449 -28 -449 161.75 0 42.75 732 -231.5 0 -166.5 -460.5 -23.25 460.5 -226.5 0 rlineto
            return
          </CharString>
          <CharString index="51">
            165 0 67 425.25 184 -425.25 163 0 116 732 -164 0 -67.75 -432.75 -182.25 432.75 -165 0 rlineto
            return
          </CharString>
          <CharString index="52">
            -53 -333 120 -50.75 175.5 0 178.25 0 124.75 23.25 50.5 323 53 340 -121 54.75 -173.25 0 -169.75 0 -131 -14.25 -54 -343 rrcurveto
            return
          </CharString>
          <CharString index="53">
            32.75 209 38 18 99.25 0 99.25 0 30.75 -24.75 -32 -202.25 -28.5 -178.5 -40.25 -37.5 -100 0 -111 0 -16.5 37 28.25 179 rrcurveto
            return
          </CharString>
          <CharString index="54">
            164 0 44.25 279.75 rlineto
            5 -3 94 -14 40 -2.25 86.75 -5.25 129 -9 35.5 232.5 31 200 -111.25 53.25 -96.25 0 rrcurveto
            -306 hlineto
            return
          </CharString>
          <CharString index="55">
            30 187.5 127 0 rlineto
            36 0 23.75 -20.25 -10.75 -70.25 -11.25 -71.5 -26.5 -25.5 -41.5 0 rrcurveto
            return
          </CharString>
          <CharString index="56">
            164 0 44.5 281.75 78.5 -6.5 81 -275.25 186 0 -103 283.25 rlineto
            38 5.5 83.25 14.75 25.75 178.5 26 178.25 -81 71.75 -118.75 0 rrcurveto
            -308.25 hlineto
            return
          </CharString>
          <CharString index="57">
            29.25 182.25 124.5 0 rlineto
            46 0 12 -22.75 -8 -66 -8.25 -66 -20.25 -27.5 -52 0 rrcurveto
            return
          </CharString>
          <CharString index="58">
            191.5 0 -92 -583 164 0 92 583 197.5 0 24 149 -553 0 rlineto
            return
          </CharString>
          <CharString index="59">
            -48.5 -305 135.25 -38 143 0 151.5 0 138.25 20 44 278 rrcurveto
            62 439 -165 0 -65.75 -416.5 rlineto
            -17.5 -112 -25.75 -59.5 -99.25 0 -101.25 0 -7.75 53.5 18.75 118 rrcurveto
            65.75 416.5 -164.25 0 rlineto
            return
          </CharString>
          <CharString index="60">
            103.5 -732 199.25 0 118.25 274.25 41.5 -274.25 188 0 317.5 732 -173.25 0 -212.75 -517.25 -47.75 332.75 80.5 184.5 -174 0 -209 -515.75 -60 515.75 rlineto
            return
          </CharString>
          <CharString index="61">
            137.75 -517 -34.25 -215 164 0 34.25 215 318.25 517 -186.25 0 -188 -338.25 -68 338.25 rlineto
            return
          </CharString>
          <CharString index="62">
            508 0 24 149 -295.5 0 363.5 434 24 149 -508 0 -24 -149 309.75 0 -377.75 -434 rlineto
            return
          </CharString>
          <CharString index="63">
            120 0 57.75 58.25 36.25 -58.25 100.5 0 -72.5 137.75 -116 0 rlineto
            return
          </CharString>
          <CharString index="64">
            98.5 -140.5 99 0 -67 140.5 rlineto
            return
          </CharString>
          <CharString index="65">
            -42.25 -211 76.75 -98 99.75 0 59 0 67.25 21.75 25.25 37.75 rrcurveto
            25.25 -52.5 128 0 70 477.5 rlineto
            -51 49 -115.75 15.25 -79 -2.25 -98.5 -2.5 -120.5 -14.25 -44.25 -220.75 rrcurveto
            return
          </CharString>
          <CharString index="66">
            16.75 113 36 14 38 8.25 25.25 5.75 36.5 -3.5 21 -9.25 rrcurveto
            -33.25 -226.75 rlineto
            -19.25 -32 -26.5 -19 -50.75 0 -57 0 0.25 62.5 13 87 rrcurveto
            return
          </CharString>
          <CharString index="67">
            137.75 0 35 51.5 rlineto
            31.25 -29.5 45.5 -27 61.25 -1 130 -2.5 57.25 66.5 28.5 175 27.5 171.5 -11.25 134.5 -147.5 0 -45 0 -60 -11.75 -46.25 -20.75 rrcurveto
            43.5 278.5 -163.5 0 rlineto
            return
          </CharString>
          <CharString index="68">
            38.5 240.25 rlineto
            27 12.75 35 5 38 0 43.25 0 10.25 -30.25 -18 -115.5 -17.5 -113.25 -22.25 -27 -40.5 0 -43 0 -32.75 9.75 -18 18.25 rrcurveto
            return
          </CharString>
          <CharString index="69">
            -33.5 -206.25 68 -86.5 99.75 -1 119.75 -1.75 65 6.75 76 30.5 rrcurveto
            15.75 99.5 rlineto
            0 -85.75 -8.75 -92 vhcurveto
            -70.25 0 -20.75 13.75 21 128.75 24.75 146 26 4.25 65.75 0 rrcurveto
            89 78.75 -6.5 0 hvcurveto
            15.5 99 rlineto
            -75.5 26.5 -118 7.5 -52 0 -100 0 -81.5 -32.5 -35.75 -219.25 rrcurveto
            return
          </CharString>
          <CharString index="70">
            -29 -164.75 38.25 -134.25 124.25 0 61.25 0 51.5 28 40.25 29.5 rrcurveto
            19 -51.5 137.75 0 124.25 785 -163.5 0 -44.5 -278.5 rlineto
            -39.75 20.75 -58 11.75 -45 0 -145.75 0 -45 -97.25 -26 -148.75 rrcurveto
            return
          </CharString>
          <CharString index="71">
            20.25 125.5 25 20.25 36 0 38 0 34.75 -5 22.5 -12.75 rrcurveto
            -38.25 -240.25 rlineto
            -24 -18.25 -34.5 -9.75 -43 0 -38.5 0 -16.25 27.5 18 112.75 rrcurveto
            return
          </CharString>
          <CharString index="72">
            -36 -194 43 -112.75 127.25 -8.25 121.25 -9 86.75 13.5 78.75 24.5 rrcurveto
            20 116 rlineto
            -56.25 -10.25 -95.75 -9 -53.5 1.5 -71 0.25 -19.75 14.75 10.5 65.5 37 -15 282.75 -48.25 10.75 250.5 6 124.25 -110 29.5 -110.25 -0.75 -195 -1.5 -45.5 -68.5 -31 -163 rrcurveto
            return
          </CharString>
          <CharString index="73">
            10 56.5 9.5 49.25 71.25 1.5 44 0.75 21.5 -11.75 -7.5 -41.75 -14.75 -82.5 -134 28 0 0 rrcurveto
            return
          </CharString>
          <CharString index="74">
            78.75 0 -66 -412 164 0 66.25 412 115 0 18.75 119 -114.75 0 6 38.25 rlineto
            11.75 75 2.5 23.5 54.75 -0.75 rrcurveto
            0 82 -0.75 0.75 vhcurveto
            15.25 95.5 rlineto
            -31 16.25 -45.75 7.75 -46.75 0 -119 0 -60.5 -41.5 -20.5 -130 rrcurveto
            -13.5 -83.25 -81.5 -17.5 rlineto
            return
          </CharString>
          <CharString index="75">
            231.5 -24 rlineto
            161.25 -17 77.5 82 22.25 140.5 rrcurveto
            91.25 575.25 rlineto
            -49.75 17.5 -126.25 15.25 -106 0 -121.75 0 -87 -54.25 -29.25 -183.75 -28.75 -183.5 31.25 -117.75 154.75 0 45 0 41 10.5 36.5 27.5 rrcurveto
            -13.5 -84.25 rlineto
            -10 -64 -38.5 -31 -51.5 0 rrcurveto
            -213 hlineto
            return
          </CharString>
          <CharString index="76">
            9.25 56.25 15.5 81 70.25 0 rrcurveto
            80.75 0 -44.25 -276.5 rlineto
            -32 -16.5 -21.25 -4 -33.5 0 -67.5 0 6.75 58 16 101.75 rrcurveto
            return
          </CharString>
          <CharString index="77">
            164 0 59 371.5 rlineto
            32.75 29.5 30 12.5 47.75 0 29.5 0 15 -15 -7.75 -48 rrcurveto
            -55.25 -350.5 164 0 55.25 347.5 rlineto
            17 106 -12.75 86.5 -130 0 -81 0 -46.5 -33 -42.25 -30.5 rrcurveto
            48.5 306 -163.25 0 rlineto
            return
          </CharString>
          <CharString index="78">
            164 0 84 531 -164 0 rlineto
            return
          </CharString>
          <CharString index="79">
            -2 -14 8 -9 14 0 rrcurveto
            125 hlineto
            14 0 10.25 8 2 15 rrcurveto
            15.5 101.25 rlineto
            2 14 -5.25 11 -15 0 rrcurveto
            -125 hlineto
            -16 0 -10 -10 -2 -15 rrcurveto
            return
          </CharString>
          <CharString index="80">
            164 0 37.75 234 38 1 116.25 -235 180 0 -148.5 288 rlineto
            59 33 83 70 38.5 140 rrcurveto
            -173 hlineto
            -28 -90 -74.75 -66 -73.75 -29 rrcurveto
            69.5 436 -164 0 rlineto
            return
          </CharString>
          <CharString index="81">
            -21.5 -138 61.25 -51 95 0 rrcurveto
            98 0 15.75 98.75 rlineto
            -5.5 -47 20.25 0 hvcurveto
            -24.75 11.25 -14.25 12.25 12.25 76.5 rrcurveto
            88.75 564 -164 0 rlineto
            return
          </CharString>
          <CharString index="82">
            164 0 58.75 371 rlineto
            32.75 29.5 28.25 12.25 47.75 0 28.5 0 16 -17 -7.5 -46.25 rrcurveto
            -55 -349.5 164 0 55 346 rlineto
            0.75 6.75 3 17.5 0.75 6 31 27.25 34.75 9.25 45.5 0 28.5 0 16.5 -17 -7.5 -46.25 rrcurveto
            -55.75 -349.5 164 0 55 346.5 rlineto
            17.5 109.5 -18.5 83.25 -124.75 0 -82 0 -61.75 -35.5 -50.75 -31.75 -15 40.75 -39.75 26.5 -67.5 0 -81.5 0 -37.25 -29.75 -48.25 -33.5 rrcurveto
            return
          </CharString>
          <CharString index="83">
            164 0 59 371.5 rlineto
            32.75 29.5 30 12.5 47.75 0 29.25 0 15.25 -15 -7.75 -48 rrcurveto
            -55.25 -350.5 164 0 55.25 347.5 rlineto
            17 106 -12.75 86.5 -130 0 -81 0 -42.75 -31.5 -45.25 -32 rrcurveto
            return
          </CharString>
          <CharString index="84">
            -21 54.5 -134.5 0 rlineto
            return
          </CharString>
          <CharString index="85">
            -30 -190 52.75 -91.75 183.25 0 187 0 66 47.25 31.5 197 32.5 205 -53 94 -181.5 0 -181.5 0 -73 -44.5 -34 -217 rrcurveto
            return
          </CharString>
          <CharString index="86">
            21.25 131.5 11.75 22.25 72.25 0 71.25 0 6.75 -24.75 -20.75 -129 -21 -127 -14.5 -9.5 -67.5 0 -64 0 -15.5 14.75 20 121.75 rrcurveto
            return
          </CharString>
          <CharString index="87">
            163.75 0 47.5 299 rlineto
            27.75 -28.25 45 -10.25 45 0 148.5 0 63.75 73.25 27 178 27.75 179.25 -50.25 115.25 -135 0 -99 0 -123 -11.25 -64 -19 rrcurveto
            return
          </CharString>
          <CharString index="88">
            46.25 283 82 0 rlineto
            59 0 3 -62.75 -13.5 -82.5 -20.25 -126.25 -22.25 -29 -51.75 -2.25 -33.5 -3.25 -30.25 8 -18.75 15 rrcurveto
            return
          </CharString>
          <CharString index="89">
            164 0 49.75 314.75 rlineto
            28.25 54.25 43.25 5.25 50 0 30.5 0 32 -0.75 15 -0.75 rrcurveto
            24.75 157.75 rlineto
            -14 5.25 -18 0.5 -20.75 0 -60.25 0 -53.5 -36.5 -34 -35.75 rrcurveto
            -11 67 -142 0 rlineto
            return
          </CharString>
          <CharString index="90">
            31.75 -31.75 147.5 -0.75 119.5 0 62 0 74 16.75 17 109 rrcurveto
            9 60 rlineto
            12.75 78 -31 77.25 -106.5 0 rrcurveto
            -112.5 hlineto
            -16 0 -17.75 -2.5 5 28.75 rrcurveto
            2.75 17.25 rlineto
            3 18.5 8.5 9.75 25.75 0 rrcurveto
            232.5 0 15.75 99.75 rlineto
            -32.25 30.5 -133.5 0.5 -120.25 0 -103 0 -45 -49 -13.25 -83 rrcurveto
            -8 -47.25 rlineto
            -16 -102.25 54.5 -59.5 94 0 rrcurveto
            108.25 hlineto
            23 0 4.5 -9.5 -3 -17.75 rrcurveto
            -3 -17.25 rlineto
            -4 -22.5 -15.75 -3.75 -12.75 0 rrcurveto
            -241.75 hlineto
            return
          </CharString>
          <CharString index="91">
            81 0 -35.25 -223.25 rlineto
            -21.5 -138.25 62.5 -52.25 84.25 0 rrcurveto
            107 0 15.5 98.75 rlineto
            -5.5 -47.75 20.25 0 hvcurveto
            -24.75 11.25 -13.25 12.25 12 78 rrcurveto
            30.75 193.25 105.5 0 18.75 119 -105.5 0 23.75 148 -138.5 0 -49.25 -148 -86.25 -33 rlineto
            return
          </CharString>
          <CharString index="92">
            -17.25 -107.75 13 -84.75 130 0 81 0 39.5 25.5 48.25 38 rrcurveto
            return
          </CharString>
          <CharString index="93">
            20.25 -54.5 134.5 0 84.75 531 -164 0 -58.75 -371.5 rlineto
            return
          </CharString>
          <CharString index="94">
            -32.75 -29.5 -30 -12.5 -47.75 0 -29.25 0 -16.5 12.5 8.25 50.5 rrcurveto
            55.75 350.5 -164 0 rlineto
            return
          </CharString>
          <CharString index="95">
            92.75 -531 196 0 80.25 176.5 31.75 -176.5 184.75 0 184.75 353.5 rlineto
            23 43.5 26 69.5 -12.5 66 rrcurveto
            -153.25 hlineto
            -5.25 -58.75 -16 -37.75 -13 -27 rrcurveto
            -107 -226.75 -34.5 188 11.75 28.25 rlineto
            15.75 40.75 9.25 46.75 -8.75 45.75 rrcurveto
            -153 hlineto
            -5.25 -58.75 -16 -37.75 -13 -27 rrcurveto
            -105.25 -227.5 -40.25 350.25 rlineto
            return
          </CharString>
          <CharString index="96">
            33.75 -386.5 rlineto
            8.25 -92.5 47.75 -52 94 0 -37 -73.25 -45.25 -60.5 -92.25 -46.25 rrcurveto
            -115.25 vlineto
            69.75 11.5 155.25 26 113.75 258 rrcurveto
            152.75 352 rlineto
            19.75 45.25 22 68.75 -12.5 66 rrcurveto
            -154.75 hlineto
            -5.25 -58.75 -9.5 -37 -11 -27.75 rrcurveto
            -112.75 -272.5 rlineto
            -12 0.75 -30 2.75 -2.75 35.5 rrcurveto
            -22 355.75 rlineto
            return
          </CharString>
          <CharString index="97">
            426 hlineto
            0 0 21.75 133 -1 1 rrcurveto
            -204.75 0 247.5 262 20.5 134 -441 0 -20.5 -134 232.75 0 -261 -263.5 rlineto
            return
          </CharString>
          <CharString index="98">
            15.75 -60.5 rlineto
            return
          </CharString>
          <CharString index="99">
            35.75 21.5 24 13.5 39 0 rrcurveto
            return
          </CharString>
          <CharString index="100">
            39 0 26 -35 43.5 0 51.5 0 45 41 28 31 rrcurveto
            -14.25 66 rlineto
            -26.75 -21.25 -33.5 -20.25 -39.75 1.5 rrcurveto
            return
          </CharString>
          <CharString index="101">
            -40 0 -16 35 -44 0 rrcurveto
            -55.25 0 -43.5 -37.25 -34.5 -35.25 rrcurveto
            return
          </CharString>
          <CharString index="102">
            -2.5 -17.75 8.75 -8.5 13 -0.25 rrcurveto
            101 hlineto
            16.25 1 7 12.75 2.25 12.75 rrcurveto
            15.5 96.75 rlineto
            2 14 -10 11 -12 1 rrcurveto
            -97.75 hlineto
            -14 -1 -12 -8 -2 -14 rrcurveto
            return
          </CharString>
          <CharString index="103">
            -5.5 -34 23.5 -28.25 34 0 34 0 32 28.25 5.5 34 5.5 34 -23.25 27.25 -34 0 -34 0 -32.25 -27.25 -5.5 -34 rrcurveto
            return
          </CharString>
          <CharString index="104">
            -30.25 -192.5 48.75 -190.5 192.75 0 rrcurveto
            215 hlineto
            151 0 107.75 103 38.5 242.5 30.5 192.25 -17.75 194.25 -200.25 0 rrcurveto
            -215 hlineto
            -219.75 0 -71.25 -158.25 -30 -190.75 rrcurveto
            return
          </CharString>
          <CharString index="105">
            35 221.75 82 48.25 88.75 0 rrcurveto
            217.5 hlineto
            131 0 -14.75 -150 -19 -120 -32 -204 -72.5 -70 -87 0 rrcurveto
            -209 hlineto
            -114 0 -30.5 119 24.5 155 rrcurveto
            return
          </CharString>
          <CharString index="106">
            178 -208 95.25 70.25 -110.75 128.5 148.5 127.5 -73 84.75 rlineto
            return
          </CharString>
          <CharString index="107">
            292 0 13.75 85.5 -292 0 rlineto
            return
          </CharString>
          <CharString index="108">
            352.5 0 18.25 113.75 -135.75 0 rlineto
            46.25 34.5 109 79.25 16 103.5 12.5 77.25 -41 82.75 -104.5 0 rrcurveto
            return
          </CharString>
          <CharString index="109">
            -93 0 -48.25 -8.5 -61 -11.75 -0.25 0.25 -15.5 -93.75 0.5 0 rrcurveto
            return
          </CharString>
          <CharString index="110">
            154 hlineto
            55 0 20.5 -9 -6.5 -40.25 -9.75 -61.25 -188.5 -120.25 -63.25 -37.5 rrcurveto
            return
          </CharString>
          <CharString index="111">
            56.25 -22.25 73.75 2 78.5 0 89 -0.25 51.75 35.5 12.5 78.5 rrcurveto
            4 22 rlineto
            7.5 47.5 -8.5 48.25 -42 13.25 40.75 7 24.75 31 8 48.5 rrcurveto
            4.5 28.25 rlineto
            12 74.25 -44.75 56 -77 1 -80.5 1.75 -79.75 -0.5 -63.75 -22.25 rrcurveto
            -14.5 -92.5 162.75 0 rlineto
            39.5 0 24.25 -4.5 -5.5 -28.5 rrcurveto
            -0.75 -8.5 rlineto
            -3.75 -26.5 -19.75 -4.75 -45.75 -2 rrcurveto
            -119 -4.5 -15.5 -101.25 116.25 -4.25 rlineto
            41 -1.75 21 -5 -4.25 -29.25 rrcurveto
            -1.75 -9.5 rlineto
            -4 -28.25 -19.5 -5 -48.5 0 rrcurveto
            0 -145.75 -0.25 -8 vhcurveto
            return
          </CharString>
          <CharString index="112">
            99 0 140.5 140.5 -132.5 0 rlineto
            return
          </CharString>
          <CharString index="113">
            58.5 hlineto
            89 0 33.75 41.5 16 102 rrcurveto
            -104.5 hlineto
            -6 -38 -2.5 -10 -30 -12 rrcurveto
            -43 -15 rlineto
            return
          </CharString>
          <CharString index="114">
            19.25 0 58.5 -1.5 25.25 19.75 rrcurveto
            -58.25 -359.5 125 0 76.75 484.75 -123 0 rlineto
            -24 -27.75 -66.5 -30.25 -20 0 rrcurveto
            return
          </CharString>
          <CharString index="115">
            328 0 11.25 73 -328 0 rlineto
            return
          </CharString>
          <CharString index="116">
            121 0 513 770 -121 0 rlineto
            return
          </CharString>
          <CharString index="117">
            114 -5 79.25 12 93.5 20.5 rrcurveto
            19.25 121.5 rlineto
            return
          </CharString>
          <CharString index="118">
            -2.75 -15.5 6 -9.5 17.25 0 rrcurveto
            98.5 hlineto
            16 0 10 10 2 15 rrcurveto
            15.75 102 rlineto
            2 14 -8.25 9 -14 0 rrcurveto
            -98.5 hlineto
            -14 0 -11.5 -5.75 -2.75 -17.25 rrcurveto
            return
          </CharString>
          <CharString index="119">
            111.5 0 66 59 37.5 -59 99.5 0 -72.5 137.5 -116 0 rlineto
            return
          </CharString>
          <CharString index="120">
            15.75 -60.5 rlineto
            34.25 21.5 24.75 13.25 40.25 0.25 rrcurveto
            return
          </CharString>
          <CharString index="121">
            38.25 0.25 23.5 -34.75 46.25 -0.25 49.25 -0.25 44.25 38.25 31 31.5 rrcurveto
            -14.25 66 rlineto
            -21 -18.25 -43 -22 -36 1.75 rrcurveto
            return
          </CharString>
          <CharString index="122">
            -37 0.25 -17.5 33.75 -45.5 0.75 rrcurveto
            -52.25 0 -46.5 -36.25 -34.5 -35.25 rrcurveto
            return
          </CharString>
          <CharString index="123">
            65 0 -53.5 -338.5 325.5 0 rlineto
            172.5 0 81.75 95.25 40 245.25 30.25 185.75 -18 205.75 -205.5 0 rrcurveto
            -15 -295.5 0 -0.25 hvcurveto
            -51.25 -324.25 -65 0 rlineto
            return
          </CharString>
          <CharString index="124">
            31 196.25 101.5 0 11.25 69 -101.5 0 28.75 183 131.5 0 rlineto
            66.75 0 29.5 -40.25 -29.75 -186.25 -22.5 -143 -39.75 -78.75 -75.25 0 rrcurveto
            return
          </CharString>
          <CharString index="125">
            2.15625 21.75 18.796875 17.5 21.75 0 21.75 0 15.203125 -17.5 -2.15625 -21.75 -2.15625 -21.75 -17.7744140625 -16.5 -21.75 0 -21.75 0 -16.2255859375 16.5 2.15625 21.75 rrcurveto
            return
          </CharString>
          <CharString index="126">
            -3 -20 10 -12 20 0 rrcurveto
            126.5 hlineto
            20 0 17 8 4 24 rrcurveto
            20.25 132.5 rlineto
            3 22 -7 13 -25 0 rrcurveto
            -126.5 hlineto
            -22 0 -14 -14 -3 -21 rrcurveto
            return
          </CharString>
          <CharString index="127">
            0 0 137 -31 20 125 rrcurveto
            23.5 144.75 rlineto
            2.25 15.25 -4.25 12.5 -18.5 0 rrcurveto
            -97.25 hlineto
            -16.5 0 -10.25 -9.25 -3 -18.5 rrcurveto
            -16 -100.25 rlineto
            -3 -17.5 10.25 -8.25 14.25 0 rrcurveto
            11.25 0 -3.25 -18 rlineto
            -2 -10.5 -4 -21.5 -30.75 0.25 rrcurveto
            return
          </CharString>
          <CharString index="128">
            0 0 137 -31 20 125 rrcurveto
            23.5 144.75 rlineto
            2.25 15.25 -4.25 12.5 -18.5 0 rrcurveto
            -97.25 hlineto
            -16.5 0 -10.25 -9.25 -3 -18.5 rrcurveto
            -16 -100.25 rlineto
            -3 -17.5 10.25 -8.25 14.25 0 rrcurveto
            11.25 0 -3.25 -18 rlineto
            -2 -10.5 -4 -21.75 -30.75 0.25 rrcurveto
            return
          </CharString>
          <CharString index="129">
            -2.25 -15.25 3.25 -12.5 18.5 0 rrcurveto
            97.25 hlineto
            16.5 0 11.25 9.25 3 18.5 rrcurveto
            15.75 100.25 rlineto
            3 17.5 -10.25 8 -14.25 0 rrcurveto
            -11.25 0 2.5 18.25 rlineto
            2 10.5 4.25 21.5 30.75 -0.25 rrcurveto
            9.5 62.75 rlineto
            0 0 -137 31.25 -20 -125 rrcurveto
            return
          </CharString>
          <CharString index="130">
            -13.5 -83.75 59.25 -39.75 80.25 0 rrcurveto
            118.5 hlineto
            82.75 0 41.5 40.25 13.5 83.25 rrcurveto
            37 237 rlineto
            11 67 -33.25 56.5 -97.5 0 rrcurveto
            -118.5 hlineto
            -85 0 -46 -42.5 -13.75 -85.5 rrcurveto
            return
          </CharString>
          <CharString index="131">
            32.25 178.75 rlineto
            4.25 23.5 6 15 35 0 rrcurveto
            55.75 hlineto
            26.75 0 10.5 -9.5 -5.25 -29 rrcurveto
            -32.25 -179.5 rlineto
            -5.25 -32.75 -15 -5.75 -28 0 rrcurveto
            -48.25 hlineto
            -23.5 0 -18.5 3.5 5.5 35.75 rrcurveto
            return
          </CharString>
          <CharString index="132">
            21.75 -54.75 227.5 0 -14.75 -88.5 120.75 0 12.25 89.25 49.5 19 15.5 97 -44.5 0 23.25 145.75 -97.75 0 -30.75 -50.25 -15.25 -95.5 -90.75 0 167.75 277 -133 0 rlineto
            return
          </CharString>
          <CharString index="133">
            89.5 -16.5 41 -0.25 85.5 -0.25 67.75 -0.25 73.25 17 9.75 93.5 rrcurveto
            10.25 73.75 rlineto
            7.25 55.25 -14.25 73.75 -90.5 6 -33.5 2.25 -40.5 2.5 -31.75 -20.75 rrcurveto
            15 70.5 198.75 0 18.25 113.75 -315.25 0 -63.5 -305.5 107 0 rlineto
            3.75 20.75 11.25 8.75 22 0 rrcurveto
            49.5 hlineto
            32.75 0 0.75 -17.5 -2.25 -18.25 rrcurveto
            -3 -25.25 rlineto
            -2.75 -25.5 -9.25 -8.75 -36.5 0 rrcurveto
            -184.75 hlineto
            return
          </CharString>
          <CharString index="134">
            97.25 hlineto
            26.25 0 4 -6.25 -3.75 -24.75 rrcurveto
            -4.75 -30.25 rlineto
            -3 -22.5 -10.75 -6.75 -24.75 0 rrcurveto
            -38.5 hlineto
            -48 0 -1.25 43.25 7.25 47.25 rrcurveto
            return
          </CharString>
          <CharString index="135">
            231.75 0 -216 -370.5 136.75 0 251.5 432.25 -23.5 52 -362.25 0 rlineto
            return
          </CharString>
          <CharString index="136">
            -7.25 -44.75 1.75 -80.25 123 0 rrcurveto
            112.75 hlineto
            68.75 0 61 4 16.25 105.25 rrcurveto
            8.25 52.75 rlineto
            4.75 28.75 1.25 65 -47 10.25 49.5 7 15.5 42.25 2.75 17 rrcurveto
            5.25 31.75 rlineto
            12.75 81.5 -42.75 43 -78 0 rrcurveto
            -113.25 hlineto
            -73 0 -66 -12.25 -15 -93.5 rrcurveto
            -7 -43 rlineto
            -5.75 -38.25 -1.75 -45.75 48.75 -24 -39 -6.5 -24.5 -22.75 -5.75 -36.75 rrcurveto
            return
          </CharString>
          <CharString index="137">
            5 28.25 rlineto
            3 20.5 8.25 10.5 28.5 0 rrcurveto
            56 hlineto
            26.75 0 5.75 -12 -3 -19 rrcurveto
            -4.75 -28.25 rlineto
            -2.75 -19.75 -7.75 -9.5 -28.75 0 rrcurveto
            -53.75 hlineto
            -29 0 -7 7.75 3.5 21.5 rrcurveto
            return
          </CharString>
          <CharString index="138">
            3.5 19.25 rlineto
            4.75 28.75 11.75 4 25.5 0 rrcurveto
            51.75 hlineto
            21.5 0 15 -2.75 -5 -30 rrcurveto
            -3.5 -19.25 rlineto
            -2.5 -17 -4.25 -13.25 -33.5 0 rrcurveto
            -54 hlineto
            -22.75 0 -12.25 5 4 25.25 rrcurveto
            return
          </CharString>
          <CharString index="139">
            3.75 22.75 rlineto
            3.75 24 9.25 7.5 24.75 0 rrcurveto
            37.75 hlineto
            48 0 3 -36.5 -8 -51 rrcurveto
            -97.25 hlineto
            -26.25 0 -3.25 7 4.5 26.25 rrcurveto
            return
          </CharString>
          <CharString index="140">
            -32.75 -206.75 67.75 -58.25 81.75 0 rrcurveto
            87.5 hlineto
            81 0 54.75 18 13.25 84.75 rrcurveto
            11 69.25 rlineto
            10.75 66 -21.25 66.75 -98.75 -0.25 -54.75 -0.25 -34.5 -3.25 -34.25 -12 7 42.25 6.5 46.25 63.5 0 rrcurveto
            168 0 15.5 95.75 rlineto
            -66.5 12.75 -101 9.75 -72.75 -9 -63 -6.75 -59.75 -33 -29 -182 rrcurveto
            return
          </CharString>
          <CharString index="141">
            -19.75 -120 73.25 -64.5 120.25 0 rrcurveto
            164 hlineto
            117 0 59.25 65.5 19 119 rrcurveto
            43 263 rlineto
            15.25 94.75 -28 89.75 -154 0 rrcurveto
            -164 hlineto
            -121 0 -62.5 -65.75 -20.25 -126.25 rrcurveto
            return
          </CharString>
          <CharString index="142">
            32.5 202.25 rlineto
            3.25 21.25 13.25 44.25 56.5 0 rrcurveto
            83.75 hlineto
            38.75 0 17 -16.75 -7.5 -48.75 rrcurveto
            -32.5 -203 rlineto
            -9 -54 -26.5 -11.5 -40.75 0 rrcurveto
            -72.5 hlineto
            -28.5 0 -38 1.5 10.25 64.75 rrcurveto
            return
          </CharString>
          <CharString index="143">
            517.5 0 24 149 -186 0 rlineto
            75.5 33 143.75 75 20.25 147.5 18.5 127 -53 102 -157.25 0 -138 0 -73.5 -10.5 -89.25 -17 rrcurveto
            -19.75 -122.5 rlineto
            0 231 0.25 12.5 vhcurveto
            84.75 0.5 26.5 -15.25 -10.5 -64 -14.75 -93 -274.5 -118 -114.75 -51 rrcurveto
            return
          </CharString>
          <CharString index="144">
            473 0 21.75 135 -473 0 rlineto
            return
          </CharString>
          <CharString index="145">
            696 0 21.75 135 -696 0 rlineto
            return
          </CharString>
          <CharString index="146">
            -6 -69.5 47.25 -43 65 0 70.5 0 45.25 41.25 7.25 71.25 rrcurveto
            -61.75 hlineto
            -3.5 -33.75 -17.75 -18.75 -39.25 0.25 -32.25 0 -16.75 19 3.75 33.25 rrcurveto
            return
          </CharString>
          <CharString index="147">
            -151 -74.5 85.75 -143.5 107.5 29.5 rrcurveto
            13 82.5 rlineto
            -48.5 -5.5 -32.25 54.75 87 56.75 rrcurveto
            return
          </CharString>
          <CharString index="148">
            76.25 -137.5 112.25 0 126 137.5 -111.5 0 -63 -59 -40.5 59 rlineto
            return
          </CharString>
          <CharString index="149">
            -2 -14 9 -9 14 0 rrcurveto
            80 hlineto
            14 0 10 8 2 15 rrcurveto
            13.5 84 rlineto
            2 14 -6 11 -15 0 rrcurveto
            -80 hlineto
            -16 0 -10 -10 -2 -15 rrcurveto
            return
          </CharString>
          <CharString index="150">
            80 -27.25 66.474609375 -4.25 127.525390625 0 94.75 0 137.25 7.5 11.25 179 rrcurveto
            4.25 64.25 rlineto
            10.75 80.5 -18.5 121.5 -144.75 0 rrcurveto
            -90.25 hlineto
            -53.75 0 -16 10.5 8 50 rrcurveto
            4 24.75 rlineto
            9 55.5 27.25 4.5 59.5 -1 49.5 0 124.5 -4.5 59.75 -5.25 rrcurveto
            20.25 128 rlineto
            -66 22.25 -92.25 11 -124.25 -2.5 -111 -1.25 -97.5 -23 -21.25 -147.75 rrcurveto
            -10.75 -79.5 rlineto
            -7.626953125 -54.0859375 -4.623046875 -151.6640625 182.5 0 rrcurveto
            87.25 hlineto
            52 0 5.5 -21.5 -6 -36 rrcurveto
            -4.25 -29 rlineto
            -7 -43.75 -35.75 -9.5 -42.5 0 -93 0 -114 6.25 -40 4.5 rrcurveto
            return
          </CharString>
          <CharString index="151">
            -4.9970703125 -57 44.265625 -43.5 56 0 56 0 46.7353515625 43.5 4.99609375 57 4.9970703125 57 -42.494140625 43.75 -56 0 -56 0 -48.505859375 -43.75 -4.9970703125 -57 rrcurveto
            return
          </CharString>
          <CharString index="152">
            2.1552734375 21.75 18.7978515625 17.5 21.75 0 21.75 0 15.2021484375 -17.5 -2.1552734375 -21.75 -2.15625 -21.75 -17.775390625 -16.5 -21.75 0 -21.75 0 -16.224609375 16.5 2.15625 21.75 rrcurveto
            return
          </CharString>
          <CharString index="153">
            20.25 125.5 25 20.25 36 0 38 0 34.75 -5 22.5 -12.75 rrcurveto
            -38.25 -240.25 rlineto
            -24 -18.25 -35.25 -9.75 -43 0 -38.5 0 -15.5 27.5 18 112.75 rrcurveto
            return
          </CharString>
          <CharString index="154">
            -19 -96 41.5 -73 144 0 rrcurveto
            116.5 hlineto
            147 0 36.25 62.25 13.25 84.25 rrcurveto
            8 48 rlineto
            16 101.5 -70 42.5 -67.25 14.25 rrcurveto
            -125.5 22.75 rlineto
            -20.25 3.75 -22 3 4.75 20 5 20.75 24.25 -5 16 0 rrcurveto
            72 hlineto
            142 0 57.5 96.5 11.5 77 27 171.75 -105 37 -68 0.75 rrcurveto
            -97.5 2 rlineto
            -97.25 2 -94.5 -26.5 -22.25 -142 -8 -53 -3.5 -79.5 56.5 -34 -50 0 -22 -50 -5 -36 rrcurveto
            return
          </CharString>
          <CharString index="155">
            13.25 69.5 103.75 -16 rlineto
            31.5 -5.75 11 -7.25 -4.75 -32.75 rrcurveto
            -2 -15.25 rlineto
            -4 -25.25 -8.25 -14.75 -32.75 0 rrcurveto
            -67.5 hlineto
            -36 0 -11.25 10.25 7 37.25 rrcurveto
            return
          </CharString>
          <CharString index="156">
            9 52 9.25 18 43 0 rrcurveto
            33.5 hlineto
            41 0 2.75 -15 -9 -55 -5.25 -35 -10.25 -41 -42 0 rrcurveto
            -33.5 hlineto
            -46.25 0 -0.25 27 8 49 rrcurveto
            return
          </CharString>
          <CharString index="157">
            -1.94598388672 -14 8.85699462891 -9 14 0 rrcurveto
            98 hlineto
            14 0 11.0520019531 5 3.03700256348 18 rrcurveto
            16.4929962158 102 rlineto
            2.86700439453 16 -5.8570098877 9 -18 0 rrcurveto
            -98 hlineto
            -16.0000152588 0 -9.85398864746 -10 -2.15600585938 -15 rrcurveto
            return
          </CharString>
          <CharString index="158">
            130 -23 53.25 -2.75 124.25 1.75 96.25 1.25 104 24.25 22 137 rrcurveto
            15.5 112.5 rlineto
            14.5 104.5 -42.25 85.25 -109 7.5 -17 0.75 -41.25 2.25 -32.5 -2.75 -19 -1.5 -28.5 -4.5 -26.25 -16.75 rrcurveto
            27.75 137 293.25 0 24 149 -453 0 -94.75 -457.5 157 0 rlineto
            6 36.75 22.25 15.75 33.75 0 rrcurveto
            70.5 hlineto
            50 0 3.25 -32.5 -5 -32 rrcurveto
            -8 -49.25 rlineto
            -3.75 -24.5 -8.5 -38.5 -63.75 0 rrcurveto
            -274 hlineto
            return
          </CharString>
          <CharString index="159">
            50.25 15 28.75 23 51 0 rrcurveto
            return
          </CharString>
          <CharString index="160">
            65.25 412 rlineto
            return
          </CharString>
          <CharString index="161">
            -101.25 -17 rlineto
            return
          </CharString>
          <CharString index="162">
            97 0 -65.25 -412 164.75 0 rlineto
            return
          </CharString>
          <CharString index="163">
            0 0 119.924804688 -35.7744140625 16.875 105.07421875 rrcurveto
            19.3505859375 121.5 rlineto
            1.7998046875 13.5 -3.375 10.80078125 -16.2001953125 0 rrcurveto
            -86.3994140625 hlineto
            -14.400390625 0 -9.224609375 -8.1005859375 -2.7001953125 -16.2001953125 rrcurveto
            -13.9501953125 -89.099609375 rlineto
            -2.7001953125 -15.2998046875 9 -7.2001953125 12.6005859375 0 rrcurveto
            9.8994140625 0 -1.5751953125 -9 rlineto
            -1.7998046875 -9.224609375 -2.25 -12.8251953125 -27 0.8994140625 rrcurveto
            return
          </CharString>
          <CharString index="164">
            116 0 365.5 570 -111.5 0 rlineto
            return
          </CharString>
          <CharString index="165">
            172.5 0 49 103.25 168 0 18 -103.25 158.5 0 -86.5 570 -201.5 0 rlineto
            return
          </CharString>
          <CharString index="166">
            73.25 145.5 24 -145.5 rlineto
            return
          </CharString>
          <CharString index="167">
            271.5 hlineto
            126 0 74.25 21 20.25 126 12.75 81 -35.25 56 -45 7 48.25 3 43 33.25 13.25 83.25 17 107.5 -62.25 53 -124 0 rrcurveto
            -269.75 hlineto
            return
          </CharString>
          <CharString index="168">
            16.25 104.25 rlineto
            9 -0.5 83.5 0.5 0 0 31.25 0 8 -17.75 -4.25 -34.75 -6.25 -44.25 -24.25 -7.5 -20.75 0 rrcurveto
            return
          </CharString>
          <CharString index="169">
            13.25 86.25 92.5 0 rlineto
            29.5 0 11 -10.75 -5 -30.75 -4.75 -31.25 -10.75 -13.5 -33.25 0 rrcurveto
            return
          </CharString>
          <CharString index="170">
            -26.5 -166.5 4.75 -159.5 201.25 0 106.25 0 51 3.25 73.5 30.5 rrcurveto
            17.25 109.5 rlineto
            0 0 -102.25 -16.25 -81.25 -0.5 -115 2 20.75 80.75 14.25 89.75 16.25 105.5 14 51 102 0 65 0 98.5 -14.5 15 -3 rrcurveto
            17.25 111.5 rlineto
            -64 27 -69.25 5.5 -87.25 0 -180.5 0 -63.5 -81.75 -27.5 -174.25 rrcurveto
            return
          </CharString>
          <CharString index="171">
            277 hlineto
            85.5 0 144.75 -13.5 33.75 273.75 18.25 148.5 -12.25 161.25 -182 2 rrcurveto
            -274 hlineto
            return
          </CharString>
          <CharString index="172">
            46 289 92 0 rlineto
            48 0 21.75 -39.25 -17.25 -108.25 -11.75 -74 -20 -67.5 -66.75 0 rrcurveto
            return
          </CharString>
          <CharString index="173">
            -12.5 -78.25 40.25 -35.25 68 -1.5 rrcurveto
            return
          </CharString>
          <CharString index="174">
            0 0 228.75 -2.5 88.5 19.5 rrcurveto
            19.75 124.5 rlineto
            return
          </CharString>
          <CharString index="175">
            -228.5 hlineto
            -21 0 -15 3 5 29 rrcurveto
            7 44.75 rlineto
            return
          </CharString>
          <CharString index="176">
            227 7 19 121 rlineto
            return
          </CharString>
          <CharString index="177">
            -225 8 7.25 45.25 rlineto
            4 24 3.75 9 30 0 rrcurveto
            232.5 0 rlineto
            return
          </CharString>
          <CharString index="178">
            19.75 124.75 rlineto
            return
          </CharString>
          <CharString index="179">
            -67.5 12.75 -225 3 0 0 -76.75 -0.75 -62.5 -32 -13.5 -87.25 rrcurveto
            return
          </CharString>
          <CharString index="180">
            164 0 31.5 200.5 rlineto
            return
          </CharString>
          <CharString index="181">
            227.75 7 18.75 121 rlineto
            return
          </CharString>
          <CharString index="182">
            -224.75 8 9.5 61 rlineto
            4.25 23.25 3.5 9.75 30 0 rrcurveto
            232.5 0 rlineto
            return
          </CharString>
          <CharString index="183">
            -67.5 12.75 -225.25 3 0 0 -76.75 -0.75 -62.25 -32 -13.5 -87.25 rrcurveto
            return
          </CharString>
          <CharString index="184">
            -8 -50 -47.25 -271.5 199.5 0.25 74.25 0 38 15.5 34.75 35.5 rrcurveto
            30.5 -44 123.5 0 52.75 334.25 rlineto
            -24 2 -21 1 -21 0 -81 0 -50.25 -6.5 -42 -11 rrcurveto
            -13.25 -86.5 73 0 -7.75 -47.75 rlineto
            -9.25 -25.25 -38 -19.25 -43.5 0 -83.25 0.75 18.25 86.5 9.75 59.75 24.25 153.5 25 11 85.5 0 65.25 0 54.25 -2.5 82 -10.5 rrcurveto
            18.25 114.5 rlineto
            -61.25 22.25 -127.5 7.25 -85.75 -4.5 -157 -6.75 -58.75 -74 -29 -184 rrcurveto
            return
          </CharString>
          <CharString index="185">
            164 0 32 201.5 161 0 -32 -201.5 164 0 90 571 -164 0 -34.75 -220.5 -161 0 34.75 220.5 -164 0 rlineto
            return
          </CharString>
          <CharString index="186">
            164 0 90 570 -164 0 rlineto
            return
          </CharString>
          <CharString index="187">
            44 -29 87.5 -9 74.25 32.5 59.5 26.25 24.75 77.25 7 46 rrcurveto
            64 405 -164 0 -55 -345 rlineto
            -10.25 -58.75 -15.75 -20.5 -94.75 4.25 rrcurveto
            return
          </CharString>
          <CharString index="188">
            156.5 0 33.5 213 57.5 0 87.5 -213 175.5 0 -112 271.25 194.5 299.75 -178.5 0 -155.75 -224 -47 0 34.75 224 -156.5 0 rlineto
            return
          </CharString>
          <CharString index="189">
            -14.25 -91.75 52 -39.25 72.5 0 rrcurveto
            296 0 23.25 149 -195 0 rlineto
            -41.25 0 -27 -0.5 9.5 57.5 rrcurveto
            57.5 364 -164 0 rlineto
            return
          </CharString>
          <CharString index="190">
            165.25 0 79.5 328.75 25.75 -328.75 167.5 0 123.5 330 -19.25 -330 161.25 0 37.5 571 -219 0 -137.25 -346.25 -27.25 346.25 -214 0 rlineto
            return
          </CharString>
          <CharString index="191">
            164 0 45.75 289.75 138.25 -289.75 160 0 90 571 -163 0 -44 -292.5 -140 292.5 -161 0 rlineto
            return
          </CharString>
          <CharString index="192">
            -39 -249 96.5 -54.75 161 0 168 0 97 28.25 39 245 41 256 -97.25 50.75 -163 0 -166 0 -98.25 -32.25 -39 -244 rrcurveto
            return
          </CharString>
          <CharString index="193">
            20.75 131 31 10 66.5 0 76.75 0 19 -11 -20.5 -128 -19.75 -124.75 -29.75 -18.25 -70.75 0 -80 0 -12.25 22.5 19 118.5 rrcurveto
            return
          </CharString>
          <CharString index="194">
            164.25 0 31 198.5 rlineto
            return
          </CharString>
          <CharString index="195">
            2.25 -5.25 100.25 -8.5 24.75 0.75 64.25 1.5 110.25 -1.25 24.5 183.75 20 146.5 -68.25 53 -104.75 0 rrcurveto
            -278.5 hlineto
            return
          </CharString>
          <CharString index="196">
            20.5 130.5 88.75 0 rlineto
            32.25 0 8 -23.5 -7.25 -42.5 rrcurveto
            return
          </CharString>
          <CharString index="197">
            -8.5 -53 -19 -11.5 -26 0 rrcurveto
            return
          </CharString>
          <CharString index="198">
            164 0 31.25 199.5 rlineto
            0.25 -0.5 59.75 -6 7.5 -0.5 rrcurveto
            50.25 -192.5 173 0 -70.5 206 rlineto
            48.75 13.75 40.25 30.25 15.25 111.25 20.25 149.25 -80 59 -101.5 0 rrcurveto
            -268.5 hlineto
            return
          </CharString>
          <CharString index="199">
            20.75 130.75 86.75 0 rlineto
            25 0 16.25 -18.75 -7.75 -46.5 -9.25 -52.75 -19 -12.75 -26 0 rrcurveto
            return
          </CharString>
          <CharString index="200">
            37.25 -24 211.5 -1 46 0 82.75 0 67.5 24.25 19.25 122.5 rrcurveto
            6.5 40 rlineto
            13.5 86.25 -14.75 87.75 -117.75 0 rrcurveto
            -122.5 hlineto
            -23.5 0 -10 5.25 4 25.5 rrcurveto
            4 23.75 rlineto
            2.75 19 11.75 15.75 25 0 rrcurveto
            110 129.75 -7.75 0 hvcurveto
            18 117 rlineto
            -80.25 18.75 -142 5 -52 0 -127.75 0 -45.25 -64.75 -13.75 -87.25 rrcurveto
            -6.5 -42.5 rlineto
            -14.5 -97.5 29.25 -71.75 113.75 0 rrcurveto
            115 hlineto
            23.5 0 9.5 -4.75 -4 -24 rrcurveto
            -5 -28 rlineto
            -1.25 -8 -7.75 -20.5 -29 0 rrcurveto
            -102 -143 6 0 hvcurveto
            return
          </CharString>
          <CharString index="201">
            156 0 -67 -421 164 0 67 421 156 0 24 149 -476 0 rlineto
            return
          </CharString>
          <CharString index="202">
            -39 -239 122.5 -48.5 136 0 121 0 125.5 9.5 37 233 rrcurveto
            49 332.5 -165 0 -49 -310 rlineto
            -15.5 -97.5 -32 -18.5 -54.75 0 -56.25 0 -31 15.5 16.5 100.5 rrcurveto
            49 310 -165 0 rlineto
            return
          </CharString>
          <CharString index="203">
            71.25 -570 202 0 65.75 152.75 21 -152.75 201.5 0 242 570 -170.75 0 -143.25 -373.25 -38.25 225.75 63.5 147.5 -170.75 0 -142.75 -373.25 -31.5 373.25 rlineto
            return
          </CharString>
          <CharString index="204">
            137.75 -372.5 -30.75 -198.5 164 0 30.75 198.5 246.75 372.5 -183 0 -125.5 -195.5 -68.25 195.5 rlineto
            return
          </CharString>
          <CharString index="205">
            456 0 24 149 -234 0 277 272 23 149 -456 0 -23 -149 245.5 0 -288.5 -272 rlineto
            return
          </CharString>
          <CharString index="206">
            -5.5 -34 23.5 -28.25 34 0 34 0 32 28.25 5.5 34 5.5 34 -23.25 27.5 -34 0 -34 0 -32.25 -27.5 -5.5 -34 rrcurveto
            return
          </CharString>
          <CharString index="207">
            2.75 21.75 19 17.25 21.75 0 21.75 0 14.75 -17.25 -2.75 -21.75 -2.75 -21.75 -17.25 -16.5 -21.75 0 -21.75 0 -16.5 16.5 2.75 21.75 rrcurveto
            return
          </CharString>
          <CharString index="208">
            61.25 0 -40.25 -255.5 272.75 0 rlineto
            85.5 0 131.75 -28.5 45.75 290.25 23.5 147.75 -20 160.5 -182 2 rrcurveto
            -266.5 0 -39.25 -247.5 -61.25 0 rlineto
            return
          </CharString>
          <CharString index="209">
            18 114 71.25 0 10.75 69 -70.75 0 17 106 87 0 rlineto
            48 0 21.5 -39.25 -17.25 -108.25 -11.75 -74 -20 -67.5 -66.75 0 rrcurveto
            return
          </CharString>
          <CharString index="210">
            0 0 137.25 -31.25 20 125.25 rrcurveto
            23.25 144.75 rlineto
            2.25 15.5 -4.25 12.25 -18.5 0 rrcurveto
            -97.25 hlineto
            -16.5 0 -10.25 -9.25 -3 -18.5 rrcurveto
            -16 -100.5 rlineto
            -3 -17.5 10.5 -8 14.25 0 rrcurveto
            11.25 0 -3.5 -18.25 rlineto
            -2 -10.5 -4 -21.5 -30.75 0.25 rrcurveto
            return
          </CharString>
          <CharString index="211">
            0 0 137.25 -31.25 20 125.25 rrcurveto
            23.25 144.75 rlineto
            2.25 15.5 -4 12.25 -18.5 0 rrcurveto
            -97.5 hlineto
            -16.5 0 -10.25 -9.25 -3 -18.5 rrcurveto
            -16 -100.5 rlineto
            -3 -17.5 10.5 -8 14.25 0 rrcurveto
            11.25 0 -3.5 -18.25 rlineto
            -2 -10.5 -4 -21.5 -30.75 0.25 rrcurveto
            return
          </CharString>
          <CharString index="212">
            164.75 0 92.25 582.75 rlineto
            3 17 22.75 5.75 0.25 -15.75 rrcurveto
            26.5 -450 rlineto
            -1.75 -196.75 318.5 7 29.5 186.25 rrcurveto
            92.5 595.75 -164 0 -90.75 -571 rlineto
            -2.5 -17 -21.25 -5.5 -0.5 19.5 rrcurveto
            -27.5 449.25 rlineto
            2.25 171.25 -321 15 -30.25 -196.25 rrcurveto
            return
          </CharString>
          <CharString index="213">
            163 0 105.75 533.25 rlineto
            3.5 18.75 24.75 3.75 -1 -16.75 rrcurveto
            -10.5 -269 rlineto
            -6.5 -149.25 285.5 7 36 135.5 rrcurveto
            71.5 269 rlineto
            4 16 25.5 3.75 -2.25 -17 rrcurveto
            -58.25 -535 166 0 59.5 620.75 rlineto
            14.75 152.5 -311.5 6.25 -34.5 -172.75 rrcurveto
            -71.25 -284.25 rlineto
            -3 -15.75 -28 -4 1.5 19.75 rrcurveto
            14 276 rlineto
            19.5 180 -307.5 -3.5 -31.75 -162 rrcurveto
            return
          </CharString>
          <CharString index="214">
            164 0 59.75 376.5 rlineto
            38.5 27 32.5 2.5 35.75 0 37.5 0 7.75 -19.5 -7 -46.5 rrcurveto
            -53.75 -340 164 0 55.25 346 rlineto
            0.75 5 2.25 20.75 -0.75 4.75 34.5 26.25 35.5 3.25 37 0 37.5 0 7.75 -19.5 -7 -46.5 rrcurveto
            -53.75 -340 164 0 58.25 370 rlineto
            14.75 94 -38.25 76 -106 0 -76 0 -65.75 -11.5 -68 -29.5 -21.5 25.5 -56 15.5 -47.5 0 -151.5 0 -56.25 -10 -104.5 -62 rrcurveto
            return
          </CharString>
          <CharString index="215">
            164 0 59.75 376.5 rlineto
            38.5 27 32.5 2.5 35.75 0 37.5 0 7.75 -19.5 -7 -46.5 rrcurveto
            -53.75 -340 164 0 59 370 rlineto
            14.75 94 -53.25 76 -106 0 -151.5 0 -63.75 -10 -104.5 -62 rrcurveto
            return
          </CharString>
          <CharString index="216">
            164 0 60.5 384 rlineto
            54.75 22 73.25 1.5 66.25 -12 rrcurveto
            22.5 142.5 rlineto
            -161 14 -114.75 -12.75 -90.25 -63.75 rrcurveto
            return
          </CharString>
          <CharString index="217">
            -32.25 -206 68 -88.75 150.75 0 69.75 0 147 5 42.75 26.25 rrcurveto
            61.75 447.5 rlineto
            -57.5 42.25 -88.5 24.5 -115.5 0 -139.25 0 -78 -56.75 -29 -194 rrcurveto
            return
          </CharString>
          <CharString index="218">
            18.75 125.5 17.5 34.75 63.5 0 30 0 25.25 -6.5 19.5 -7.25 rrcurveto
            -43.75 -289.25 rlineto
            0 -64.25 -1.5 -18.5 vhcurveto
            -61.25 0 1 61.5 12.25 82.75 rrcurveto
            return
          </CharString>
          <CharString index="219">
            -14.75 -94 46 -98.5 133 0 151.5 0 52.5 5.5 94 51.5 rrcurveto
            72 483 -164 0 -60 -382.75 rlineto
            -27 -20.5 -43.75 -2.75 -35.75 0 -37.5 0 -7.75 19.5 7 46.5 rrcurveto
            53.75 340 -164 0 rlineto
            return
          </CharString>
          <CharString index="220">
            52 -27.25 129.75 -5.5 96.25 0 126.5 0 84.75 50 30 196.5 27.5 183.75 -23 116.75 -151.25 0 -29.25 0 -66.5 -10.75 -37.25 -28.25 rrcurveto
            44.5 283 -164 0 rlineto
            return
          </CharString>
          <CharString index="221">
            44.75 284 rlineto
            32 16.5 21.25 4 33.5 0 67.5 0 -5.5 -54 -17 -105.75 -10 -60.75 -14.25 -84 -70.25 0 rrcurveto
            return
          </CharString>
          <CharString index="222">
            -29.75 -194.75 63.5 -96.75 121.75 0 96.25 0 137.75 5.5 54.75 27.25 rrcurveto
            120 759 -164 0 -44.5 -283.75 rlineto
            -27.75 28.25 -55.75 10.75 -45 0 -138 0 -61.75 -71 -27.5 -184.5 rrcurveto
            return
          </CharString>
          <CharString index="223">
            17 105.75 11 54 67.5 0 33.5 0 19.5 -4 27.5 -16.5 rrcurveto
            -45.75 -284 -82 0 rlineto
            -70.25 0 12.75 84 9.25 60.75 rrcurveto
            return
          </CharString>
          <CharString index="224">
            163.75 0 65.25 412 112.25 0 18.75 119 -111.75 0 8.5 54 rlineto
            11 67.5 4.75 16 49.75 0 rrcurveto
            0 103.75 -1 1 vhcurveto
            15.5 94.5 rlineto
            -45.5 18.75 -51.25 5.25 -60.25 0 -145.5 0 -33.25 -117 -9 -54 rrcurveto
            return
          </CharString>
          <CharString index="225">
            164 0 47.25 299.5 rlineto
            27.75 -28.25 40.5 -10.75 45 0 154.75 0 58.5 68 29.25 187.5 31.5 201 -60.75 90.5 -126.25 0 -106 0 -128.25 -15.25 -54.75 -17.5 rrcurveto
            return
          </CharString>
          <CharString index="226">
            45.5 284 82 0 rlineto
            70.25 0 -11.75 -84 -10 -60.75 -17 -105.75 -11.25 -54 -67.5 0 -33.5 0 -19.25 4 -27.5 16.5 rrcurveto
            return
          </CharString>
          <CharString index="227">
            -23.5 -148.5 71 -42 74.75 0 rrcurveto
            112 0 15.5 98 rlineto
            -7 -48.25 21 0 hvcurveto
            -23.25 11 -13.75 15.5 11.75 75 rrcurveto
            30 193 102.5 0 19.5 119 -102.5 0 23 148 -164 0 rlineto
            return
          </CharString>
        <CharString name=".notdef">
          250 0 13 505 13 hstem
          100 14 530 14 vstem
          100 hmoveto
          558 531 -558 hlineto
          14 -509 rmoveto
          0 485 256 -241 rlineto
          -246 252 rmoveto
          511 0 -254 -242 rlineto
          -254 -263 rmoveto
          254 243 253 -243 rlineto
          -242 253 rmoveto
          252 240 0 -481 rlineto
          endchar
        </CharString>
        <CharString name="A">
          190 21 -21 21 -21 147 142.25 442.75 -20 hstemhm
          hintmask 10110000
          30 hmoveto
          -82 callsubr
          -41.5 -442.75 rmoveto
          -81 callsubr
          endchar
        </CharString>
        <CharString name="AE">
          542 -3.5 152.75 -135.75 135.75 33.5 141.5 -40.75 155.5 -146.25 135.5 150.75 153 -153 137 hstemhm
          hintmask 10100000
          20.25 hmoveto
          182.5 0 120.25 182.75 160.5 0 -9.25 -59.5 rlineto
          -17 -108.25 111.25 -22.5 69.75 4 rrcurveto
          hintmask 01000000
          0 0 220.75 6.5 78.75 10.5 rrcurveto
          22 135.75 rlineto
          hintmask 10010000
          -254.5 hlineto
          -29 0 -33.25 -1 8 53 rrcurveto
          13 82.25 rlineto
          hintmask 00001000
          271.25 9.25 21 135.5 rlineto
          hintmask 00010100
          -267.25 10.75 13.5 84.75 rlineto
          4.5 27 4.75 28.25 51 0 rrcurveto
          hintmask 00000010
          265.25 0 21 137 rlineto
          hintmask 10100100
          -85.5 12 -221.75 4 0 0 -124.25 5.25 -126.25 -12.5 -104 -159.75 rrcurveto
          25.5 -240.75 rmoveto
          125.5 197.25 -32 -197.25 rlineto
          endchar
        </CharString>
        <CharString name="Aacute">
          190 0 21 126 142.25 422.75 20 65 140.5 hstem
          440.740005493 239.5 vstem
          440.740234375 797 rmoveto
          5 callsubr
          -517.740234375 -937.5 rmoveto
          -82 callsubr
          -41.5 -442.75 rmoveto
          -81 callsubr
          endchar
        </CharString>
        <CharString name="Abreve">
          190 0 21 126 142.25 422.75 20 65 60.25 hstem
          394.005996704 61.75 105.75 61.75 vstem
          394.005859375 909.5 rmoveto
          39 callsubr
          -425.755859375 -909.5 rmoveto
          -82 callsubr
          -41.5 -442.75 rmoveto
          -81 callsubr
          endchar
        </CharString>
        <CharString name="Acircumflex">
          190 0 21 126 142.25 422.75 20 65 137.5 hstem
          333.365005493 314.5 vstem
          333.365234375 797 rmoveto
          12 callsubr
          -429.365234375 -934.5 rmoveto
          -82 callsubr
          -41.5 -442.75 rmoveto
          -81 callsubr
          endchar
        </CharString>
        <CharString name="Adieresis">
          190 0 21 126 142.25 422.75 20 65 123.5 hstem
          311.634994507 123.5 131.5 123.5 vstem
          311.634765625 859.25 rmoveto
          -4 callsubr
          255 hmoveto
          -4 callsubr
          -536.634765625 -859.25 rmoveto
          -82 callsubr
          -41.5 -442.75 rmoveto
          -81 callsubr
          endchar
        </CharString>
        <CharString name="Agrave">
          190 0 21 126 142.25 422.75 20 65 140.5 hstem
          342.240005493 197.5 vstem
          342.240234375 937.5 rmoveto
          -43 callsubr
          -442.740234375 -937.5 rmoveto
          -82 callsubr
          -41.5 -442.75 rmoveto
          -81 callsubr
          endchar
        </CharString>
        <CharString name="Amacron">
          190 0 21 126 142.25 422.75 20 65 85.5 hstem
          344.613006592 305.75 vstem
          344.61328125 797 rmoveto
          0 callsubr
          -328.36328125 -882.5 rmoveto
          -82 callsubr
          -41.5 -442.75 rmoveto
          -81 callsubr
          endchar
        </CharString>
        <CharString name="Aogonek">
          214 -187.75 82.5 86 20 -0.75 21 126 142.25 422.75 20 hstemhm
          hintmask 11000000
          605.25 0.75 rmoveto
          40 callsubr
          hintmask 00111000
          -611.25 -0.75 rmoveto
          -82 callsubr
          -41.5 -442.75 rmoveto
          -81 callsubr
          endchar
        </CharString>
        <CharString name="Aring">
          190 0 21 126 142.25 422.75 20 -1.95799255371 62.25 77.5 61.5 hstemhm
          388.977005005 203 hintmask 00011100
          388.9765625 830.541992188 rmoveto
          -4.99609375 -57 44.265625 -43.5 56 0 56 0 46.7353515625 43.5 4.9951171875 57 4.9970703125 57 -42.4931640625 43.75 -56 0 -56 0 -48.5068359375 -43.75 -4.9970703125 -57 rrcurveto
          62.75 hmoveto
          2.15625 21.75 18.796875 17.5 21.75 0 21.75 0 15.203125 -17.5 -2.15625 -21.75 -2.1552734375 -21.75 -17.775390625 -16.5 -21.75 0 -21.75 0 -16.224609375 16.5 2.1552734375 21.75 rrcurveto
          hintmask 11100000
          -421.7265625 -830.541992188 rmoveto
          -82 callsubr
          -41.5 -442.75 rmoveto
          -81 callsubr
          endchar
        </CharString>
        <CharString name="Atilde">
          190 0 21 126 142.25 422.75 20 65.25 97 -62.25 97 hstemhm
          hintmask 00001000
          327.549804688 857.5 rmoveto
          13 callsubr
          hintmask 00010000
          14 callsubr
          hintmask 00001000
          15 callsubr
          hintmask 11100000
          -297.549804688 -857.5 rmoveto
          -82 callsubr
          -41.5 -442.75 rmoveto
          -81 callsubr
          endchar
        </CharString>
        <CharString name="B">
          92 0 141.5 174.75 134 140.25 141.5 hstem
          53.75 hmoveto
          -80 callsubr
          70.75 -590.5 rmoveto
          -79 callsubr
          -84.75 308.75 rmoveto
          -78 callsubr
          endchar
        </CharString>
        <CharString name="C">
          61 -6 149 448 149 hstem
          94.75 391.25 rmoveto
          -77 callsubr
          endchar
        </CharString>
        <CharString name="Cacute">
          61 -6 149 448 149 60 140.5 hstem
          406.042007446 239.5 vstem
          406.041992188 800 rmoveto
          5 callsubr
          -418.291992188 -549.25 rmoveto
          -77 callsubr
          endchar
        </CharString>
        <CharString name="Ccaron">
          61 -6 149 448 149 60 137.5 hstem
          326.317001343 314.5 vstem
          326.317382812 937.5 rmoveto
          41 callsubr
          -331.067382812 -546.25 rmoveto
          -77 callsubr
          endchar
        </CharString>
        <CharString name="Ccedilla">
          61 -6 149 448 149 hstem
          264.5 104.5 vstem
          94.75 391.25 rmoveto
          -35.5 -227 42.5 -168 185.25 -2.25 127.25 -2.25 66 6.75 70.75 25.25 rrcurveto
          20 128 rlineto
          -35.5 -2.5 -91.75 -7 -89.75 0.75 -105 2.25 -16.25 57.25 26.5 163.5 36 229 54.5 -4.25 76.75 0.25 101 0.5 103.5 -16.25 6.25 -0.75 rrcurveto
          20.25 128 rlineto
          -77.75 27.25 -54.75 10.25 -121 0 -199 0 -73.5 -115.5 -36.75 -233.25 rrcurveto
          76.25 -571 rmoveto
          58.5 hlineto
          89 0 34.5 41.5 16 102 0 0 -97.5 -0.25 -7 0.25 -6 -38 -3 -11 -30.25 -11 rrcurveto
          -43 -15 rlineto
          endchar
        </CharString>
        <CharString name="Ccircumflex">
          61 -6 149 448 149 60 137.5 hstem
          284.167007446 314.5 vstem
          284.166992188 800 rmoveto
          12 callsubr
          -315.416992188 -546.25 rmoveto
          -77 callsubr
          endchar
        </CharString>
        <CharString name="Cdotaccent">
          61 -6 149 448 149 60 132 hstem
          383.897003174 140.5 vstem
          383.897460938 823 rmoveto
          42 callsubr
          -302.647460938 -515.75 rmoveto
          -77 callsubr
          endchar
        </CharString>
        <CharString name="D">
          143 0 142.25 448.25 141.5 hstem
          53.75 hmoveto
          -76 callsubr
          70.5 -589.5 rmoveto
          -75 callsubr
          endchar
        </CharString>
        <CharString name="Dcaron">
          143 0 142.25 448.25 141.5 63.75 137.5 hstem
          303.25 314.5 vstem
          303.25 933.25 rmoveto
          41 callsubr
          -345 -933.25 rmoveto
          -76 callsubr
          70.5 -589.5 rmoveto
          -75 callsubr
          endchar
        </CharString>
        <CharString name="Dcroat">
          139 0 142.25 196.25 69 183 141.5 hstem
          56.25 338.5 rmoveto
          16 callsubr
          186.75 -265.25 rmoveto
          17 callsubr
          endchar
        </CharString>
        <CharString name="E">
          50 -3 152.75 -135.75 135.75 138 155.5 -146.25 135.5 146.75 152.75 -152.75 136.75 hstemhm
          hintmask 10000000
          72.5 160.5 rmoveto
          -74 callsubr
          hintmask 01000000
          -73 callsubr
          hintmask 10100000
          -72 callsubr
          hintmask 00010000
          -71 callsubr
          hintmask 00101000
          -70 callsubr
          hintmask 00000100
          -69 callsubr
          hintmask 10001000
          -68 callsubr
          endchar
        </CharString>
        <CharString name="Eacute">
          50 -3 152.75 -135.75 135.75 138 155.5 -146.25 135.5 146.75 136.75 -136.75 152.75 60 140.5 hstemhm
          375.5 239.5 hintmask 00000011
          375.5 792 rmoveto
          5 callsubr
          hintmask 10000000
          -410 -772 rmoveto
          -74 callsubr
          hintmask 01000000
          -73 callsubr
          hintmask 10100000
          -72 callsubr
          hintmask 00010000
          -71 callsubr
          hintmask 00100100
          -70 callsubr
          hintmask 00001000
          -69 callsubr
          hintmask 10000100
          -68 callsubr
          endchar
        </CharString>
        <CharString name="Ecaron">
          50 -3 152.75 -135.75 135.75 138 155.5 -146.25 135.5 146.75 136.75 -136.75 152.75 65 137.5 hstemhm
          291.979995728 314.5 hintmask 00000011
          291.98046875 934.5 rmoveto
          41 callsubr
          hintmask 10000000
          -318.98046875 -774 rmoveto
          -74 callsubr
          hintmask 01000000
          -73 callsubr
          hintmask 10100000
          -72 callsubr
          hintmask 00010000
          -71 callsubr
          hintmask 00100100
          -70 callsubr
          hintmask 00001000
          -69 callsubr
          hintmask 10000100
          -68 callsubr
          endchar
        </CharString>
        <CharString name="Ecircumflex">
          50 -3 152.75 -135.75 135.75 138 155.5 -146.25 135.5 146.75 136.75 -136.75 152.75 60 137.75 hstemhm
          271.5 314.5 hintmask 00000011
          271.5 792 rmoveto
          -44 callsubr
          hintmask 10000000
          -325 -769.25 rmoveto
          -74 callsubr
          hintmask 01000000
          -73 callsubr
          hintmask 10100000
          -72 callsubr
          hintmask 00010000
          -71 callsubr
          hintmask 00100100
          -70 callsubr
          hintmask 00001000
          -69 callsubr
          hintmask 10000100
          -68 callsubr
          endchar
        </CharString>
        <CharString name="Edieresis">
          50 -3 152.75 -135.75 135.75 138 155.5 -146.25 135.5 146.75 136.75 -136.75 152.75 48.75 123.5 hstemhm
          236.75 123.5 131.5 123.5 hintmask 0000001110000000
          236.75 843 rmoveto
          -4 callsubr
          255 hmoveto
          -4 callsubr
          hintmask 1000000000000000
          -419.25 -682.5 rmoveto
          -74 callsubr
          hintmask 0100000000000000
          -73 callsubr
          hintmask 1010000000000000
          -72 callsubr
          hintmask 0001000000000000
          -71 callsubr
          hintmask 0010010000000000
          -70 callsubr
          hintmask 0000100000000000
          -69 callsubr
          hintmask 1000010000000000
          -68 callsubr
          endchar
        </CharString>
        <CharString name="Edotaccent">
          50 -3 152.75 -135.75 135.75 138 155.5 -146.25 135.5 146.75 136.75 -136.75 152.75 65 132 hstemhm
          371.061004639 140.5 hintmask 00000011
          371.060546875 820 rmoveto
          42 callsubr
          hintmask 10000000
          -312.060546875 -743.5 rmoveto
          -74 callsubr
          hintmask 01000000
          -73 callsubr
          hintmask 10100000
          -72 callsubr
          hintmask 00010000
          -71 callsubr
          hintmask 00100100
          -70 callsubr
          hintmask 00001000
          -69 callsubr
          hintmask 10000100
          -68 callsubr
          endchar
        </CharString>
        <CharString name="Egrave">
          50 -3 152.75 -135.75 135.75 138 155.5 -146.25 135.5 146.75 136.75 -136.75 152.75 60 140.5 hstemhm
          273 197.5 hintmask 00000011
          273 932.5 rmoveto
          -43 callsubr
          hintmask 10000000
          -331 -772 rmoveto
          -74 callsubr
          hintmask 01000000
          -73 callsubr
          hintmask 10100000
          -72 callsubr
          hintmask 00010000
          -71 callsubr
          hintmask 00100100
          -70 callsubr
          hintmask 00001000
          -69 callsubr
          hintmask 10000100
          -68 callsubr
          endchar
        </CharString>
        <CharString name="Emacron">
          50 -3 152.75 -135.75 135.75 138 155.5 -146.25 135.5 146.75 136.75 -136.75 152.75 60 85.5 hstemhm
          275.75 305.75 hintmask 00000011
          275.75 792 rmoveto
          0 callsubr
          hintmask 10000000
          -217 -717 rmoveto
          -74 callsubr
          hintmask 01000000
          -73 callsubr
          hintmask 10100000
          -72 callsubr
          hintmask 00010000
          -71 callsubr
          hintmask 00100100
          -70 callsubr
          hintmask 00001000
          -69 callsubr
          hintmask 10000100
          -68 callsubr
          endchar
        </CharString>
        <CharString name="Eng">
          164 -257 117 161 -21 21 -21 732 -20 hstemhm
          hintmask 11010000
          53.75 hmoveto
          165 0 67 421.5 183.25 -420 -10.5 -64 rlineto
          -11.5 -73.5 -49.5 0.75 -53.5 -4.75 rrcurveto
          -18.75 -117 rlineto
          118 -9.75 149.5 15 29.25 182.75 rrcurveto
          11 70 115.75 731 -164 0 -67.75 -429 -182.25 429 -165 0 rlineto
          endchar
        </CharString>
        <CharString name="Eogonek">
          48 -174.5 82.5 86 20 -17 152.75 -135.75 135.75 138 155.5 -146.25 135.5 146.75 136.75 -136.75 152.75 hstemhm
          hintmask 11000000
          469.75 14 rmoveto
          40 callsubr
          hintmask 00100000
          -457.5 146.5 rmoveto
          -74 callsubr
          hintmask 00010000
          -73 callsubr
          hintmask 00101000
          -72 callsubr
          hintmask 00000100
          -71 callsubr
          hintmask 00001001
          -70 callsubr
          hintmask 00000010
          -69 callsubr
          hintmask 00100001
          -68 callsubr
          endchar
        </CharString>
        <CharString name="Eth">
          139 0 142.25 196.25 69 183 141.5 hstem
          42 338.5 rmoveto
          16 callsubr
          186.75 -265.25 rmoveto
          17 callsubr
          endchar
        </CharString>
        <CharString name="Euro">
          191 -6 134 112.5 91 -84 77 63 90 -82 73 130 141.5 hstemhm
          hintmask 10100100
          51.25 247.5 rmoveto
          hintmask 11000100
          72 -7 rlineto
          -36 -226 168.75 -20.5 77 0 113 0 88.25 7.5 76.75 35 rrcurveto
          18.75 116 rlineto
          0 -141.5 -24.5 -88.75 vhcurveto
          -67 0 -62 8 16.75 104.5 rrcurveto
          hintmask 10100100
          -3 2 238 5 0 0 rrcurveto
          12.25 77 rlineto
          hintmask 11010100
          -232.75 7 8.5 56 235 7 12.25 76 -233 7 rlineto
          12.75 75.25 8.25 45.75 128 0 rrcurveto
          82 138.5 -15 0 hvcurveto
          18.75 119 rlineto
          -77.75 27.25 -132 10.25 -52 0 -244 0 -35.5 -190.5 -11 -72 rrcurveto
          hintmask 10001100
          -74 -9 -11.5 -73 rlineto
          hintmask 11010100
          71.25 -8 -8.5 -56 rlineto
          hintmask 10100100
          -74.25 -7 rlineto
          endchar
        </CharString>
        <CharString name="Euro.smcp">
          12 -5 136.5 0 57.75 6 69.5 40 66.5 71.75 134 hstemhm
          hintmask 01111000
          41 195.25 rmoveto
          52.25 -6 rlineto
          hintmask 10111000
          -21.25 -160.25 109.25 -34 88.75 0 65 0 112.25 6.25 54 21.75 rrcurveto
          19 121.75 rlineto
          0 -117 -13.25 -75.5 vhcurveto
          hintmask 01111000
          -36 0 -43 1 9.25 56.75 -2 2 173.25 4 0 0 rrcurveto
          10.75 69.5 -169 5 4.5 29 171 5 11 68.5 -169.25 6 rlineto
          7.5 44 24.25 20.75 58.5 0 rrcurveto
          64 121 -11 0 hvcurveto
          18.75 122 rlineto
          -77 14.5 -101.5 8.5 -41 0 -201 0 -27.25 -119.5 -11.25 -79.25 rrcurveto
          -54.25 -7 -10.5 -66.5 52 -6 -4.5 -29 -54.25 -5 rlineto
          endchar
        </CharString>
        <CharString name="F">
          51 21 -21 21 -21 284.75 155.5 -146.25 135.5 149.75 152.75 -152.75 136.75 hstemhm
          hintmask 10100000
          50 hmoveto
          -67 callsubr
          hintmask 00010000
          -66 callsubr
          hintmask 00101000
          -65 callsubr
          hintmask 00000100
          21 136.75 rlineto
          hintmask 10101000
          -64 callsubr
          endchar
        </CharString>
        <CharString name="G">
          107 -5.5 152 451.75 141.5 hstem
          99 399.25 rmoveto
          -63 callsubr
          endchar
        </CharString>
        <CharString name="Gbreve">
          107 -5.5 152 451.75 141.5 60.0099945068 60.25 hstem
          342.598007202 61.75 105.75 61.75 vstem
          342.59765625 912.259765625 rmoveto
          39 callsubr
          -305.34765625 -513.009765625 rmoveto
          -63 callsubr
          endchar
        </CharString>
        <CharString name="Gcircumflex">
          107 -5.5 152 451.75 141.5 60.0099945068 137.5 hstem
          283.457000732 314.5 vstem
          283.45703125 799.759765625 rmoveto
          12 callsubr
          -310.45703125 -538.009765625 rmoveto
          -63 callsubr
          endchar
        </CharString>
        <CharString name="Gcommaaccent">
          107 -279.199996948 49.0500030518 224.649993896 152 451.75 141.5 hstem
          239.175003052 156.149993896 vstem
          hintmask 00000000
          239.174804688 -279.200195312 rmoveto
          56 callsubr
          -148.049804688 629.400390625 rmoveto
          -63 callsubr
          endchar
        </CharString>
        <CharString name="Gdotaccent">
          107 -5.5 152 451.75 141.5 60.25 132 hstem
          384.25 140.5 vstem
          384.25 823 rmoveto
          42 callsubr
          -298.75 -507.75 rmoveto
          -63 callsubr
          endchar
        </CharString>
        <CharString name="H">
          128 21 -21 21 -21 279.5 149 303.5 -20 hstemhm
          hintmask 10110000
          55 hmoveto
          -62 callsubr
          endchar
        </CharString>
        <CharString name="Hbar">
          161 21 -21 21 -21 279.75 149.25 87.25 69.25 146.5 -20 hstemhm
          hintmask 10111000
          55.75 hmoveto
          164 0 44.5 279.75 215 0 -44.5 -279.75 164 0 82 516.25 63.5 0 10.25 69.25 -63.5 0 23.75 146.5 -164 0 -23.75 -146.5 -215 0 23.75 146.5 -164 0 rlineto
          -23.75 -146.5 -64 0 -10.25 -69.25 64 0 rlineto
          150 -87.25 rmoveto
          14 87.25 215 0 -14 -87.25 rlineto
          endchar
        </CharString>
        <CharString name="Hcircumflex">
          128 0 21 258.5 149 283.5 20 65 137.5 hstem
          295.365005493 314.5 vstem
          295.365234375 797 rmoveto
          12 callsubr
          -366.365234375 -934.5 rmoveto
          -62 callsubr
          endchar
        </CharString>
        <CharString name="I">
          -241 21 -21 21 -21 732 -20 hstemhm
          56.25 280 hintmask 10110000
          56.25 hmoveto
          -61 callsubr
          endchar
        </CharString>
        <CharString name="Iacute">
          -241 0 21 691 20 65 140.5 hstemhm
          56.25 280 -121.009994507 239.5 hintmask 00101000
          215.240234375 797 rmoveto
          5 callsubr
          hintmask 11010000
          -265.990234375 -937.5 rmoveto
          -61 callsubr
          endchar
        </CharString>
        <CharString name="Icircumflex">
          -241 0 21 691 20 65 137.5 hstemhm
          56.25 280 -229.135299683 314.5 hintmask 00101000
          107.114257812 797 rmoveto
          12 callsubr
          hintmask 11010000
          -176.864257812 -934.5 rmoveto
          -61 callsubr
          endchar
        </CharString>
        <CharString name="Idieresis">
          -241 0 21 691 20 65 123.5 hstemhm
          56.25 280 -250.864700317 123.5 131.5 123.5 hintmask 00101100
          85.3857421875 859.25 rmoveto
          -4 callsubr
          255 hmoveto
          -4 callsubr
          hintmask 11010000
          -284.135742188 -859.25 rmoveto
          -61 callsubr
          endchar
        </CharString>
        <CharString name="Idotaccent">
          -241 0 21 691 20 65 132 hstemhm
          56.25 280 -131.904006958 140.5 hintmask 00101000
          204.345703125 820 rmoveto
          42 callsubr
          hintmask 11010000
          -161.595703125 -904 rmoveto
          -61 callsubr
          endchar
        </CharString>
        <CharString name="Idotaccent.smcp">
          -254 21 -21 21 -21 617 132 hstemhm
          157 140.5 hintmask 10110000
          36.75 hmoveto
          79 callsubr
          hintmask 00110000
          30.25 70 rmoveto
          42 callsubr
          endchar
        </CharString>
        <CharString name="Igrave">
          -241 0 21 691 20 65 140.5 hstemhm
          56.25 280 -219.510253906 197.5 hintmask 00101000
          116.740234375 937.5 rmoveto
          -43 callsubr
          hintmask 11010000
          -190.990234375 -937.5 rmoveto
          -61 callsubr
          endchar
        </CharString>
        <CharString name="Imacron">
          -241 0 21 691 20 63.75 85.5 hstemhm
          44.25 280 -220.75 305.75 hintmask 00101000
          103.5 795.75 rmoveto
          0 callsubr
          hintmask 11010000
          -73 -881.25 rmoveto
          -61 callsubr
          endchar
        </CharString>
        <CharString name="Iogonek">
          -241 -187.730636597 82.5 86 20 -0.76936340332 21 691 20 hstemhm
          56.25 280 hintmask 00000000
          hintmask 11000000
          114.084960938 0.76953125 rmoveto
          -150.2109375 -74.5 85.3017578125 -143.5 106.938476562 29.5 rrcurveto
          12.9326171875 82.5 rlineto
          -48.2470703125 -5.5 -32.0810546875 54.75 86.544921875 56.75 rrcurveto
          hintmask 00111000
          -119.013671875 -0.76953125 rmoveto
          -61 callsubr
          endchar
        </CharString>
        <CharString name="Itilde">
          -241 0 21 691 20 65.25 97 -62.25 97 hstemhm
          56.25 280 hintmask 00010000
          101.299804688 857.5 rmoveto
          13 callsubr
          hintmask 00100000
          14 callsubr
          hintmask 00010000
          15 callsubr
          hintmask 11001000
          -45.0498046875 -857.5 rmoveto
          -61 callsubr
          endchar
        </CharString>
        <CharString name="J">
          -153 732 -20 hstem
          26.75 24 rmoveto
          -60 callsubr
          endchar
        </CharString>
        <CharString name="Jcircumflex">
          -153 712 20 65 137.5 hstem
          202.365005493 314.5 vstem
          202.365234375 797 rmoveto
          12 callsubr
          -301.615234375 -910.5 rmoveto
          -60 callsubr
          endchar
        </CharString>
        <CharString name="K">
          130 21 -21 21 -21 732 -20 hstemhm
          hintmask 10100000
          53.75 hmoveto
          -59 callsubr
          endchar
        </CharString>
        <CharString name="Kcommaaccent">
          130 -274.199996948 49.0500030518 225.149993896 21 691 20 hstem
          220.675003052 156.149993896 vstem
          hintmask 00000000
          220.674804688 -274.200195312 rmoveto
          56 callsubr
          -174.799804688 225.150390625 rmoveto
          -59 callsubr
          endchar
        </CharString>
        <CharString name="L">
          19 0 149 583 -20 hstem
          76.5 148.5 rmoveto
          -58 callsubr
          endchar
        </CharString>
        <CharString name="Lacute">
          19 0 149 563 20 60 140.5 hstem
          159.25 239.5 vstem
          159.25 792 rmoveto
          5 callsubr
          -236 -784 rmoveto
          -58 callsubr
          endchar
        </CharString>
        <CharString name="Lcaron">
          19 0 149 583 -20 hstem
          374.25 83 vstem
          76.5 148.5 rmoveto
          -17.25 -108.25 66.9980010986 -40.25 85.0019989014 0 rrcurveto
          299 0 23.75 149 -231 0 rlineto
          -29 0 -33.25 -1 8 53 rrcurveto
          84.25 531 -163.75 0 rlineto
          205 -161 rmoveto
          83 0 31 134 10.25 67 -104 0 -10.25 -67 rlineto
          endchar
        </CharString>
        <CharString name="Lcommaaccent">
          19 -274.199996948 49.0500030518 225.149993896 149 563 20 hstem
          192.675003052 156.149993896 vstem
          hintmask 00000000
          192.674804688 -274.200195312 rmoveto
          56 callsubr
          -124.049804688 373.650390625 rmoveto
          -58 callsubr
          endchar
        </CharString>
        <CharString name="Lslash">
          21 0 149 583 -20 hstem
          24.5 299.75 rmoveto
          81.75 32.5 -29.5 -183.75 rlineto
          -17.25 -108.25 67.7480010986 -40.25 85.0019989014 0 rrcurveto
          298.75 0 23.25 149 -231.25 0 rlineto
          -29 0 -33 -1 8 53 rrcurveto
          32.25 201.5 108.75 43.5 12.5 75.75 -109.25 -43.5 39.75 253.75 -163.75 0 -50.75 -324 -81.75 -32.25 rlineto
          endchar
        </CharString>
        <CharString name="M">
          329 21 -21 21 -21 732 -20 hstemhm
          hintmask 10100000
          41 hmoveto
          -57 callsubr
          endchar
        </CharString>
        <CharString name="M.salt">
          371 21 -21 21 -21 hstemhm
          hintmask 10000000
          37 hmoveto
          106 callsubr
          endchar
        </CharString>
        <CharString name="N">
          164 21 -21 21 -21 732 -20 hstemhm
          hintmask 10100000
          53.75 hmoveto
          -56 callsubr
          endchar
        </CharString>
        <CharString name="N.salt">
          218 21 -21 21 -21 732 -20 hstemhm
          hintmask 10100000
          53.75 hmoveto
          105 callsubr
          endchar
        </CharString>
        <CharString name="Nacute">
          164 0 21 691 20 65 140.5 hstem
          419.865005493 239.5 vstem
          419.865234375 797 rmoveto
          5 callsubr
          -473.115234375 -937.5 rmoveto
          -56 callsubr
          endchar
        </CharString>
        <CharString name="Nacute.salt">
          218 0 21 691 20 68 140.5 hstem
          475.5 239.5 vstem
          475.5 800 rmoveto
          5 callsubr
          -528.75 -940.5 rmoveto
          105 callsubr
          endchar
        </CharString>
        <CharString name="Ncaron">
          164 0 21 691 20 65 137.5 hstem
          334.13999939 314.5 vstem
          334.139648438 934.5 rmoveto
          41 callsubr
          -379.889648438 -934.5 rmoveto
          -56 callsubr
          endchar
        </CharString>
        <CharString name="Ncaron.salt">
          218 0 21 691 20 68 137.5 hstem
          364.25 314.5 vstem
          364.25 937.5 rmoveto
          41 callsubr
          -410 -937.5 rmoveto
          105 callsubr
          endchar
        </CharString>
        <CharString name="Ncommaaccent">
          164 -274.199996948 49.0500030518 225.149993896 21 691 20 hstem
          250.925003052 156.149993896 vstem
          hintmask 00000000
          250.924804688 -274.200195312 rmoveto
          56 callsubr
          -205.049804688 225.150390625 rmoveto
          -56 callsubr
          endchar
        </CharString>
        <CharString name="Ncommaaccent.salt">
          218 -302.050003052 53.1374969482 248.912506104 21 691 20 hstem
          279.793746948 169.162506104 vstem
          hintmask 00000000
          279.793945312 -302.049804688 rmoveto
          0 0 129.918945312 -38.7568359375 18.28125 113.83203125 rrcurveto
          20.9619140625 131.625 rlineto
          1.9501953125 14.625 -3.65625 11.69921875 -17.5498046875 0 rrcurveto
          -93.6005859375 hlineto
          -15.599609375 0 -9.994140625 -8.7744140625 -2.9248046875 -17.5498046875 rrcurveto
          -15.1123046875 -96.525390625 rlineto
          -2.9248046875 -16.5751953125 9.75 -7.7998046875 13.6494140625 0 rrcurveto
          10.7255859375 0 -1.7060546875 -9.75 rlineto
          -1.9501953125 -9.994140625 -2.4375 -13.8935546875 -29.25 0.9755859375 rrcurveto
          -234.575195312 248.912109375 rmoveto
          105 callsubr
          endchar
        </CharString>
        <CharString name="Ntilde">
          164 0 21 691 20 64 97 -62.25 97 hstemhm
          hintmask 00010000
          304.75 856.25 rmoveto
          13 callsubr
          hintmask 00100000
          14 callsubr
          hintmask 00010000
          15 callsubr
          hintmask 11000000
          -251 -856.25 rmoveto
          -56 callsubr
          endchar
        </CharString>
        <CharString name="Ntilde.salt">
          218 0 21 691 20 65.25 97 -62.25 97 hstemhm
          hintmask 00010000
          311.5 857.5 rmoveto
          13 callsubr
          hintmask 00100000
          14 callsubr
          hintmask 00010000
          15 callsubr
          hintmask 11000000
          -257.75 -857.5 rmoveto
          105 callsubr
          endchar
        </CharString>
        <CharString name="O">
          158 -4 149 443 149 hstem
          99.25 379.75 rmoveto
          -55 callsubr
          164 -18.75 rmoveto
          -54 callsubr
          endchar
        </CharString>
        <CharString name="OE">
          516 -4 149 -131 135.75 138 155.5 -146.25 135.5 146.75 152.75 -152.75 136.75 -128 149 hstemhm
          hintmask 10000000
          80.75 379.75 rmoveto
          -53 -333 120 -50.75 175.5 0 79.25 0 68 5.25 56 35 31.25 -31.75 49.25 -9.75 37.5 2.25 rrcurveto
          hintmask 01100000
          0 0 222.75 6.5 79.5 10.5 rrcurveto
          21.25 135.75 -254.5 0 rlineto
          -29 0 -33 -1 8.5 53 rrcurveto
          14 86 rlineto
          hintmask 00010000
          269.5 9.25 21 135.5 rlineto
          hintmask 00101000
          -266.25 10.75 12.25 80 rlineto
          4 27 6 29 51 0 rrcurveto
          hintmask 00000100
          -69 callsubr
          hintmask 00001000
          -86.25 12 -221 4 0 0 -51 3 -50.25 -7.5 -36.75 -37.25 rrcurveto
          hintmask 10000010
          -43.25 37.25 -61.75 9.5 -72 0 rrcurveto
          -169.75 0 -131 -14.25 -54 -343 rrcurveto
          164 -18.75 rmoveto
          -54 callsubr
          endchar
        </CharString>
        <CharString name="Oacute">
          158 -4 149 443 149 60 140.5 hstem
          414.042007446 239.5 vstem
          414.041992188 797 rmoveto
          5 callsubr
          -421.791992188 -557.75 rmoveto
          -55 callsubr
          164 -18.75 rmoveto
          -54 callsubr
          endchar
        </CharString>
        <CharString name="Ocircumflex">
          158 -4 149 443 149 60 137.5 hstem
          306.667007446 314.5 vstem
          306.666992188 797 rmoveto
          12 callsubr
          -333.416992188 -554.75 rmoveto
          -55 callsubr
          164 -18.75 rmoveto
          -54 callsubr
          endchar
        </CharString>
        <CharString name="Odieresis">
          158 -4 149 443 149 60 123.5 hstem
          284.93699646 123.5 131.5 123.5 vstem
          284.936523438 859.25 rmoveto
          -4 callsubr
          255 hmoveto
          -4 callsubr
          -440.686523438 -479.5 rmoveto
          -55 callsubr
          164 -18.75 rmoveto
          -54 callsubr
          endchar
        </CharString>
        <CharString name="Ograve">
          158 -4 149 443 149 60 140.5 hstem
          315.542007446 197.5 vstem
          315.541992188 937.5 rmoveto
          -43 callsubr
          -346.791992188 -557.75 rmoveto
          -55 callsubr
          164 -18.75 rmoveto
          -54 callsubr
          endchar
        </CharString>
        <CharString name="Ohungarumlaut">
          158 -4 149 443 149 60 140.5 hstem
          332.666992188 797 rmoveto
          5 callsubr
          56.5 -140.5 rmoveto
          5 callsubr
          -503.916992188 -557.75 rmoveto
          -55 callsubr
          164 -18.75 rmoveto
          -54 callsubr
          endchar
        </CharString>
        <CharString name="Omacron">
          158 -4 149 443 149 58.75 85.5 hstem
          319.75 305.75 vstem
          319.75 795.75 rmoveto
          0 callsubr
          -234.25 -501.5 rmoveto
          -55 callsubr
          164 -18.75 rmoveto
          -54 callsubr
          endchar
        </CharString>
        <CharString name="Omega">
          249 0 134.5 455.5 149 hstem
          49.25 hmoveto
          250 0 23.5 145.5 rlineto
          -71.5 75.5 0.25 60.75 15.75 98.25 14 89.5 46.75 120.5 144.5 0 140 0 7.5 -120 -13.25 -85 -15.75 -100 -22.75 -74 -88 -65.5 rrcurveto
          -23.5 -145.5 258 0 21.5 134.5 -97 10 rlineto
          75.5 65 37.75 64 19 117 29 182 -69 166.5 -242.5 0 -262 0 -94.25 -159.75 -25.25 -153.75 -17 -102.25 10.5 -119.75 74.75 -58 rrcurveto
          -105 -10 rlineto
          endchar
        </CharString>
        <CharString name="Oslash">
          158 -4 149 443 149 hstem
          33 hmoveto
          79.75 0 34.5 40.25 rlineto
          45.75 -38 68.25 -6.25 79 0 178.25 0 124.75 19.5 50.5 323 23 148.75 -10 112.75 -32.5 55 rrcurveto
          65.75 77 -79.75 0 -27.75 -32.75 rlineto
          -44.5 31.25 -63 6.5 -71.75 0 -169.75 0 -131.75 -10.5 -54 -343 -21.5 -133 7.75 -107.5 26 -53.75 rrcurveto
          151.75 271.75 rmoveto
          32.75 209 38 18 99.25 0 38.5 0 29.25 -3.25 18.25 -17.25 rrcurveto
          -264 -311.75 rlineto
          -2.25 25.75 3 33.5 7.25 46 rrcurveto
          4 -184 rmoveto
          273.25 323 rlineto
          4 -32 -3.5 -44 -9.75 -63 -28.5 -178.5 -39.5 -37.5 -100 0 -49.5 0 -30.25 7.5 -16.25 24.5 rrcurveto
          endchar
        </CharString>
        <CharString name="Otilde">
          158 -4 149 443 149 60.25 97 -62.25 97 hstemhm
          hintmask 00010000
          300.1015625 857.5 rmoveto
          13 callsubr
          hintmask 00100000
          14 callsubr
          hintmask 00010000
          15 callsubr
          hintmask 11000000
          -200.8515625 -477.75 rmoveto
          -55 callsubr
          164 -18.75 rmoveto
          -54 callsubr
          endchar
        </CharString>
        <CharString name="P">
          90 21 -21 21 -21 279.75 122.25 187.5 142.5 hstemhm
          hintmask 10110000
          51.75 hmoveto
          -53 callsubr
          111.5 -330 rmoveto
          -52 callsubr
          endchar
        </CharString>
        <CharString name="Q">
          159 -189.25 125 60.25 149 443 149 hstem
          100.25 383.5 rmoveto
          -53 -333 120 -54.5 175.5 0 178.25 1.5 124.75 18 50.5 323 53 340 -121 58.5 -173.25 0 -169.75 0 -131 -10.5 -54 -343 rrcurveto
          164 -22.5 rmoveto
          -54 callsubr
          23 -394 rmoveto
          -17.25 -138.25 128.75 -38.25 114.25 20.25 rrcurveto
          19.75 125 rlineto
          -61.75 -14.25 -83.5 -11.25 -10.75 56.75 rrcurveto
          endchar
        </CharString>
        <CharString name="R">
          93 21 -21 21 -21 281.75 125.5 182.25 142.5 hstemhm
          hintmask 10110000
          51.75 hmoveto
          -51 callsubr
          113.25 -324.75 rmoveto
          -50 callsubr
          endchar
        </CharString>
        <CharString name="Racute">
          93 0 21 260.75 125.5 182.25 142.5 61.25 140.5 hstem
          359.740005493 239.5 vstem
          359.740234375 793.25 rmoveto
          5 callsubr
          -423.990234375 -933.75 rmoveto
          -51 callsubr
          113.25 -324.75 rmoveto
          -50 callsubr
          endchar
        </CharString>
        <CharString name="Rcaron">
          93 0 21 260.75 125.5 182.25 142.5 65 137.5 hstem
          289.51499939 314.5 vstem
          289.514648438 934.5 rmoveto
          41 callsubr
          -337.264648438 -934.5 rmoveto
          -51 callsubr
          113.25 -324.75 rmoveto
          -50 callsubr
          endchar
        </CharString>
        <CharString name="Rcommaaccent">
          93 -274.199996948 49.0500030518 225.149993896 21 260.75 125.5 182.25 142.5 hstem
          217.925003052 156.149993896 vstem
          hintmask 00000000
          217.924804688 -274.200195312 rmoveto
          56 callsubr
          -174.049804688 225.150390625 rmoveto
          -51 callsubr
          113.25 -324.75 rmoveto
          -50 callsubr
          endchar
        </CharString>
        <CharString name="S">
          74 -8 149 139.75 164 144.25 149 hstem
          67.75 23.5 rmoveto
          80 -27.25 66.4750061035 -4.25 127.524993896 0 94.75 0 137.25 7.5 11.25 179 rrcurveto
          4.25 64.25 rlineto
          10.75 80.5 -18.5 121.5 -144.75 0 rrcurveto
          -90.25 hlineto
          -53.75 0 -16 10.5 8 50 rrcurveto
          4 24.75 rlineto
          9 55.5 27.25 4.5 59.5 -1 49.5 0 124.5 -4.5 59.75 -5.25 rrcurveto
          20.25 128 rlineto
          -66 22.25 -92.25 11 -124.25 -2.5 -111 -1.25 -97.5 -23 -21.25 -147.75 rrcurveto
          -10.75 -79.5 rlineto
          -7.62699890137 -54.0859985352 -4.62300109863 -151.664001465 182.5 0 rrcurveto
          87.25 hlineto
          52 0 5.5 -21.5 -6 -36 rrcurveto
          -4.25 -29 rlineto
          -7 -43.75 -35.75 -9.5 -42.5 0 -93 0 -114 6.25 -40 4.5 rrcurveto
          endchar
        </CharString>
        <CharString name="Sacute">
          74 -8 149 139.75 164 144.25 149 60.75 140.5 hstem
          358.75 239.5 vstem
          358.75 798.75 rmoveto
          5 callsubr
          -401 -915.75 rmoveto
          43 callsubr
          endchar
        </CharString>
        <CharString name="Scaron">
          74 -8 149 139.75 164 144.25 149 60.8439941406 137.5 hstem
          277.955993652 314.5 vstem
          277.956054688 936.34375 rmoveto
          41 callsubr
          -309.706054688 -912.84375 rmoveto
          43 callsubr
          endchar
        </CharString>
        <CharString name="Scedilla">
          74 -188.5 143.5 37 149 139.75 164 144.25 149 hstem
          276.5 104.5 vstem
          183.75 -188.5 rmoveto
          6 callsubr
          -127.25 143.5 rmoveto
          43 callsubr
          endchar
        </CharString>
        <CharString name="Scircumflex">
          74 -8 149 139.75 164 144.25 149 60.8439941406 137.5 hstem
          252.555999756 314.5 vstem
          252.555664062 798.84375 rmoveto
          12 callsubr
          -310.805664062 -912.84375 rmoveto
          43 callsubr
          endchar
        </CharString>
        <CharString name="T">
          84 21 -21 21 -21 583 149 hstemhm
          hintmask 10100000
          115.75 583 rmoveto
          -49 callsubr
          endchar
        </CharString>
        <CharString name="Tbar">
          99 21 -21 21 -21 360 69 154 149 hstemhm
          hintmask 10110000
          115.75 583 rmoveto
          191.5 0 -24.25 -154 -90 0 -11 -69 90 0 -56.75 -360 164 0 56.75 360 90 0 11 69 -90 0 24.25 154 197.5 0 24 149 -553 0 rlineto
          endchar
        </CharString>
        <CharString name="Tcaron">
          84 0 21 562 149 65 137.5 hstem
          290.76499939 314.5 vstem
          290.764648438 934.5 rmoveto
          41 callsubr
          -274.514648438 -351.5 rmoveto
          -49 callsubr
          endchar
        </CharString>
        <CharString name="Tcommaaccent">
          84 -182 143.5 38.5 21 562 149 hstem
          217 104.5 vstem
          124.25 -182 rmoveto
          6 callsubr
          -42 696.5 rmoveto
          -49 callsubr
          endchar
        </CharString>
        <CharString name="Thorn">
          34 21 -21 21 -21 150.25 141.5 154.5 141.75 hstemhm
          hintmask 10110000
          40.5 hmoveto
          164 0 27.25 169.5 rlineto
          45.5 -21 37.25 0.25 44.5 1.5 77.25 2.25 102.5 7.25 30.25 205.5 26.5 179.25 -94 43.5 -74.5 0 rrcurveto
          -129.5 0 22 141 -164 0 rlineto
          -38 -243 -39 -243 -38 -243 rrcurveto
          210.5 291.75 rmoveto
          24 154.5 69.5 0 rlineto
          37.5 0 32.5 -2 -10.75 -71 -12 -74.5 -17.25 -7 -54 0 rrcurveto
          endchar
        </CharString>
        <CharString name="U">
          145 -5 149 588 -20 hstem
          103.75 338 rmoveto
          -48 callsubr
          endchar
        </CharString>
        <CharString name="Uacute">
          145 -5 149 568 20 65 140.5 hstem
          408.865005493 239.5 vstem
          408.865234375 797 rmoveto
          5 callsubr
          -412.115234375 -599.5 rmoveto
          -48 callsubr
          endchar
        </CharString>
        <CharString name="Ubreve">
          145 -5 149 568 20 65 60.25 hstem
          362.130996704 61.75 105.75 61.75 vstem
          362.130859375 909.5 rmoveto
          39 callsubr
          -320.130859375 -571.5 rmoveto
          -48 callsubr
          endchar
        </CharString>
        <CharString name="Ucircumflex">
          145 -5 149 568 20 65 137.5 hstem
          301.490005493 314.5 vstem
          301.490234375 797 rmoveto
          12 callsubr
          -323.740234375 -596.5 rmoveto
          -48 callsubr
          endchar
        </CharString>
        <CharString name="Udieresis">
          145 -5 149 568 20 65 123.5 hstem
          279.759994507 123.5 131.5 123.5 vstem
          279.759765625 859.25 rmoveto
          -4 callsubr
          255 hmoveto
          -4 callsubr
          -431.009765625 -521.25 rmoveto
          -48 callsubr
          endchar
        </CharString>
        <CharString name="Ugrave">
          145 -5 149 568 20 65 140.5 hstem
          310.365005493 197.5 vstem
          310.365234375 937.5 rmoveto
          -43 callsubr
          -337.115234375 -599.5 rmoveto
          -48 callsubr
          endchar
        </CharString>
        <CharString name="Uhungarumlaut">
          145 -5 149 568 20 65 140.5 hstem
          327.490234375 797 rmoveto
          5 callsubr
          56.5 -140.5 rmoveto
          5 callsubr
          -494.240234375 -599.5 rmoveto
          -48 callsubr
          endchar
        </CharString>
        <CharString name="Umacron">
          145 -5 149 568 20 65 85.5 hstem
          312.738006592 305.75 vstem
          312.73828125 797 rmoveto
          0 callsubr
          -222.73828125 -544.5 rmoveto
          -48 callsubr
          endchar
        </CharString>
        <CharString name="Uogonek">
          145 -187.5 82.5 86 20 -6 149 568 20 hstemhm
          hintmask 11000000
          311.5 1 rmoveto
          40 callsubr
          hintmask 00110000
          -269.25 337 rmoveto
          -48 callsubr
          endchar
        </CharString>
        <CharString name="Uring">
          145 -5 149 568 20 65 62.25 77.5 61.5 hstem
          372.906005859 203 vstem
          372.90625 897.5 rmoveto
          44 callsubr
          62.75 hmoveto
          45 callsubr
          -331.90625 -559.5 rmoveto
          -48 callsubr
          endchar
        </CharString>
        <CharString name="Utilde">
          145 -5 149 568 20 65.25 97 -62.25 97 hstemhm
          hintmask 00010000
          294.924804688 857.5 rmoveto
          13 callsubr
          hintmask 00100000
          14 callsubr
          hintmask 00010000
          15 callsubr
          hintmask 11000000
          -191.174804688 -519.5 rmoveto
          -48 callsubr
          endchar
        </CharString>
        <CharString name="V">
          183 21 -21 21 -21 732 -20 hstemhm
          hintmask 10100000
          135 732 rmoveto
          103.5 -732 194 0 347.5 732 -181.75 0 -232.5 -523.75 -58.25 523.75 rlineto
          endchar
        </CharString>
        <CharString name="W">
          505 21 -21 21 -21 732 -20 hstemhm
          hintmask 10100000
          135 732 rmoveto
          -47 callsubr
          endchar
        </CharString>
        <CharString name="Wacute">
          505 0 21 691 20 65 140.5 hstem
          579.990005493 239.5 vstem
          579.990234375 797 rmoveto
          5 callsubr
          -551.990234375 -205.5 rmoveto
          -47 callsubr
          endchar
        </CharString>
        <CharString name="Wcircumflex">
          505 0 21 691 20 65 137.5 hstem
          440.365005493 314.5 vstem
          440.365234375 797 rmoveto
          12 callsubr
          -431.365234375 -202.5 rmoveto
          -47 callsubr
          endchar
        </CharString>
        <CharString name="Wdieresis">
          505 0 21 691 20 65 123.5 hstem
          457.634994507 123.5 131.5 123.5 vstem
          457.634765625 859.25 rmoveto
          -4 callsubr
          255 hmoveto
          -4 callsubr
          -577.634765625 -127.25 rmoveto
          -47 callsubr
          endchar
        </CharString>
        <CharString name="Wgrave">
          505 0 21 691 20 65 140.5 hstem
          481.490005493 197.5 vstem
          481.490234375 937.5 rmoveto
          -43 callsubr
          -476.990234375 -205.5 rmoveto
          -47 callsubr
          endchar
        </CharString>
        <CharString name="X">
          151 21 -21 21 -21 732 -20 hstemhm
          hintmask 10100000
          30.5 hmoveto
          183.5 0 154 219.5 84.5 -219.5 180.75 0 -152.5 346 275.25 386 -183.5 0 -160 -228 -88.25 228 -180.75 0 155.5 -353.75 rlineto
          endchar
        </CharString>
        <CharString name="X.salt">
          165 21 -21 21 -21 732 -20 hstemhm
          hintmask 10100000
          13.25 hmoveto
          187.25 0 159.5 259.25 rlineto
          12.75 16.75 22.5 184.5 -8 19 rrcurveto
          -81 252.5 -177 0 94 -267.5 rlineto
          21 -67.5 -4.25 -22 -38.25 -62.5 rrcurveto
          197 -53.25 rmoveto
          83.75 -259.25 177 0 -92.5 297.5 rlineto
          -18.5 62.5 3 22 42.25 67.5 rrcurveto
          181.75 282.5 -179.75 0 -159.75 -252.5 rlineto
          -13.25 -17.5 -31.25 -186 7.25 -16.75 rrcurveto
          endchar
        </CharString>
        <CharString name="Y">
          158 21 -21 21 -21 732 -20 hstemhm
          hintmask 10100000
          135 732 rmoveto
          -46 callsubr
          endchar
        </CharString>
        <CharString name="Yacute">
          158 0 21 691 20 65 140.5 hstem
          405.990005493 239.5 vstem
          405.990234375 797 rmoveto
          5 callsubr
          -377.990234375 -205.5 rmoveto
          -46 callsubr
          endchar
        </CharString>
        <CharString name="Ycircumflex">
          158 0 21 691 20 65 137.5 hstem
          297.865005493 314.5 vstem
          297.865234375 797 rmoveto
          12 callsubr
          -288.865234375 -202.5 rmoveto
          -46 callsubr
          endchar
        </CharString>
        <CharString name="Ydieresis">
          158 0 21 691 20 63.75 123.5 hstem
          265.25 123.5 131.5 123.5 vstem
          265.25 858 rmoveto
          -4 callsubr
          255 hmoveto
          -4 callsubr
          -396 -126 rmoveto
          -46 callsubr
          endchar
        </CharString>
        <CharString name="Ygrave">
          158 0 21 691 20 65 140.5 hstem
          307.490005493 197.5 vstem
          307.490234375 937.5 rmoveto
          -43 callsubr
          -302.990234375 -205.5 rmoveto
          -46 callsubr
          endchar
        </CharString>
        <CharString name="Z">
          47 0 149 434 149 hstem
          23.75 hmoveto
          -45 callsubr
          endchar
        </CharString>
        <CharString name="Zacute">
          47 0 149 434 149 63.75 140.5 hstem
          380 239.5 vstem
          380 795.75 rmoveto
          5 callsubr
          -437.25 -936.25 rmoveto
          -45 callsubr
          endchar
        </CharString>
        <CharString name="Zcaron">
          47 0 149 434 149 65 137.5 hstem
          268.63999939 314.5 vstem
          268.639648438 934.5 rmoveto
          41 callsubr
          -344.389648438 -934.5 rmoveto
          -45 callsubr
          endchar
        </CharString>
        <CharString name="Zdotaccent">
          47 0 149 434 149 65 132 hstem
          344.220993042 140.5 vstem
          344.220703125 820 rmoveto
          42 callsubr
          -333.970703125 -904 rmoveto
          -45 callsubr
          endchar
        </CharString>
        <CharString name="a">
          36 -5.5 134.75 hstem
          73.75 303.5 rmoveto
          -42 callsubr
          160.25 -24.75 rmoveto
          -41 callsubr
          endchar
        </CharString>
        <CharString name="a.salt">
          -7.75 119.25 304.5 121.75 hstem
          73.5 287 rmoveto
          110 callsubr
          161.75 -31.25 rmoveto
          111 callsubr
          endchar
        </CharString>
        <CharString name="a.smcp">
          104 21 -21 21 -21 103.25 126.5 hstemhm
          hintmask 10100000
          23.75 hmoveto
          58 callsubr
          1.25 -340.25 rmoveto
          59 callsubr
          endchar
        </CharString>
        <CharString name="a.superior">
          -108 360.25 102.25 174 94 hstem
          102.5 574 rmoveto
          -27.5 -138.75 50.75 -75 76.5 0 55.25 0 35.5 18.25 17.75 31.75 rrcurveto
          20 -45 95.25 0 46.5 321.25 rlineto
          -35.5 33 -87.25 12 -58 -1 -67.25 -1 -91.5 -6.25 -30.5 -149.25 rrcurveto
          116 -19 rmoveto
          9.25 66.75 26.5 11 22.25 3.75 17 3 24.75 -2.5 21.5 -5.75 rrcurveto
          -19.75 -135 rlineto
          -13 -20 -27.5 -13.75 -33 0 -36.75 0 0.75 37.75 8 54.75 rrcurveto
          endchar
        </CharString>
        <CharString name="aacute">
          36 -5.5 134.75 472.242996216 140.5 hstem
          302.929992676 239.5 vstem
          302.9296875 601.493164062 rmoveto
          5 callsubr
          -336.1796875 -438.493164062 rmoveto
          -42 callsubr
          160.25 -24.75 rmoveto
          -41 callsubr
          endchar
        </CharString>
        <CharString name="aacute.salt">
          -7.75 119.25 304.5 121.75 61.75 140.5 hstem
          309.75 239.5 vstem
          309.75 599.5 rmoveto
          5 callsubr
          -343.25 -453 rmoveto
          110 callsubr
          161.75 -31.25 rmoveto
          111 callsubr
          endchar
        </CharString>
        <CharString name="aacute.smcp">
          104 0 21 82.25 126.5 400.25 140.5 hstem
          362.542007446 239.5 vstem
          362.541992188 630 rmoveto
          5 callsubr
          -445.791992188 -770.5 rmoveto
          58 callsubr
          1.25 -340.25 rmoveto
          59 callsubr
          endchar
        </CharString>
        <CharString name="abreve">
          36 -5.5 134.75 473.742996216 60.25 hstem
          261.195999146 61.75 105.75 61.75 vstem
          261.196289062 715.493164062 rmoveto
          39 callsubr
          -249.196289062 -411.993164062 rmoveto
          -42 callsubr
          160.25 -24.75 rmoveto
          -41 callsubr
          endchar
        </CharString>
        <CharString name="abreve.salt">
          -7.75 119.25 304.5 121.75 60.5 60.25 hstem
          257.386993408 61.75 105.75 61.75 vstem
          257.38671875 710.75 rmoveto
          39 callsubr
          -245.63671875 -423.75 rmoveto
          110 callsubr
          161.75 -31.25 rmoveto
          111 callsubr
          endchar
        </CharString>
        <CharString name="abreve.smcp">
          104 0 21 82.25 126.5 400.25 60.25 hstem
          313.307998657 61.75 105.75 61.75 vstem
          313.307617188 742.5 rmoveto
          39 callsubr
          -351.307617188 -742.5 rmoveto
          58 callsubr
          1.25 -340.25 rmoveto
          59 callsubr
          endchar
        </CharString>
        <CharString name="acircumflex">
          36 -5.5 134.75 472.242996216 137.5 hstem
          193.054992676 314.5 vstem
          193.0546875 601.493164062 rmoveto
          12 callsubr
          -245.3046875 -435.493164062 rmoveto
          -42 callsubr
          160.25 -24.75 rmoveto
          -41 callsubr
          endchar
        </CharString>
        <CharString name="acircumflex.salt">
          -7.75 119.25 304.5 121.75 60.5 137.5 hstem
          199.246002197 314.5 vstem
          199.24609375 598.25 rmoveto
          12 callsubr
          -251.74609375 -448.75 rmoveto
          110 callsubr
          161.75 -31.25 rmoveto
          111 callsubr
          endchar
        </CharString>
        <CharString name="acircumflex.smcp">
          104 0 21 82.25 126.5 400.25 137.5 hstem
          255.167007446 314.5 vstem
          255.166992188 630 rmoveto
          12 callsubr
          -357.416992188 -767.5 rmoveto
          58 callsubr
          1.25 -340.25 rmoveto
          59 callsubr
          endchar
        </CharString>
        <CharString name="acute">
          -265 531 140.5 hstem
          97.25 239.5 vstem
          97.25 531 rmoveto
          5 callsubr
          endchar
        </CharString>
        <CharString name="acute.smcp">
          -265 531 140.5 hstem
          97.25 239.5 vstem
          97.25 531 rmoveto
          5 callsubr
          endchar
        </CharString>
        <CharString name="adieresis">
          36 -5.5 134.75 472.242996216 123.5 hstem
          174.57510376 123.5 131.5 123.5 vstem
          174.575195312 663.743164062 rmoveto
          -4 callsubr
          255 hmoveto
          -4 callsubr
          -355.825195312 -360.243164062 rmoveto
          -42 callsubr
          160.25 -24.75 rmoveto
          -41 callsubr
          endchar
        </CharString>
        <CharString name="adieresis.salt">
          -7.75 119.25 304.5 121.75 60.5 123.5 hstem
          170.266403198 123.5 131.5 123.5 vstem
          170.266601562 660.5 rmoveto
          -4 callsubr
          255 hmoveto
          -4 callsubr
          -351.766601562 -373.5 rmoveto
          110 callsubr
          161.75 -31.25 rmoveto
          111 callsubr
          endchar
        </CharString>
        <CharString name="adieresis.smcp">
          104 0 21 82.25 126.5 400.25 123.5 hstem
          233.43699646 123.5 131.5 123.5 vstem
          233.436523438 692.25 rmoveto
          -4 callsubr
          255 hmoveto
          -4 callsubr
          -464.686523438 -692.25 rmoveto
          58 callsubr
          1.25 -340.25 rmoveto
          59 callsubr
          endchar
        </CharString>
        <CharString name="ae">
          322 -7 134.75 -105.75 116 276.5 126.5 hstemhm
          hintmask 10100000
          56.25 307.25 rmoveto
          -42.5 -207.75 76.5 -106.5 100.75 0 52 0 91.75 13.5 44 55.75 23.75 -41.75 39.5 -23.75 55.75 -3.75 rrcurveto
          hintmask 01100000
          121.25 -9 79 13.5 78.75 24.5 rrcurveto
          20.25 116 rlineto
          -56.25 -10.25 -87.75 -9 -53.5 1.5 -71 0.25 -19.75 14.75 10.5 65.5 37 -15 282 -48.25 10.75 250.5 6 124.25 -120.5 29.5 -110.25 -0.75 -63.75 -0.75 -37.5 -8.5 -36.25 -16.5 -48.25 19.75 -76.75 8 -52.25 -2 rrcurveto
          -98.5 -2.5 -109.25 -7.75 -45.5 -223.5 rrcurveto
          160.75 -30 rmoveto
          16.75 113 35.5 15.5 37.75 8.25 23.5 5 36.25 -3.5 24 -8.5 -11.75 -27.25 -8.75 -33.75 -7 -38 -10.5 -56 -3.5 -49.5 2.75 -41.5 rrcurveto
          hintmask 10100000
          -14.75 -21 -38 -12.5 -39.25 0.25 -59.25 0.25 3.25 62.25 13 87 rrcurveto
          314.75 30 rmoveto
          10 56.5 9.5 49.25 71.25 1.5 44 0.75 22.25 -11.75 -7.5 -41.75 -14.75 -82.5 -134.75 28 0 0 rrcurveto
          endchar
        </CharString>
        <CharString name="ae.smcp">
          295 -2.75 141.5 -124.75 124.5 -9.25 110.75 -25.75 136 -128.75 121 87 140.5 -140.5 124.75 hstemhm
          hintmask 00100000
          15.5 hmoveto
          178.5 0 74.25 129.25 109 0 -3.75 -25.75 rlineto
          hintmask 10000000
          -12.25 -81 62 -26.5 57 1.25 rrcurveto
          hintmask 01000000
          0 0 209.25 -2.75 88.5 19.5 rrcurveto
          20.25 124.5 rlineto
          hintmask 10010000
          -219.25 0.25 rlineto
          -21.25 0 -14.5 2.5 5 29.25 rrcurveto
          6.25 43.75 rlineto
          hintmask 00001000
          218.5 7.25 18.75 121 rlineto
          hintmask 00010100
          -215.5 7.75 7.5 46.5 rlineto
          4.25 23.25 3 9.5 30.25 0 rrcurveto
          222.5 0 rlineto
          hintmask 00000010
          20.25 124.75 rlineto
          hintmask 00100100
          -67.5 12.75 -215 3 0 0 -94 -1 -146.5 7 -68 -121.75 rrcurveto
          56.75 -214.25 rmoveto
          89.75 156 -25.5 -156 rlineto
          endchar
        </CharString>
        <CharString name="afii61289">
          -20 0.75 98.75 hstem
          60 255.5 rmoveto
          11.25 -77.75 rlineto
          12 6 13.25 6.75 11 7 rrcurveto
          -2 -17.5 rlineto
          -19.5 -133.75 74.25 -45.5 96.5 0 rrcurveto
          150.5 0 15.75 98.75 rlineto
          -5.5 -56.75 12.75 0 hvcurveto
          -92.25 15.75 -0.25 41.5 10.25 65.25 rrcurveto
          3.5 29.25 rlineto
          87.25 52.5 147 105.5 20 131 20 126.75 -76 58 -83.75 1.25 -135.5 1.25 -76.5 -60 -17 -108.25 rrcurveto
          -42.25 -260.5 rlineto
          -22 -20 -21.25 -19 -22 -17 rrcurveto
          247.75 170.5 rmoveto
          27.25 149.75 rlineto
          9 57 67.75 -17.75 -11.75 -42.5 -6.25 -41 -32 -50 -54 -55.5 rrcurveto
          endchar
        </CharString>
        <CharString name="afii61352">
          614 21 -21 21 -21 381 114.5 122 116.75 hstemhm
          842.75 122 hintmask 10111000
          48 hmoveto
          163.75 0 92.25 582.75 rlineto
          3 17 25.5 5.75 0.25 -15.75 rrcurveto
          25 -449.5 rlineto
          -3 -193.75 318.5 9 27 172.25 0 0 58.25 367.75 7.25 45.25 11 69.25 34.75 7.5 81 0 60.75 0 68 -1 0 0 43.25 -0.5 5.5 -6 -8.75 -57 -8.5 -55.5 -10.75 -2 -29 0 rrcurveto
          -24 hlineto
          -29 0 -8.5 4.5 13.25 85 rrcurveto
          -122 hlineto
          -28 -176 58.5 -24.25 108.75 -3.75 rrcurveto
          36 hlineto
          122.25 3.75 23.75 47 19.25 121.25 21.25 134.5 -33 46.5 -99.75 0 0 0 -253 0.25 -18.5 0 -93.25 -1.5 -81 -42.75 -19.75 -124.25 -7 -44.25 -57.5 -361 0 0 -2 -15 -23.5 -7.5 -0.5 19.5 rrcurveto
          -25.25 457.25 rlineto
          2.25 172.25 -320.25 2.25 -29.5 -184.5 rrcurveto
          endchar
        </CharString>
        <CharString name="agrave">
          36 -5.5 134.75 472.242996216 140.5 hstem
          203.929595947 197.5 vstem
          203.9296875 741.993164062 rmoveto
          -43 callsubr
          -260.6796875 -438.493164062 rmoveto
          -42 callsubr
          160.25 -24.75 rmoveto
          -41 callsubr
          endchar
        </CharString>
        <CharString name="agrave.salt">
          -7.75 119.25 304.5 121.75 61.75 140.5 hstem
          198 197.5 vstem
          198 740 rmoveto
          -43 callsubr
          -255 -453 rmoveto
          110 callsubr
          161.75 -31.25 rmoveto
          111 callsubr
          endchar
        </CharString>
        <CharString name="agrave.smcp">
          104 0 21 82.25 126.5 400.25 140.5 hstem
          264.042007446 197.5 vstem
          264.041992188 770.5 rmoveto
          -43 callsubr
          -370.791992188 -770.5 rmoveto
          58 callsubr
          1.25 -340.25 rmoveto
          59 callsubr
          endchar
        </CharString>
        <CharString name="amacron">
          36 -5.5 134.75 472.242996216 85.5 hstem
          204.704193115 305.75 vstem
          204.704101562 601.493164062 rmoveto
          0 callsubr
          -144.704101562 -383.493164062 rmoveto
          -42 callsubr
          160.25 -24.75 rmoveto
          -41 callsubr
          endchar
        </CharString>
        <CharString name="amacron.salt">
          -7.75 119.25 304.5 121.75 60.5 85.5 hstem
          211.993896484 305.75 vstem
          211.994140625 598.25 rmoveto
          0 callsubr
          -152.244140625 -396.75 rmoveto
          110 callsubr
          161.75 -31.25 rmoveto
          111 callsubr
          endchar
        </CharString>
        <CharString name="amacron.smcp">
          104 0 21 82.25 126.5 400.25 85.5 hstem
          263.414993286 305.75 vstem
          263.415039062 630 rmoveto
          0 callsubr
          -253.415039062 -715.5 rmoveto
          58 callsubr
          1.25 -340.25 rmoveto
          59 callsubr
          endchar
        </CharString>
        <CharString name="ampersand">
          181 21 -21 21 -21 590 120 hstemhm
          hintmask 10100000
          82 85 rmoveto
          65 -112 148.25 2.75 68.75 54 rrcurveto
          75.5 58.75 50.75 -88.5 181 0 -102.75 179 45.75 43.75 70.25 122.5 -48 71 -136.75 -116.25 -115 201 rlineto
          -40.5 71.5 12.25 17.5 78.5 0 rrcurveto
          150.5 0 19.25 120 rlineto
          -76 18.25 -95.5 19.75 -120 -18.75 -87.5 -13 -81.5 -111.75 62.75 -108.25 rrcurveto
          36.25 -64 -89 -67 rlineto
          -106.75 -79.75 -24 -100.5 58.5 -100 rrcurveto
          133 89.5 rmoveto
          -16.5 25.25 -1 30.75 50.25 39.25 rrcurveto
          57.5 41.25 63 -105.25 -53.25 -44.25 rlineto
          -41.25 -33.75 -37.25 13.25 -21.5 33.5 rrcurveto
          endchar
        </CharString>
        <CharString name="ampersand.salt">
          482 -1.5 131.75 40 115.75 50 116 45 131.5 hstem
          82.25 346.75 rmoveto
          -21.25 -133 85.25 -48.5 116 0 -18 -121.25 102.5 -44.75 100.75 -0.75 rrcurveto
          163 hlineto
          142.25 0 134.75 21.5 30 187.25 rrcurveto
          43 290.5 98 19.25 17.25 110 -95 0 18.5 117.5 -146 0 -36.5 -116 -426 0 rlineto
          -175.25 -1.5 -97 -18 -24.5 -177.75 rrcurveto
          151.5 -92.75 rmoveto
          12.5 77.75 rlineto
          10 60.75 13.25 19.5 96 0.5 rrcurveto
          418.5 0 -41.5 -265 rlineto
          -9.75 -62.5 -30.25 -39.25 -83 0 rrcurveto
          -160.25 hlineto
          -33.5 0.75 -14.25 8.75 4.5 30.5 rrcurveto
          85.75 hlineto
          106 0 85.5 -0.75 20 126.25 19.25 125.25 -86.75 31 -97.75 0 rrcurveto
          -54 hlineto
          -122.25 0 -82.25 -41.5 -19.75 -123 -34.5 0.25 -8 12.5 6.5 38.25 rrcurveto
          200 -52.5 rmoveto
          8 48 15 2 26.75 0 rrcurveto
          42.75 hlineto
          21 0 7.25 -3.25 -3 -20.5 -4 -23.75 -8.5 -2.5 -21 0 rrcurveto
          endchar
        </CharString>
        <CharString name="ampersand.smcp">
          86 21 -21 21 -21 436.5 113 hstemhm
          hintmask 10100000
          65.75 84.25 rmoveto
          56 -122 148.25 27 55.5 42.25 rrcurveto
          41.25 33 40 -64.5 165 0 -91.25 149.5 36 27.5 71.25 95.25 -52.25 70.75 -121.25 -79.75 -73 125.75 rlineto
          -20.25 34.25 21 13.25 34.5 0 rrcurveto
          99.5 0 18 113 rlineto
          -46.5 15.5 -101.5 16.5 -77.5 -11 -70.75 -10 -65.75 -87.5 48.5 -84 rrcurveto
          18.5 -32 -54.75 -41.75 rlineto
          -82.25 -64 -42.5 -67.25 46.25 -99.75 rrcurveto
          131.5 69 rmoveto
          -12 19.5 2 19.25 28.75 20.5 rrcurveto
          44 31.5 39.25 -67.5 -41.75 -32.5 rlineto
          -28.5 -20.75 -18.75 10 -13 20 rrcurveto
          endchar
        </CharString>
        <CharString name="aogonek">
          15 -187.75 82.5 86 20 -6.25 134.75 hstemhm
          hintmask 11000000
          410 0.75 rmoveto
          40 callsubr
          hintmask 00100000
          -403.25 302.75 rmoveto
          -42 callsubr
          160.25 -24.75 rmoveto
          -41 callsubr
          endchar
        </CharString>
        <CharString name="aogonek.salt">
          111 -165 82.5 74.75 119.25 -108 20 392.5 121.75 hstemhm
          hintmask 10100000
          449 23.5 rmoveto
          40 callsubr
          hintmask 01010000
          -437 263.5 rmoveto
          110 callsubr
          161.75 -31.25 rmoveto
          111 callsubr
          endchar
        </CharString>
        <CharString name="aogonek.smcp">
          130 -187.75 82.5 86 20 -0.75 21 82.25 126.5 hstemhm
          hintmask 11000000
          488 0.75 rmoveto
          40 callsubr
          hintmask 00110000
          -525.75 -0.75 rmoveto
          58 callsubr
          1.25 -340.25 rmoveto
          59 callsubr
          endchar
        </CharString>
        <CharString name="approxequal">
          -7 192.5 105 -67 104 40.25 105 -67 104 hstemhm
          hintmask 10000000
          74.75 263.5 rmoveto
          9.75 -71 rlineto
          hintmask 01000000
          52 callsubr
          hintmask 10000000
          60 0 34.25 -38 48.75 0 61.5 0 49.5 38.25 41.5 36 rrcurveto
          -14.25 69.75 rlineto
          -45.5 -24.75 -27.5 -14.25 -47 0 rrcurveto
          hintmask 01000000
          -60 0 -23 37 -60 0 rrcurveto
          -64 0 -54.25 -38.75 -39.75 -32.25 rrcurveto
          28.75 182.25 rmoveto
          hintmask 00100000
          9.75 -71 rlineto
          hintmask 00010000
          52 callsubr
          hintmask 00100000
          60 0 34.25 -38 48.75 0 61.5 0 49.5 38.25 41.5 36 rrcurveto
          -14.25 69.75 rlineto
          -45.5 -24.75 -26.75 -14.25 -47 0 rrcurveto
          hintmask 00010000
          -60 0 -23.75 37 -60 0 -64 0 -54.25 -38.75 -39.75 -32.25 rrcurveto
          endchar
        </CharString>
        <CharString name="aring">
          36 -5.5 134.75 472.242996216 62.25 77.5 61.5 hstem
          267.044006348 203 vstem
          267.043945312 701.993164062 rmoveto
          -4.9970703125 -57 44.2666015625 -43.5 56 0 56 0 46.734375 43.5 4.99609375 57 4.9970703125 57 -42.494140625 43.75 -56 0 -56 0 -48.505859375 -43.75 -4.9970703125 -57 rrcurveto
          62.75 hmoveto
          18 callsubr
          -256.043945312 -398.493164062 rmoveto
          -42 callsubr
          160.25 -24.75 rmoveto
          -41 callsubr
          endchar
        </CharString>
        <CharString name="aring.salt">
          -7.75 119.25 304.5 121.75 60.5 62.25 77.5 61.5 hstem
          275.162002563 203 vstem
          275.162109375 698.75 rmoveto
          44 callsubr
          62.75 hmoveto
          18 callsubr
          -264.412109375 -411.75 rmoveto
          110 callsubr
          161.75 -31.25 rmoveto
          111 callsubr
          endchar
        </CharString>
        <CharString name="aring.smcp">
          104 0 21 82.25 126.5 338.25 62.25 77.5 61.5 hstem
          310.572998047 203 vstem
          310.573242188 668.5 rmoveto
          44 callsubr
          62.75 hmoveto
          45 callsubr
          -349.573242188 -668.5 rmoveto
          58 callsubr
          1.25 -340.25 rmoveto
          59 callsubr
          endchar
        </CharString>
        <CharString name="asciicircum">
          -127 531 137.75 hstem
          117.5 314.5 vstem
          117.5 531 rmoveto
          -44 callsubr
          endchar
        </CharString>
        <CharString name="asciitilde">
          -97 531 98 -63 98 hstemhm
          hintmask 10000000
          126.5 591.5 rmoveto
          -9 callsubr
          hintmask 01000000
          -8 callsubr
          hintmask 10000000
          -7 callsubr
          hintmask 01000000
          -6 callsubr
          endchar
        </CharString>
        <CharString name="asterisk">
          -86 538 -20 43 89 -84 62.5 hstemhm
          hintmask 10100000
          122.5 566 rmoveto
          hintmask 11000000
          143 -5 9.25 89 rlineto
          hintmask 10100000
          -103 callsubr
          20 -211.5 rmoveto
          56 -18.75 73.25 133.75 -83.5 22.25 rlineto
          58.75 -91 rmoveto
          114.75 -64.75 44 50 -98 89.5 rlineto
          -42 182.75 rmoveto
          19.75 -136.75 88 33.25 -45 124 rlineto
          -13 -170.25 rmoveto
          45 -68.75 114.25 97 -27.25 51.5 rlineto
          endchar
        </CharString>
        <CharString name="asterisk.smcp">
          -86 391.75 89 -84 62.5 hstemhm
          hintmask 01000000
          96 396.75 rmoveto
          hintmask 10000000
          142.75 -5 9.5 89 rlineto
          hintmask 01000000
          -103 callsubr
          19.75 -211.5 rmoveto
          56 -18.75 73.5 133.75 -83.5 22.25 rlineto
          58.75 -91 rmoveto
          114.75 -64.75 44 50 -98 89.75 rlineto
          -42 182.5 rmoveto
          19.75 -136.5 88 33 -45 124 rlineto
          -13 -170 rmoveto
          45 -69 114.25 97 -27.5 51.5 rlineto
          endchar
        </CharString>
        <CharString name="at">
          399 -194 126.5 -99.5 99.5 63.5 126.5 297.5 125.5 56 127.5 hstemhm
          hintmask 10111000
          46 46.5 rmoveto
          -86 callsubr
          hintmask 01111000
          -85 callsubr
          hintmask 10111000
          -84 callsubr
          272.5 -252 rmoveto
          -83 callsubr
          endchar
        </CharString>
        <CharString name="at.alt">
          322 -134 126.5 -99.5 99.5 63.5 126.5 297.5 125.5 56 127.5 hstemhm
          hintmask 10111000
          62.5 106.5 rmoveto
          -86 callsubr
          hintmask 01111000
          -85 callsubr
          hintmask 10111000
          -84 callsubr
          272.5 -252 rmoveto
          -83 callsubr
          endchar
        </CharString>
        <CharString name="at.smcp">
          398 -176.25 126.5 -99.5 99.5 63.5 126.5 297.5 125.5 56 120 hstemhm
          hintmask 10111000
          52.25 64.25 rmoveto
          -86 callsubr
          hintmask 01111000
          -85 callsubr
          hintmask 10111000
          -386 hlineto
          -86 0 -10.25 42 9 57 rrcurveto
          72.75 459.5 rlineto
          8 50.5 16.75 60 95 0 rrcurveto
          352 hlineto
          63.25 0 28.25 -15.25 -13.75 -95.25 rrcurveto
          -40.25 -271.5 rlineto
          -12.25 -81 -14.25 -9 -48 0 rrcurveto
          50 348.75 rlineto
          -51 49 -69 18.25 -106.25 0 -96.5 0 -107 -36 -34 -221.75 -28.75 -189.5 59.25 -99.75 121.5 -2.5 73 -1.25 33.25 35 19 25.75 rrcurveto
          23.75 -52.5 106.5 0 rlineto
          144 0 43.5 62.25 13.75 94.25 rrcurveto
          47 316.5 rlineto
          20.75 141.5 -34.75 104 -155.25 0 rrcurveto
          -360 hlineto
          -150.75 0 -96.25 -37.25 -26.25 -163.25 rrcurveto
          272.5 -252 rmoveto
          -83 callsubr
          endchar
        </CharString>
        <CharString name="atilde">
          36 -5.5 134.75 472.492996216 97 -62.25 97 hstemhm
          hintmask 00100000
          192.489257812 661.993164062 rmoveto
          13 callsubr
          hintmask 01000000
          14 callsubr
          hintmask 00100000
          15 callsubr
          hintmask 10000000
          -118.739257812 -358.493164062 rmoveto
          -42 callsubr
          160.25 -24.75 rmoveto
          -41 callsubr
          endchar
        </CharString>
        <CharString name="atilde.salt">
          -7.75 119.25 304.5 121.75 60.75 97 -62.25 97 hstemhm
          hintmask 00010000
          193.430664062 658.75 rmoveto
          13 callsubr
          hintmask 00100000
          14 callsubr
          hintmask 00010000
          15 callsubr
          hintmask 11000000
          -119.930664062 -371.75 rmoveto
          110 callsubr
          161.75 -31.25 rmoveto
          111 callsubr
          endchar
        </CharString>
        <CharString name="atilde.smcp">
          104 0 21 82.25 126.5 400.5 97 -62.25 97 hstemhm
          hintmask 00010000
          249.3515625 690.5 rmoveto
          13 callsubr
          hintmask 00100000
          14 callsubr
          hintmask 00010000
          15 callsubr
          hintmask 11000000
          -225.6015625 -690.5 rmoveto
          58 callsubr
          1.25 -340.25 rmoveto
          59 callsubr
          endchar
        </CharString>
        <CharString name="b">
          49 -6 136.25 286 122.75 hstem
          40.5 hmoveto
          -40 callsubr
          65.25 -626.75 rmoveto
          -39 callsubr
          endchar
        </CharString>
        <CharString name="b.salt">
          47 -9.25 119 304.5 123.5 hstem
          43.75 23.5 rmoveto
          113 callsubr
          58 -672 rmoveto
          114 callsubr
          endchar
        </CharString>
        <CharString name="b.smcp">
          41 0 135 104.25 111.5 86.25 134 hstem
          53.75 hmoveto
          60 callsubr
          95.75 -436 rmoveto
          61 callsubr
          -58.25 215.75 rmoveto
          62 callsubr
          endchar
        </CharString>
        <CharString name="b.superior">
          -98 363.5 104 172 94.25 hstem
          89.75 367.5 rmoveto
          103 0 28.25 39 rlineto
          22.5 -22.25 28.25 -20.75 45 0 91.75 0 46.25 40.75 17.75 121.25 16.5 113.5 -7 94.75 -106.5 0 -32.5 0 -41 -8.5 -33.75 -16.25 rrcurveto
          28.75 181.75 -124.25 0 rlineto
          60.5 -406.25 rmoveto
          22.75 142.5 rlineto
          19.5 8.75 19.25 3.75 27.25 0 26.25 0 11.75 -10.25 -11 -77.5 -9.25 -66 -18.75 -18.25 -26.5 0 -30.5 0 -17.25 6 -13.5 11 rrcurveto
          endchar
        </CharString>
        <CharString name="backslash">
          -38 134.25 312.75 vstem
          134.25 770 rmoveto
          148 -842 164.75 0 -148 842 rlineto
          endchar
        </CharString>
        <CharString name="bar">
          -260 45.5 267 vstem
          45.5 -72 rmoveto
          134 0 133 842 -134 0 rlineto
          endchar
        </CharString>
        <CharString name="braceleft">
          -188 55.75 231.25 rmoveto
          40 3 24 -22.5 -5.5 -36 rrcurveto
          -36.25 -226 rlineto
          -19.25 -118.5 47.75 -86.25 167.75 0 rrcurveto
          20.25 126.5 rlineto
          -52.5 -1 -7.5 32.75 12 76.5 rrcurveto
          34 211.25 rlineto
          8.5 53.25 -33.25 33.75 -59 11.5 61.75 6 43.5 27 11 67.5 rrcurveto
          25 161 rlineto
          14 90 19 22.25 48.5 -0.25 rrcurveto
          21 134 rlineto
          -155.5 0 -78.5 -44.25 -19 -119.25 rrcurveto
          -37 -232.25 rlineto
          -6.5 -41.25 -35.75 -6.75 -33.25 -2.5 rrcurveto
          endchar
        </CharString>
        <CharString name="braceright">
          -188 -19.75 -255 rmoveto
          164.5 0 66.25 39.75 22 128.25 rrcurveto
          42.5 254 rlineto
          6.5 38.25 29.75 14.25 38.5 -2 rrcurveto
          19.25 119.5 rlineto
          -34.75 1.5 -29.25 15 4.75 39 rrcurveto
          24.25 190 rlineto
          18.5 115.5 -47 99 -158.75 0 rrcurveto
          -21.75 -134 rlineto
          49.5 1 10.5 -23.75 -15 -96 rrcurveto
          -25.75 -164 rlineto
          -10.75 -66 34.5 -29.25 59.75 -5.5 -62.5 -12 -43.25 -31.5 -8.75 -54.75 rrcurveto
          -33.5 -208.25 rlineto
          -11 -70.5 -17.25 -31.25 -51.5 0.25 rrcurveto
          endchar
        </CharString>
        <CharString name="bracketleft">
          -169 -255 134 784 134 hstem
          57 -23.75 rmoveto
          -15.75 -93.75 12.25 -137.5 147.75 0 rrcurveto
          92 0 21 134 -46.25 0 rlineto
          -41 0 -16.75 17 10.75 66 rrcurveto
          100.75 622.5 rlineto
          10.25 61.5 26 17 38 0 rrcurveto
          42.5 0 21 134 -80 0 rlineto
          -142.75 0 -53.75 -49.75 -20 -120.75 rrcurveto
          endchar
        </CharString>
        <CharString name="bracketright">
          -174 -255 134 784 134 hstem
          -19.75 -255 rmoveto
          95 hlineto
          157 0 40.25 76.75 13.25 94.5 rrcurveto
          96.25 662.25 rlineto
          15.75 113.25 -32.5 105.25 -135 0 rrcurveto
          -83 0 -21.75 -134 42.5 0 rlineto
          41 0 19 -17 -10.75 -66 rrcurveto
          -98.5 -622.5 rlineto
          -10.25 -61.5 -26.75 -17 -38 0 rrcurveto
          -42.5 hlineto
          endchar
        </CharString>
        <CharString name="breve">
          -261 531.5 60.25 hstem
          55.25 61.75 105.75 61.75 vstem
          55.25 644 rmoveto
          39 callsubr
          endchar
        </CharString>
        <CharString name="brokenbar">
          -259 45.5 267 vstem
          45.5 -72 rmoveto
          134 0 52 328 -134 0 rlineto
          27 173 rmoveto
          134 0 54 341 -134 0 rlineto
          endchar
        </CharString>
        <CharString name="bullet">
          -201 282.75 199.5 hstem
          106.75 214.75 vstem
          106.75 314.75 rmoveto
          19 callsubr
          endchar
        </CharString>
        <CharString name="bullet.smcp">
          -201 223.5 199.5 hstem
          97.75 214.75 vstem
          97.75 255.5 rmoveto
          19 callsubr
          endchar
        </CharString>
        <CharString name="c">
          -18 -5.25 126.25 292.75 126.5 hstem
          74.75 288.5 rmoveto
          -38 callsubr
          endchar
        </CharString>
        <CharString name="c.smcp">
          4 -4 126.5 329 126.5 hstem
          84 322 rmoveto
          63 callsubr
          endchar
        </CharString>
        <CharString name="c.superior">
          -157 364 96.5 168 96.5 hstem
          110.75 559.5 rmoveto
          -22 -136.5 48.75 -58.25 72.75 -0.75 85.25 -0.75 42.75 5 55 23 rrcurveto
          12.5 74 rlineto
          0 -56 -4.75 -63 vhcurveto
          -49.5 0 -14.5 6.75 12.75 76 14.5 84 18.5 1.25 45 0 rrcurveto
          61 51 -4.25 0 hvcurveto
          12.25 75.25 rlineto
          -54 19.75 -81.5 5.75 -37.5 0 -73 0 -57.75 -20.25 -23.25 -145.25 rrcurveto
          endchar
        </CharString>
        <CharString name="c_h">
          558 -7 126.5 -98.5 -21 21 -21 410 126.5 246 -20 hstemhm
          hintmask 10011000
          68.25 288.5 rmoveto
          -37 -233 110 -62.5 99 0 184.5 1.75 284 -53.75 45.75 289.75 rrcurveto
          22.25 140.75 rlineto
          28.5 27.75 32 14.25 50 0 28.25 0 17 -15 -7.75 -48 rrcurveto
          hintmask 01011000
          -55.25 -350.5 164 0 54.5 347.5 rlineto
          17 106 -12.75 86.5 -130 0 -81.5 0 -49.5 -34 -38.75 -29.5 rrcurveto
          48.5 306 -163.25 0 -85 -537.5 rlineto
          hintmask 10011000
          -20 -123.75 -74 -1.75 -189 0 -72 0 -25.75 18 19.5 124.5 23.25 146.25 27.25 1.75 66 0 rrcurveto
          89 78.5 -6.5 0 hvcurveto
          15.75 99 rlineto
          -89 34 -104 0 -52 0 rrcurveto
          -102 0 -82 -34 -34 -214 rrcurveto
          endchar
        </CharString>
        <CharString name="c_k">
          512 -1.75 122.75 289 126.5 245.5 -20 hstem
          69 288.5 rmoveto
          -34 -214.25 73 -76 201 0 68 0 78.25 21.5 77.5 30.5 rrcurveto
          -8.25 -50.25 164 0 20 127 rlineto
          20.25 10.5 38 24.25 19.5 12 rrcurveto
          92.75 -173.75 180 0 -143.5 270.5 rlineto
          81.75 70.25 75.75 99 18 91.25 rrcurveto
          -173 hlineto
          -6.75 -71.75 -79 -88.25 -96.25 -70.75 rrcurveto
          76.5 481.75 -164 0 -93 -587.25 rlineto
          -90.75 -45 -88.5 -29.5 -58.5 0.75 -65.25 1.25 -40 11.5 20.25 129.75 23.25 144.75 26.5 1.75 66 0 rrcurveto
          89 78.75 -6.5 0 hvcurveto
          15.5 99 rlineto
          -75.5 26.5 -117.25 7.5 -52 0 -102 0 -82 -34 -34 -214 rrcurveto
          endchar
        </CharString>
        <CharString name="c_t">
          345 -6.75 126.25 -120.75 98.75 314.25 119.75 hstemhm
          hintmask 10100000
          67.25 284.75 rmoveto
          -36.5 -225 71 -66.25 102 -0.25 118.25 -0.25 60.5 6.75 82.75 29 rrcurveto
          15.75 99.5 rlineto
          0 -85.75 -8.75 -92 vhcurveto
          -70.25 0 -24.5 5.5 21.75 133.25 27 162.5 38.75 -9.75 59.75 0 rrcurveto
          281.5 0.75 -35.25 -222.5 rlineto
          hintmask 01100000
          -22 -140.75 60.75 -49.75 83.75 0 rrcurveto
          109.5 0 15.75 98.75 rlineto
          -5.5 -47.75 20.25 0 hvcurveto
          -26 11.5 -12.25 12 12.25 78 rrcurveto
          30.75 192.5 105.5 0 18.75 119.5 -105.5 0 23.25 148 -138.5 0 -48.75 -147.75 -363.25 0.75 rlineto
          -100 0 -86.75 -10.25 -38.75 -237.25 rrcurveto
          endchar
        </CharString>
        <CharString name="cacute">
          -18 -5.25 126.25 292.75 126.5 58.5 140.5 hstem
          306.25 239.5 vstem
          306.25 598.75 rmoveto
          5 callsubr
          -338 -450.75 rmoveto
          -38 callsubr
          endchar
        </CharString>
        <CharString name="cacute.smcp">
          4 -4 126.5 329 126.5 65 140.5 hstem
          315.542007446 239.5 vstem
          315.541992188 643 rmoveto
          5 callsubr
          -338.541992188 -461.5 rmoveto
          63 callsubr
          endchar
        </CharString>
        <CharString name="caron">
          -134 531 137.5 hstem
          16.25 314.5 vstem
          16.25 668.5 rmoveto
          41 callsubr
          endchar
        </CharString>
        <CharString name="caron.smcp">
          -131 531 145 hstem
          140.25 310 vstem
          140.25 676 rmoveto
          71.25 -145 116 0 122.75 145 -103.25 0 -68.5 -61 -40 61 rlineto
          endchar
        </CharString>
        <CharString name="ccaron">
          -18 -5.25 126.25 292.75 126.5 58.5 137.5 hstem
          225.317001343 314.5 vstem
          225.317382812 736.25 rmoveto
          41 callsubr
          -250.067382812 -447.75 rmoveto
          -38 callsubr
          endchar
        </CharString>
        <CharString name="ccaron.smcp">
          4 -4 126.5 329 126.5 63.75 137.5 hstem
          237 314.5 vstem
          237 779.25 rmoveto
          41 callsubr
          -252.5 -457.25 rmoveto
          63 callsubr
          endchar
        </CharString>
        <CharString name="ccedilla">
          -17 -5.25 126.25 289 126.5 hstem
          214.75 104.5 vstem
          75.25 288.5 rmoveto
          -33.5 -206.25 68 -87.25 99.75 -0.25 83 0.5 94.25 -10.5 83.5 45.5 rrcurveto
          15.75 99.5 rlineto
          0 -85.75 -8.75 -92 vhcurveto
          -70.25 0 -20.75 13.75 21 128.75 24.75 146 26 0.5 65.75 0 rrcurveto
          89 78.75 -6.5 0 hvcurveto
          15.5 99 rlineto
          -89 34 -104.5 0 -52 0 -100 0 -81.5 -28.75 -35.75 -219.25 rrcurveto
          46.75 -469.75 rmoveto
          58.5 hlineto
          89 0 33.75 41.5 16 102 0 0 -97.5 -0.25 -7 0.25 -6 -38 -2.5 -10 -30 -12 rrcurveto
          -43.75 -15 rlineto
          endchar
        </CharString>
        <CharString name="ccedilla.smcp">
          4 -182.5 143.5 35 126.5 329 126.5 hstem
          256.5 104.5 vstem
          163.75 -182.5 rmoveto
          6 callsubr
          -91 436 rmoveto
          63 callsubr
          endchar
        </CharString>
        <CharString name="ccircumflex">
          -18 -5.25 126.25 292.75 126.5 57.75 137.5 hstem
          192.417007446 314.5 vstem
          192.416992188 598 rmoveto
          12 callsubr
          -243.666992188 -447 rmoveto
          -38 callsubr
          endchar
        </CharString>
        <CharString name="ccircumflex.smcp">
          4 -4 126.5 329 126.5 65 137.5 hstem
          219.167007446 314.5 vstem
          219.166992188 643 rmoveto
          12 callsubr
          -261.166992188 -458.5 rmoveto
          63 callsubr
          endchar
        </CharString>
        <CharString name="cdotaccent">
          -18 -5.25 126.25 292.75 126.5 58.5 132 hstem
          288.897003174 140.5 vstem
          288.897460938 621.75 rmoveto
          42 callsubr
          -227.647460938 -417.25 rmoveto
          -38 callsubr
          endchar
        </CharString>
        <CharString name="cdotaccent.smcp">
          4 -4 126.5 329 126.5 65 132 hstem
          310.897003174 140.5 vstem
          310.897460938 666 rmoveto
          42 callsubr
          -240.397460938 -428 rmoveto
          63 callsubr
          endchar
        </CharString>
        <CharString name="cedilla">
          -267 -180.5 143.5 hstem
          98.25 104.5 vstem
          5.5 -180.5 rmoveto
          6 callsubr
          endchar
        </CharString>
        <CharString name="cent">
          -24 -5.75 126.75 hstem
          68 288.5 rmoveto
          -33 -205 66 -87 99.75 -1.75 rrcurveto
          -14.5 -90 96 0 13.75 89.5 rlineto
          56.25 0.75 57.25 7 53.5 28.25 rrcurveto
          15.75 99.5 rlineto
          0 -85.75 -8.75 -92 vhcurveto
          -70.25 0 -20.75 13.75 21 128.75 24.75 146 26 0.5 65.75 0 rrcurveto
          89 78.75 -6.5 0 hvcurveto
          15.75 99 rlineto
          -47.5 17.75 -52.75 9 -46 4.5 rrcurveto
          16.25 100.25 -96 0 -16 -97.5 rlineto
          -103.75 1.25 -81.25 -28.5 -36 -220.75 rrcurveto
          endchar
        </CharString>
        <CharString name="circumflex">
          -197 531 137.5 hstem
          44.25 314.5 vstem
          44.25 531 rmoveto
          12 callsubr
          endchar
        </CharString>
        <CharString name="circumflex.smcp">
          -127 531 137.5 hstem
          117.5 314.5 vstem
          117.5 531 rmoveto
          105 0 65.25 58.25 43.75 -58.25 100.5 0 -72.5 137.5 -116 0 rlineto
          endchar
        </CharString>
        <CharString name="colon">
          -248 0 150 231.25 150 hstem
          60.25 223.25 vstem
          60.25 23 rmoveto
          -101 callsubr
          44 279.25 rmoveto
          -2 -14 8.75 -9 14 0 rrcurveto
          98 hlineto
          14 0 11.25 5 3 18 rrcurveto
          15.75 102 rlineto
          3 16 -5.25 9 -18 0 rrcurveto
          -98 hlineto
          -16 0 -10 -10 -2 -15 rrcurveto
          endchar
        </CharString>
        <CharString name="comma">
          -251 -88 54.5 hstem
          48.25 173.5 vstem
          48.25 -88 rmoveto
          0 0 133.25 -39.75 18.75 116.75 rrcurveto
          21.5 135 rlineto
          2 15 -3.75 12 -18 0 rrcurveto
          -96 hlineto
          -16 0 -10.25 -9 -3 -18 rrcurveto
          -15.5 -99 rlineto
          -3 -17 10 -8 14 0 rrcurveto
          11 0 -1.75 -10 rlineto
          -2 -10.25 -2.5 -14.25 -30 1 rrcurveto
          endchar
        </CharString>
        <CharString name="copyright">
          286 0 94 53 94 248 94 55 94 hstem
          93.5 383 rmoveto
          -3 callsubr
          101.5 -15 rmoveto
          -2 callsubr
          82 9.75 rmoveto
          -27.25 -171.25 64 -59.5 79 0 67 0 64 2.5 58.75 25.5 rrcurveto
          12.5 82 rlineto
          -39.75 -7.25 -56.5 -8.75 -62.25 0 -53.5 0 -18.5 37 13 84 15.5 97.5 23.5 29.5 54 0 33 0 58.5 -3 62 -9 rrcurveto
          12.5 82 rlineto
          -54.75 19 -85.75 5 -41 0 -87.75 0 -63.5 -40.25 -26.75 -165 rrcurveto
          endchar
        </CharString>
        <CharString name="currency">
          -65 149.25 86.5 147.75 86 hstem
          65.5 180.75 rmoveto
          46.5 -54 53.5 48 rlineto
          22 -15.75 28.5 -9.75 30.75 0 26 0 26.75 5.5 23 11.75 rrcurveto
          46 -52 58.5 55 -40.25 45.5 rlineto
          22.75 26.25 15 32.25 5.75 35 4.25 28.75 -3.75 28.5 -9.75 23.25 rrcurveto
          58 50.75 -48.25 51.5 -53.75 -47.75 rlineto
          -22.5 16.5 -29.5 9.5 -32 0 -32.5 0 -32.25 -10.25 -28.25 -17.5 rrcurveto
          -40.25 45.75 -59.5 -53.25 42.25 -47 rlineto
          -16 -22.25 -10.75 -26.5 -4.25 -28 -4.5 -30.25 5.25 -26 9.75 -24.25 rrcurveto
          76 80 rmoveto
          6.75 40.25 34.25 33 43.25 0.25 42.5 0.25 27 -35 -7.5 -39.75 -7.5 -40.5 -33 -33 -44.75 0.25 -40.25 0.25 -27.5 33.25 6.75 40.75 rrcurveto
          endchar
        </CharString>
        <CharString name="d">
          41 -6 136.25 286 122.75 hstem
          74 293 rmoveto
          -37 callsubr
          165.5 -22.5 rmoveto
          -36 callsubr
          endchar
        </CharString>
        <CharString name="d.salt">
          46 -9.25 119 304.5 123.5 244.75 -20 hstem
          73.75 282.25 rmoveto
          115 callsubr
          163.25 -27.75 rmoveto
          116 callsubr
          endchar
        </CharString>
        <CharString name="d.smcp">
          74 0 141.5 289 141.5 hstem
          53.75 hmoveto
          64 callsubr
          95.5 -430.5 rmoveto
          65 callsubr
          endchar
        </CharString>
        <CharString name="d.superior">
          -98 363.5 104 172.25 94.25 hstem
          111.5 567 rmoveto
          -18.5 -105.75 25.25 -97.75 93 0 45 0 31.25 19 31 24 rrcurveto
          15.5 -39 103 0 83.25 523.75 -123.75 0 -28.75 -182 rlineto
          -29.25 16.25 -38.75 8.5 -32.5 0 -106.5 0 -32.5 -67 -16.75 -100 rrcurveto
          125.75 -15 rmoveto
          11.75 77 16.75 10.75 26.25 0 27.25 0 16 -3 18.25 -8.25 rrcurveto
          -22.5 -141.25 rlineto
          -17.75 -13.75 -18.5 -6 -30.5 0 -26.5 0 -10.75 14.75 10.25 69.75 rrcurveto
          endchar
        </CharString>
        <CharString name="dagger">
          31 440.25 126.5 hstem
          101 440.25 rmoveto
          131 -13.75 -68.75 -498.5 145.5 0 92.25 498.5 134 13.75 20.25 126.5 -130 13.75 18.5 189.5 -145.5 0 -42 -189.5 -135 -13.75 rlineto
          endchar
        </CharString>
        <CharString name="daggerdbl">
          1 136.5 126.5 177.25 126.5 hstem
          82.75 136.5 rmoveto
          137 -16.75 -26.25 -191.75 145.5 0 35 193.25 142.75 15.25 20.25 126.5 -133 16 26.5 147.5 134.75 13.75 19.5 126.5 -129.25 13.75 17.5 189.5 -145.25 0 -41.25 -189.5 -135.75 -13.75 rlineto
          -19.5 -126.5 130.25 -13.75 -20.25 -146.75 -138.25 -16.75 rlineto
          endchar
        </CharString>
        <CharString name="dcaron">
          238 -6 136.25 286 122.75 hstem
          678.5 83 vstem
          74 278.75 rmoveto
          -29 -181.25 38.25 -103.5 124.25 0 61.25 0 51.5 28 40.25 29.5 rrcurveto
          19 -51.5 137.75 0 124.25 785 -163.5 0 -44.5 -278.5 rlineto
          -39.75 20.75 -58 11.75 -45 0 -145.75 0 -42 -77 -29 -183.25 rrcurveto
          165.5 -8.25 rmoveto
          46 callsubr
          439 310 rmoveto
          83 0 31.25 134 10.25 67 -104.25 0 -10 -67 rlineto
          endchar
        </CharString>
        <CharString name="dcaron.salt">
          164 -9.25 119 304.5 123.5 244.75 -20 hstem
          665.75 83.25 vstem
          73.75 282.25 rmoveto
          -29.75 -194.75 63.5 -96.75 121.75 0 96.25 0 134 1.75 58.5 31 rrcurveto
          120 759 -164 0 -44.5 -283.75 rlineto
          -27.75 28.25 -55.75 10.75 -37.5 0 -153 0 -54.25 -71 -27.5 -184.5 rrcurveto
          163.25 -27.75 rmoveto
          17 105.75 11 54 67.5 0 33.5 0 19.5 -4 27.5 -16.5 rrcurveto
          -45.75 -284 -82 0 rlineto
          -70.25 0 12 84 10 60.75 rrcurveto
          428.75 326.5 rmoveto
          83.25 0 31.75 134 10.25 67 -104.25 0 -10.25 -67 rlineto
          endchar
        </CharString>
        <CharString name="dcaron.smcp">
          76 0 141.5 289 141.5 60 137.5 hstem
          264.75 314.5 vstem
          264.75 769.5 rmoveto
          41 callsubr
          -288.5 -769.5 rmoveto
          64 callsubr
          95.5 -430.5 rmoveto
          65 callsubr
          endchar
        </CharString>
        <CharString name="dcroat">
          46 -6 136.25 286 122.75 62 69 hstem
          74 280.25 rmoveto
          -29 -181.25 38.25 -105 124.25 0 61.25 0 51.5 28 40.25 29.5 rrcurveto
          19 -51.5 137.75 0 95 601 62.25 0 11.25 69 -62.25 0 18 115 -163.5 0 -18.25 -115 -101 0 -11.25 -69 101 0 -15 -94.5 rlineto
          -39.75 20.75 -58 11.75 -45 0 -145.75 0 -42 -75.5 -29 -183.25 rrcurveto
          165.5 -9.75 rmoveto
          46 callsubr
          endchar
        </CharString>
        <CharString name="dcroat.salt">
          115 -9.25 119 304.5 123.5 70.75 69 105 -20 hstem
          49 282.25 rmoveto
          -29.25 -191.5 62.25 -99.75 122.25 -0.25 96.25 -0.25 134.25 2 58.5 31 rrcurveto
          92.25 585 57 0 11 69 -57 0 16.5 105 -164 0 -16.5 -105 -91 0 -11 -69 91 0 -17 -109.75 rlineto
          -27.75 28.25 -55.5 10 -45 0.75 -142.5 1.5 -57 -70.5 -27.75 -186.5 rrcurveto
          163.25 -27.75 rmoveto
          17 105.75 11 54 67.5 0 33.5 0 19.25 -4 27.5 -16.5 rrcurveto
          -45.5 -284 -82 0 rlineto
          -69 0 10.75 84 10 60.75 rrcurveto
          endchar
        </CharString>
        <CharString name="dcroat.smcp">
          96 0 141.5 114 69 106 141.5 hstem
          53.5 255.5 rmoveto
          101 callsubr
          196 -183 rmoveto
          102 callsubr
          endchar
        </CharString>
        <CharString name="degree">
          -241 533.75 58.5 80.5 59.25 hstem
          131.5 203 vstem
          131.5 632 rmoveto
          -3.75 -57 43.75 -41.25 56 0 56 0 47.25 41.25 3.75 57 3.75 57 -42.75 43 -56 0 -56 0 -48.25 -43 -3.75 -57 rrcurveto
          61.25 hmoveto
          1.5 22.5 19.75 18.25 22.5 0 22.5 0 15.75 -18.25 -1.5 -22.5 -1.5 -22.5 -18 -17.25 -22.5 0 -22.5 0 -17.5 17.25 1.5 22.5 rrcurveto
          endchar
        </CharString>
        <CharString name="degree.smcp">
          -241 367.75 61 77.25 61 hstem
          105.75 202.75 vstem
          105.75 468.5 rmoveto
          -6 -57 41 -43.75 56 0 56 0 49.75 40.75 6 57 6 57 -40 44.5 -56 0 -56 0 -50.75 -41.5 -6 -57 rrcurveto
          62.75 -1.5 rmoveto
          100 callsubr
          endchar
        </CharString>
        <CharString name="dieresis">
          -64 519.75 123.5 hstem
          125.5 123.5 131.5 123.5 vstem
          125.5 582 rmoveto
          -4 callsubr
          255 hmoveto
          -4 callsubr
          endchar
        </CharString>
        <CharString name="dieresis.smcp">
          -64 519.5 123.75 hstem
          125.5 123.5 131.5 123.5 vstem
          125.5 581.75 rmoveto
          99 callsubr
          255 hmoveto
          99 callsubr
          endchar
        </CharString>
        <CharString name="divide">
          -18 125.25 119.25 41.5 134 37.25 119.25 hstem
          78.25 286 rmoveto
          424.25 0 21 134 -424.25 0 rlineto
          100 -271.75 rmoveto
          -2 -14 9 -9 14 0 rrcurveto
          82.25 hlineto
          14 0 10.75 5.75 2.75 17.25 rrcurveto
          12 71.25 rlineto
          2.75 15.5 -6 9.5 -17.25 0 rrcurveto
          -82.25 hlineto
          -16 0 -10 -10 -2 -15 rrcurveto
          41.25 260.75 rmoveto
          -2 -14 8 -9 14 0 rrcurveto
          82.25 hlineto
          14 0 11.75 5.75 2.75 17.25 rrcurveto
          11 71.25 rlineto
          2.75 15.5 -6 9.5 -17.25 0 rrcurveto
          -82.25 hlineto
          -16 0 -10 -10 -2 -15 rrcurveto
          endchar
        </CharString>
        <CharString name="dollar">
          60 -6.75 147.25 140.25 164 hstem
          63.5 23.75 rmoveto
          61.75 -20.25 28 -7.75 81.5 -2.5 rrcurveto
          -13.25 -83.25 95.5 0 13 82 rlineto
          99.25 0 107 20 27.25 170.25 rrcurveto
          6.5 41.75 rlineto
          13 80.5 -11.75 140.25 -148.5 0 rrcurveto
          -80.5 hlineto
          -61 0 -7 20.5 6.25 40 rrcurveto
          4 24.75 rlineto
          8.75 53 29.25 7 58 -0.75 49.5 0 107 -4.5 59.75 -5.25 rrcurveto
          20.25 127.75 rlineto
          -47.25 15.25 -51.5 11.25 -70.25 3.5 rrcurveto
          13.25 86.75 -95.5 0 -13.25 -86 rlineto
          -111 -3.5 -97 -26.75 -21.75 -143.25 rrcurveto
          -8.5 -62.25 rlineto
          -8.5 -55 -9.5 -166.5 177.75 0 rrcurveto
          77.5 hlineto
          54.5 0 3 -21.5 -6 -36 rrcurveto
          -4.25 -29 rlineto
          -6.75 -41.75 -35.75 -12 -42.5 0 -93 0 -97.5 6.75 -39.25 3 rrcurveto
          endchar
        </CharString>
        <CharString name="dollar.smcp">
          18 -9.25 134.25 85.75 140.75 hstem
          56.25 14.75 rmoveto
          18.25 -10.25 64.5 -7 58 -3.5 rrcurveto
          -12.25 -78.75 96.75 0 12.25 75.5 rlineto
          120.5 0 77.5 -4 23.5 147.75 rrcurveto
          5.25 32 rlineto
          13.25 84.5 -17 100.5 -120.75 0 rrcurveto
          -103.25 hlineto
          -28 0 -10.75 9.5 3.75 24 rrcurveto
          2.75 16.75 rlineto
          4.25 27.5 19.25 10.75 25.25 0 rrcurveto
          85.5 140.25 -6.75 0 hvcurveto
          18 117 rlineto
          -44.75 8.25 -67.5 7.5 -55 4 rrcurveto
          12.5 82 -97 0 -12.25 -78.5 rlineto
          -117.75 -1.75 -58.25 -48 -15.75 -99.5 rrcurveto
          -5.75 -35.5 rlineto
          -13.5 -86.5 22.5 -91.5 126.5 0 rrcurveto
          94 hlineto
          25 0 13.75 -7.25 -4.25 -25.75 rrcurveto
          -3.75 -20 rlineto
          -2.75 -16.75 -17.25 -16 -26.5 0 -95.5 0 -128 5 -7.5 0 rrcurveto
          endchar
        </CharString>
        <CharString name="dotaccent">
          -361 518 132 hstem
          97.25 140.5 vstem
          97.25 541 rmoveto
          42 callsubr
          endchar
        </CharString>
        <CharString name="dotlessi">
          -271 21 -21 21 -21 531 -20 hstemhm
          30 248 hintmask 10110000
          30 hmoveto
          -29 callsubr
          endchar
        </CharString>
        <CharString name="e">
          20 22 116 276.5 126.5 hstem
          75.5 308 rmoveto
          -35 callsubr
          168.5 -0.75 rmoveto
          -34 callsubr
          endchar
        </CharString>
        <CharString name="e.smcp">
          2 -2 141.5 -124.5 124.5 76.75 136 -129 121 86.25 140.5 -140.5 124.75 hstemhm
          hintmask 10000000
          71 113 rmoveto
          66 callsubr
          hintmask 01000000
          67 callsubr
          hintmask 10100000
          68 callsubr
          hintmask 00010000
          69 callsubr
          hintmask 00101000
          70 callsubr
          hintmask 00000100
          71 callsubr
          hintmask 10001000
          72 callsubr
          endchar
        </CharString>
        <CharString name="e.superior">
          -124 629.75 97.75 hstem
          113 567.5 rmoveto
          -23.25 -130 29.75 -68.5 88.5 -8.25 84.75 -8.25 61.25 11.5 54.75 18.25 rrcurveto
          15 85.5 rlineto
          -38 -5.75 -64.75 -5.25 -36 1 -43.5 0.25 -22 7.5 6.25 37.75 24.25 -10.75 197.75 -28.75 10.75 158 5.75 83.25 -84.75 23.25 -78 -0.75 -135.75 -0.75 -33 -48.75 -19.75 -110.5 rrcurveto
          119.25 0.5 rmoveto
          6.25 37 6.5 24.75 51 0 27.25 0 22.25 -4.5 -5 -27 -11.5 -56.5 -96.75 26.25 0 0 rrcurveto
          endchar
        </CharString>
        <CharString name="eacute">
          20 22 116 276.5 126.5 60 140.5 hstem
          309.292007446 239.5 vstem
          309.291992188 601 rmoveto
          5 callsubr
          -340.791992188 -433.5 rmoveto
          -35 callsubr
          168.5 -0.75 rmoveto
          -34 callsubr
          endchar
        </CharString>
        <CharString name="eacute.smcp">
          2 -2 141.5 -124.5 124.5 76.75 136 -129 121 86.25 124.75 -124.75 140.5 60 140.5 hstemhm
          324.75 239.5 hintmask 00000011
          324.75 631 rmoveto
          5 callsubr
          hintmask 10000000
          -360.75 -658.5 rmoveto
          66 callsubr
          hintmask 01000000
          67 callsubr
          hintmask 10100000
          68 callsubr
          hintmask 00010000
          69 callsubr
          hintmask 00100100
          70 callsubr
          hintmask 00001000
          71 callsubr
          hintmask 10000100
          72 callsubr
          endchar
        </CharString>
        <CharString name="ecaron">
          20 22 116 276.5 126.5 60 137.5 hstem
          226.067001343 314.5 vstem
          226.067382812 738.5 rmoveto
          41 callsubr
          -250.067382812 -430.5 rmoveto
          -35 callsubr
          168.5 -0.75 rmoveto
          -34 callsubr
          endchar
        </CharString>
        <CharString name="ecaron.smcp">
          2 -2 141.5 -124.5 124.5 76.75 136 -129 121 86.25 124.75 -124.75 140.5 60 137.5 hstemhm
          237.317001343 314.5 hintmask 00000011
          237.317382812 768.5 rmoveto
          41 callsubr
          hintmask 10000000
          -265.817382812 -655.5 rmoveto
          66 callsubr
          hintmask 01000000
          67 callsubr
          hintmask 10100000
          68 callsubr
          hintmask 00010000
          69 callsubr
          hintmask 00100100
          70 callsubr
          hintmask 00001000
          71 callsubr
          hintmask 10000100
          72 callsubr
          endchar
        </CharString>
        <CharString name="ecircumflex">
          20 22 116 276.5 126.5 60 137.5 hstem
          201.917007446 314.5 vstem
          201.916992188 601 rmoveto
          12 callsubr
          -252.416992188 -430.5 rmoveto
          -35 callsubr
          168.5 -0.75 rmoveto
          -34 callsubr
          endchar
        </CharString>
        <CharString name="ecircumflex.smcp">
          2 -2 141.5 -124.5 124.5 76.75 136 -129 121 86.25 124.75 -124.75 140.5 60 137.5 hstemhm
          215.667007446 314.5 hintmask 00000011
          215.666992188 631 rmoveto
          12 callsubr
          hintmask 10000000
          -270.666992188 -655.5 rmoveto
          66 callsubr
          hintmask 01000000
          67 callsubr
          hintmask 10100000
          68 callsubr
          hintmask 00010000
          69 callsubr
          hintmask 00100100
          70 callsubr
          hintmask 00001000
          71 callsubr
          hintmask 10000100
          72 callsubr
          endchar
        </CharString>
        <CharString name="edieresis">
          20 22 116 276.5 126.5 60 123.5 hstem
          179.437103271 123.5 131.5 123.5 vstem
          179.4375 663.25 rmoveto
          -4 callsubr
          255 hmoveto
          -4 callsubr
          -358.9375 -355.25 rmoveto
          -35 callsubr
          168.5 -0.75 rmoveto
          -34 callsubr
          endchar
        </CharString>
        <CharString name="edieresis.smcp">
          2 -2 141.5 -124.5 124.5 76.75 136 -129 121 86.25 124.75 -124.75 140.5 49.5 123.5 hstemhm
          187.25 123.5 131.5 123.5 hintmask 0000001110000000
          187.25 682.75 rmoveto
          -4 callsubr
          255 hmoveto
          -4 callsubr
          hintmask 1000000000000000
          -371.25 -569.75 rmoveto
          66 callsubr
          hintmask 0100000000000000
          67 callsubr
          hintmask 1010000000000000
          68 callsubr
          hintmask 0001000000000000
          69 callsubr
          hintmask 0010010000000000
          70 callsubr
          hintmask 0000100000000000
          71 callsubr
          hintmask 1000010000000000
          72 callsubr
          endchar
        </CharString>
        <CharString name="edotaccent">
          20 22 116 276.5 126.5 60 132 hstem
          298.397003174 140.5 vstem
          298.397460938 624 rmoveto
          42 callsubr
          -236.397460938 -400 rmoveto
          -35 callsubr
          168.5 -0.75 rmoveto
          -34 callsubr
          endchar
        </CharString>
        <CharString name="edotaccent.smcp">
          2 -2 141.5 -124.5 124.5 76.75 136 -129 121 86.25 124.75 -124.75 140.5 60.25 132 hstemhm
          309.5 140.5 hintmask 00000011
          309.5 654.25 rmoveto
          42 callsubr
          hintmask 10000000
          -252 -625.25 rmoveto
          66 callsubr
          hintmask 01000000
          67 callsubr
          hintmask 10100000
          68 callsubr
          hintmask 00010000
          69 callsubr
          hintmask 00100100
          70 callsubr
          hintmask 00001000
          71 callsubr
          hintmask 10000100
          72 callsubr
          endchar
        </CharString>
        <CharString name="egrave">
          20 22 116 276.5 126.5 60 140.5 hstem
          210.791702271 197.5 vstem
          210.791992188 741.5 rmoveto
          -43 callsubr
          -265.791992188 -433.5 rmoveto
          -35 callsubr
          168.5 -0.75 rmoveto
          -34 callsubr
          endchar
        </CharString>
        <CharString name="egrave.smcp">
          2 -2 141.5 -124.5 124.5 76.75 136 -129 121 86.25 124.75 -124.75 140.5 60 140.5 hstemhm
          224.542007446 197.5 hintmask 00000011
          224.541992188 771.5 rmoveto
          -43 callsubr
          hintmask 10000000
          -284.041992188 -658.5 rmoveto
          66 callsubr
          hintmask 01000000
          67 callsubr
          hintmask 10100000
          68 callsubr
          hintmask 00010000
          69 callsubr
          hintmask 00100100
          70 callsubr
          hintmask 00001000
          71 callsubr
          hintmask 10000100
          72 callsubr
          endchar
        </CharString>
        <CharString name="eight">
          112 0 141.5 165.5 133 155.5 141.5 hstem
          77.25 187.75 rmoveto
          -91 callsubr
          157.75 -56.75 rmoveto
          -90 callsubr
          47.25 298.75 rmoveto
          -89 callsubr
          endchar
        </CharString>
        <CharString name="eight.denominator">
          -47 -1.25 108 88.5 102 82.25 107.75 hstem
          61.25 123.75 rmoveto
          29 callsubr
          122 -28.5 rmoveto
          30 callsubr
          30.5 191.5 rmoveto
          31 callsubr
          endchar
        </CharString>
        <CharString name="eight.numerator">
          -46 254.75 108 88.5 102 82.25 107.75 hstem
          102.25 379.75 rmoveto
          29 callsubr
          122 -28.5 rmoveto
          5 28.25 rlineto
          3 20.5 8.25 10.5 28.5 0 rrcurveto
          56 hlineto
          26.75 0 5.75 -12 -3 -19 rrcurveto
          -4.75 -28.25 rlineto
          -2.75 -19.75 -8.5 -9.5 -28.75 0 rrcurveto
          -52.25 hlineto
          -29 0 -7.75 7.75 3.5 21.5 rrcurveto
          30.5 191.5 rmoveto
          31 callsubr
          endchar
        </CharString>
        <CharString name="eight.oldstyle">
          110 0 141.5 165.5 133 155.5 141.5 hstem
          100.75 187.75 rmoveto
          -91 callsubr
          157.75 -56.75 rmoveto
          -90 callsubr
          47.25 298.75 rmoveto
          -89 callsubr
          endchar
        </CharString>
        <CharString name="eight.smcp">
          46 0 135 93.75 118.5 92.75 135 hstem
          70.75 145 rmoveto
          -9.5 -57.75 4.25 -87.25 122.5 0 rrcurveto
          178.5 hlineto
          59.5 0 82.75 9.25 17.75 113.25 rrcurveto
          11 70 rlineto
          5 34 -8.25 60.75 -40.75 9.5 58 12 13 56.75 3 17 rrcurveto
          7 35.5 rlineto
          18.25 113.75 -57 43.25 -83.25 0 rrcurveto
          -166 hlineto
          -93 0 -60 -20.25 -19.25 -121.75 rrcurveto
          -4.75 -43 rlineto
          -4.5 -41 9.25 -53.75 47 -17 -33.75 -8.5 -39 -11.75 -9 -58 rrcurveto
          158.75 -30 rmoveto
          5 27.5 rlineto
          4.25 27 13.75 4.25 21 0 rrcurveto
          61.5 hlineto
          25.75 0 7 -7.5 -4 -26 rrcurveto
          -4.25 -27.5 rlineto
          -4.5 -27.5 -8.5 -5.25 -28 0 rrcurveto
          -53.5 hlineto
          -31.5 0 -9.25 3.75 5.25 31.25 rrcurveto
          33.5 210.75 rmoveto
          4.75 27.75 rlineto
          4.25 28.75 13 2.75 23.75 0 rrcurveto
          60.5 hlineto
          23.5 0 8.25 -5.75 -3.75 -25.75 rrcurveto
          -4.75 -30 rlineto
          -2.5 -14.5 -2.5 -16.75 -31.5 0 rrcurveto
          -64.5 hlineto
          -25.5 0 -6.5 11.5 3.5 22 rrcurveto
          endchar
        </CharString>
        <CharString name="eight.tnum">
          101 0 141.5 165.5 133 155.5 141.5 hstem
          72.5 187.75 rmoveto
          -91 callsubr
          157.75 -56.75 rmoveto
          -90 callsubr
          47.25 298.75 rmoveto
          -89 callsubr
          endchar
        </CharString>
        <CharString name="eight.tosf">
          101 0 141.5 165.5 133 155.5 141.5 hstem
          72.5 187.75 rmoveto
          -91 callsubr
          157.75 -56.75 rmoveto
          -90 callsubr
          47.25 298.75 rmoveto
          -89 callsubr
          endchar
        </CharString>
        <CharString name="eightinferior">
          -77 -201.25 108 88.5 102 82.25 107.75 hstem
          38.75 -76.25 rmoveto
          29 callsubr
          122 -28.5 rmoveto
          30 callsubr
          30.5 191.5 rmoveto
          31 callsubr
          endchar
        </CharString>
        <CharString name="eightsuperior">
          -77 354.75 108 88.5 102 82.25 107.75 hstem
          110.75 479.75 rmoveto
          29 callsubr
          122 -28.5 rmoveto
          30 callsubr
          30.5 191.5 rmoveto
          31 callsubr
          endchar
        </CharString>
        <CharString name="ellipsis">
          282 0 150 hstem
          128.589004517 23 rmoveto
          -1.94499206543 -14 8.85600280762 -9 14 0 rrcurveto
          98 hlineto
          14 0 11.0520019531 5 3.03700256348 18 rrcurveto
          16.4929962158 102 rlineto
          2.86700439453 16 -5.8570098877 9 -18 0 rrcurveto
          -98 hlineto
          -16.0000152588 0 -9.85398864746 -10 -2.15600585938 -15 rrcurveto
          255.507003784 -102 rmoveto
          50 callsubr
          255.507003784 -102 rmoveto
          50 callsubr
          endchar
        </CharString>
        <CharString name="emacron">
          20 22 116 276.5 126.5 52.5 85.5 hstem
          209.414596558 305.75 vstem
          209.415039062 593.5 rmoveto
          0 callsubr
          -147.665039062 -371 rmoveto
          -35 callsubr
          168.5 -0.75 rmoveto
          -34 callsubr
          endchar
        </CharString>
        <CharString name="emacron.smcp">
          2 -2 141.5 -124.5 124.5 76.75 136 -129 121 86.25 124.75 -124.75 140.5 61 85.5 hstemhm
          221 305.75 hintmask 00000011
          221 632 rmoveto
          0 callsubr
          hintmask 10000000
          -163.75 -604.5 rmoveto
          66 callsubr
          hintmask 01000000
          67 callsubr
          hintmask 10100000
          68 callsubr
          hintmask 00010000
          69 callsubr
          hintmask 00100100
          70 callsubr
          hintmask 00001000
          71 callsubr
          hintmask 10000100
          72 callsubr
          endchar
        </CharString>
        <CharString name="emdash">
          228 222 135 hstem
          62 222 rmoveto
          38 callsubr
          endchar
        </CharString>
        <CharString name="emdash.alt">
          227 292 135 hstem
          73.25 292 rmoveto
          38 callsubr
          endchar
        </CharString>
        <CharString name="emdash.smcp">
          227 209 135 hstem
          60 209 rmoveto
          38 callsubr
          endchar
        </CharString>
        <CharString name="endash">
          -56 220 135 hstem
          59.25 220 rmoveto
          37 callsubr
          endchar
        </CharString>
        <CharString name="endash.alt">
          5 290 135 hstem
          73 290 rmoveto
          37 callsubr
          endchar
        </CharString>
        <CharString name="endash.smcp">
          4 205 135 hstem
          59.25 205 rmoveto
          37 callsubr
          endchar
        </CharString>
        <CharString name="eng">
          51 21 -21 21 -21 413.5 126.5 -9 -20 hstemhm
          hintmask 10100000
          40.5 hmoveto
          164 0 59 371.5 rlineto
          32.75 29.5 30 12.5 47.75 0 29.25 0 15.25 -15 -7.75 -48 rrcurveto
          hintmask 01100000
          -55.25 -350.5 -10.5 -64 rlineto
          -15 -84 -30.75 -12.5 -54 -17 rrcurveto
          23.25 -90.5 rlineto
          65.25 3.5 146.75 37.75 28.5 166.75 rrcurveto
          10.5 60 55.25 347.5 rlineto
          17 106 -12.75 86.5 -130 0 -81 0 -33.75 -33 -54.25 -30.5 rrcurveto
          hintmask 10010000
          -23 callsubr
          endchar
        </CharString>
        <CharString name="eng.smcp">
          92 -212 110.75 121.25 -21 21 -21 hstemhm
          hintmask 11000000
          46.75 -1 rmoveto
          163.75 0 45.25 280.75 136 -277.25 -5 -32.75 rlineto
          -13 -65 -27.75 -6 -47 0 rrcurveto
          -18.5 -110.75 rlineto
          156 -8 88 39 21.75 134 rrcurveto
          8 48.5 89.75 569.25 -163 0 -43.25 -277 -139.75 277 -161 0 rlineto
          endchar
        </CharString>
        <CharString name="eogonek">
          20 -166.5 82.5 86 20 0 116 276.5 126.5 hstemhm
          hintmask 11000000
          435.5 22 rmoveto
          40 callsubr
          hintmask 00110000
          -421 286 rmoveto
          -35 callsubr
          168.5 -0.75 rmoveto
          -34 callsubr
          endchar
        </CharString>
        <CharString name="eogonek.smcp">
          2 -173.25 82.5 86 20 -17.25 141.5 -124.5 124.5 76.75 136 -129 121 86.25 124.75 -124.75 140.5 hstemhm
          hintmask 11000000
          421.75 15.25 rmoveto
          40 callsubr
          hintmask 00100000
          -412.25 97.75 rmoveto
          66 callsubr
          hintmask 00010000
          67 callsubr
          hintmask 00101000
          68 callsubr
          hintmask 00000100
          69 callsubr
          hintmask 00001001
          70 callsubr
          hintmask 00000010
          71 callsubr
          hintmask 00100001
          72 callsubr
          endchar
        </CharString>
        <CharString name="equal">
          -41 174.5 134 82.5 134 hstem
          47 174.5 rmoveto
          -87 callsubr
          13 82.5 rmoveto
          -87 callsubr
          endchar
        </CharString>
        <CharString name="estimated">
          172 0 21 237 17 239 19 hstem
          50 111 379 112 vstem
          50 266 rmoveto
          0 -78 28 -63 55 -51 55 -51 67 -23 96 0 62 0 30 6 42 16 40 16 35 27 38 40 rrcurveto
          -56 hlineto
          -43 -48 -72 -36 -76 0 rrcurveto
          -114 -76 66 27 hvcurveto
          133 vlineto
          13 5 -2 7 vhcurveto
          479 hlineto
          -4 89 -31 75 -58 45 -58 45 -61 21 -89 0 -97 0 -64 -25 -56 -50 -55 -52 -29 -62 0 -78 rrcurveto
          111 18 rmoveto
          137 vlineto
          23 81 70 108 86 104 -57 -42 vhcurveto
          -133 vlineto
          -10 -1 3 -12 vhcurveto
          -357 hlineto
          -5 -4 0 9 hvcurveto
          endchar
        </CharString>
        <CharString name="eth">
          32 0 150.5 231.5 149 119.5 132.5 hstem
          67 279.75 rmoveto
          -26.75 -167.5 37.25 -112.25 137 0 rrcurveto
          109.5 hlineto
          114.5 0 85.5 47 31 193 26.25 167.25 9.25 176.25 -72 94.5 rrcurveto
          64 29.25 -22 57 -89 -41.75 rlineto
          -57.25 40 -83 20.5 -123.5 0 rrcurveto
          -21.25 -132.5 rlineto
          45.25 1.25 43.25 -0.75 33.75 -9.5 rrcurveto
          -62.75 -29 21 -57 110.5 52 rlineto
          20.5 -21.25 12.75 -28 4.75 -34.75 -17.25 7.5 -53 0 -6 0 rrcurveto
          -40.75 hlineto
          -135 0 -68.25 -76.75 -28.25 -174.5 rrcurveto
          164 -17.25 rmoveto
          16 100 18.75 19.5 42 0 rrcurveto
          45.25 hlineto
          51 0 3.5 -16 -16.5 -103.5 -16.25 -100.5 -14.5 -11.75 -43.5 0.25 rrcurveto
          -47.25 hlineto
          -45.25 -0.5 -8.25 18 15 94.5 rrcurveto
          endchar
        </CharString>
        <CharString name="eth.smcp">
          99 0 141.5 114 69 106 141.5 hstem
          43.25 255.5 rmoveto
          101 callsubr
          196 -183 rmoveto
          102 callsubr
          endchar
        </CharString>
        <CharString name="exclam">
          -234 0 150 581 -20 hstem
          64 266.75 vstem
          64 23 rmoveto
          -107 callsubr
          20.5 72 rmoveto
          128.25 0 101.5 534 -160.25 0 rlineto
          endchar
        </CharString>
        <CharString name="exclam.smcp">
          -236 0 150 hstem
          63.25 241.75 vstem
          63.25 23 rmoveto
          -107 callsubr
          19.25 64.5 rmoveto
          127.5 0 78.5 380.5 -159.5 0 rlineto
          endchar
        </CharString>
        <CharString name="exclamdown">
          -230 312 149.25 hstem
          14.25 266.25 vstem
          14.25 -269.75 rmoveto
          163.75 0 67.75 534 -129 0 rlineto
          2.5 74.25 rmoveto
          -5 callsubr
          endchar
        </CharString>
        <CharString name="exclamdown.alt">
          -183 379.5 149.25 hstem
          77.75 266 vstem
          77.75 -202.25 rmoveto
          161.75 0 68.5 534 -129 0 rlineto
          3.5 74.25 rmoveto
          -5 callsubr
          endchar
        </CharString>
        <CharString name="exclamdown.smcp">
          -235 21 -21 21 -21 420 150 hstemhm
          56.75 239.5 hintmask 10110000
          56.75 hmoveto
          159.5 0 43 380.5 -127.5 0 rlineto
          1.75 64.5 rmoveto
          -2 -14 6 -11 15 0 rrcurveto
          99.25 hlineto
          16 0 10 10 2 15 rrcurveto
          16.5 102 rlineto
          2 14 -9 9 -14 0 rrcurveto
          -99.25 hlineto
          -14 0 -10 -8 -2 -15 rrcurveto
          endchar
        </CharString>
        <CharString name="f">
          -103 21 -21 21 -21 412 119 136 118.75 hstemhm
          hintmask 10110000
          77.75 412 rmoveto
          -33 callsubr
          endchar
        </CharString>
        <CharString name="f.salt">
          -133 21 -21 21 -21 412 119 137.5 117.5 hstemhm
          hintmask 10110000
          40.5 hmoveto
          117 callsubr
          endchar
        </CharString>
        <CharString name="f.smcp">
          3 21 -21 21 -21 200.5 136 -129 121 102 140.5 -140.5 124.75 hstemhm
          hintmask 10100000
          53.75 hmoveto
          73 callsubr
          hintmask 00010000
          74 callsubr
          hintmask 00101000
          75 callsubr
          hintmask 00000100
          71 callsubr
          hintmask 10101000
          76 callsubr
          endchar
        </CharString>
        <CharString name="f.superior">
          -199 632.25 91.25 78 90.25 hstem
          116.5 317.75 vstem
          116.5 632.25 rmoveto
          54.25 0 -41.75 -264.75 125 0 41.75 264.75 81.25 0 14.5 91.25 -80.75 0 3.75 24.5 rlineto
          5 33.25 1 21 40.5 -0.75 rrcurveto
          0 59.75 -0.75 0.75 vhcurveto
          12.75 73.25 rlineto
          -29 13.75 -29.5 4 -36.25 0 -89.25 0 -40.25 -43 -15.75 -73.5 rrcurveto
          -10 -49.25 -55.25 -15.5 rlineto
          endchar
        </CharString>
        <CharString name="f_f">
          294 21 -21 21 -21 412 119 -119 102 142.75 119.25 -108.5 118.5 hstemhm
          hintmask 00010000
          77.75 412 rmoveto
          hintmask 10100000
          97 0 -65.25 -412 164 0 rlineto
          hintmask 00010000
          53 callsubr
          hintmask 10100000
          214.75 0 -65.25 -412 164 0 rlineto
          hintmask 00010000
          53 callsubr
          hintmask 00100100
          110.5 0 18.75 119 -110 0 8.25 54 rlineto
          9.5 58.5 1.5 24.75 53.25 -0.75 rrcurveto
          0 84.25 -0.75 0.75 vhcurveto
          15.5 95.5 rlineto
          -38.75 18.75 -39.75 5 -49 0 -120 0 -57.25 -51.75 -16.5 -104.25 rrcurveto
          -15.75 -99 -213.25 0 8 49.25 rlineto
          hintmask 00101000
          8 48 5.75 29.25 49.5 -0.75 rrcurveto
          0 76 -0.75 0.75 vhcurveto
          15.5 96.25 rlineto
          -38 17.25 -48.5 6.5 -49 0 -120 0 -47.5 -88.5 -10.5 -67.5 rrcurveto
          -14 -89 rlineto
          hintmask 00010000
          54 callsubr
          endchar
        </CharString>
        <CharString name="f_f_i">
          512 21 -21 21 -21 412 119 -119 102 142.75 119.25 -108.5 118.5 hstemhm
          hintmask 00010000
          77.75 412 rmoveto
          hintmask 10100000
          55 callsubr
          hintmask 00010000
          53 callsubr
          hintmask 10100000
          199.75 0 -65.25 -412 164 0 rlineto
          hintmask 00010000
          53 callsubr
          hintmask 10100100
          178 0 -65.25 -412 164.25 0 82 521 -339.75 10 4.25 27.5 rlineto
          15.5 96 70 13 53.5 0 rrcurveto
          0 186.25 -0.75 0.75 vhcurveto
          14.75 95.5 rlineto
          -38.75 18.75 -151 5.75 -54.75 -0.75 -140 -3 -100.25 -94.25 -19.25 -122.75 rrcurveto
          -5 -35 -200.25 0 8.5 49.25 rlineto
          hintmask 00101000
          10.5 48 4 29.25 49.5 -0.75 rrcurveto
          0 76 -0.75 0.75 vhcurveto
          15.5 96.25 rlineto
          -38 17.25 -48.5 6.5 -49 0 -120 0 -47.5 -88.5 -10.5 -67.5 rrcurveto
          -14 -89 rlineto
          hintmask 00010000
          54 callsubr
          endchar
        </CharString>
        <CharString name="f_t">
          249 -0.5 98.75 314.75 119 135.5 118.5 hstem
          77.75 412 rmoveto
          78.25 0 -65.25 -412 164 0 65.25 413 221 0 -34.75 -223 rlineto
          -21.75 -140.75 66 -49.75 80.75 0 rrcurveto
          107 0 15 98.75 rlineto
          -5.5 -47.25 20.25 0 hvcurveto
          -24.75 11.25 -13 12.25 12 78 rrcurveto
          30.25 193 105.5 0 18.75 119 -105.5 0 23 148 -138.5 0 -48.5 -148 -220.5 0 8.25 53 rlineto
          9.5 58.5 1.5 24.75 53.25 -0.75 rrcurveto
          0 84.25 -0.75 0.75 vhcurveto
          15.5 95.5 rlineto
          -38.75 18.75 -39.75 5 -49 0 -120 0 -57.25 -51.75 -16.5 -104.25 rrcurveto
          -15.75 -99 -81 -17 rlineto
          endchar
        </CharString>
        <CharString name="f_y">
          449 21 -21 21 -21 412 119 136.5 118.5 hstemhm
          870.25 154.75 hintmask 10111000
          77.75 412 rmoveto
          78.25 0 -65.25 -412 164 0 65.25 412 101.75 0 rlineto
          60 0.75 21.25 -13.25 5 -60.75 rrcurveto
          20.75 -194.75 rlineto
          9 -92.5 48.25 -52 93.25 0 -37 -73.25 -45.75 -60.5 -92.25 -46.25 rrcurveto
          -115.25 vlineto
          69.75 11.5 154.75 26 113.75 258 rrcurveto
          153.25 352 rlineto
          19.5 45.25 22.25 68.75 -12.5 66 rrcurveto
          -154.75 hlineto
          -5.25 -58.75 -9.75 -37 -10.75 -27.75 rrcurveto
          -111.75 -272.5 rlineto
          -12 0.75 -30.75 2.75 -3 35.5 rrcurveto
          -17.25 221 rlineto
          -5.25 85.75 -53 50.25 -117.75 -0.75 rrcurveto
          -154.5 0 8.25 54 rlineto
          9.5 58.5 1.5 24.75 53.25 -0.75 rrcurveto
          0 84.25 -0.75 0.75 vhcurveto
          15.5 95.5 rlineto
          -38.75 18.75 -39.75 5 -49 0 -120 0 -57.25 -51.75 -16.5 -104.25 rrcurveto
          -15.75 -99 -81 -17 rlineto
          endchar
        </CharString>
        <CharString name="ffl">
          600 0 98 314 119 -119 102 142.75 119.25 -108.5 118.5 hstemhm
          hintmask 10100000
          77.75 412 rmoveto
          hintmask 11000000
          55 callsubr
          hintmask 10100000
          53 callsubr
          hintmask 11000000
          202.75 0 -65.25 -412 164 0 rlineto
          hintmask 10100000
          53 callsubr
          hintmask 11001000
          110.5 0 19.5 119 -110 0 6.5 42.5 rlineto
          11.75 73.5 25.75 20.5 53.5 0 rrcurveto
          0 79.25 -0.75 33.75 vhcurveto
          -75.75 -477.75 rlineto
          -22 -141 59.25 -48 94.75 0 rrcurveto
          103 0 15.5 98 rlineto
          -7 -48.25 21 0 hvcurveto
          -25.25 12 -12.5 14.5 11.75 73.5 rrcurveto
          88.75 564.75 -308 2.25 rlineto
          -121.5 -1 -94.75 -45.75 -26 -165.75 rrcurveto
          -6.5 -42.5 -204 0 8.5 49.25 rlineto
          hintmask 11010000
          9 48 5.5 29.25 49.5 -0.75 rrcurveto
          0 76 -0.75 0.75 vhcurveto
          15.5 96.25 rlineto
          -38 17.25 -48.5 6.5 -49 0 -120 0 -47.5 -88.5 -10.5 -67.5 rrcurveto
          -14 -89 rlineto
          hintmask 10100000
          54 callsubr
          endchar
        </CharString>
        <CharString name="fi">
          98 21 -21 21 -21 412 119 136.5 118.5 hstemhm
          hintmask 10110000
          40.5 412 rmoveto
          78.25 0 -65.25 -412 164 0 65.25 412 178.25 0 -65.25 -412 164.25 0 82.75 521 -340.75 10 4.25 27.5 rlineto
          15.5 96.25 71.5 13.75 52 -1 rrcurveto
          0 186.25 -3.5 1 vhcurveto
          15.5 95.5 rlineto
          -38.75 18.75 -156 8.5 -50 -0.75 -141.5 -3 -92.75 -72 -19.25 -122.5 rrcurveto
          -11.75 -57.5 -81 -17 rlineto
          endchar
        </CharString>
        <CharString name="five">
          86 -4.25 154 -130 130 177.25 141.75 114.25 149 hstemhm
          hintmask 01110000
          54.25 19.75 rmoveto
          hintmask 10110000
          130 -23 53 -1.25 124.5 0.25 96.5 0.25 103.75 25.25 22 137 rrcurveto
          15.5 113 rlineto
          14.25 104.5 -42 85.25 -109 7.5 -17 0.75 -41.25 2.25 -32.5 -2.75 -19 -1.5 -28.75 -4.5 -26.25 -16.75 rrcurveto
          27.75 137 293.5 0 24 149 -453 0 -94.75 -457.5 156.75 0 rlineto
          6 36.75 22.25 15.75 33.75 0 rrcurveto
          70.75 hlineto
          50 0 3.25 -32.5 -5 -32 rrcurveto
          -8 -49.75 rlineto
          -3.75 -24.5 -8.5 -38.5 -63.75 0 rrcurveto
          -274 hlineto
          endchar
        </CharString>
        <CharString name="five.denominator">
          -94 -4.25 116 -99 99 95.25 107.75 54.5 113.75 hstemhm
          hintmask 01110000
          38.75 12.75 rmoveto
          hintmask 10110000
          26 callsubr
          endchar
        </CharString>
        <CharString name="five.numerator">
          -94 251.75 116 -99 99 95.25 107.75 54.5 113.75 hstemhm
          hintmask 01110000
          78.75 268.75 rmoveto
          hintmask 10110000
          26 callsubr
          endchar
        </CharString>
        <CharString name="five.oldstyle">
          93 -103.75 154 -130 130 176.75 141.75 114.25 149 hstemhm
          hintmask 01110000
          42.25 -79.75 rmoveto
          hintmask 10110000
          130 -23 53.25 -2.75 124.25 1.75 96.25 1.25 104 24.25 22 137 rrcurveto
          15.5 112.5 rlineto
          14.5 104.5 -42.25 85.25 -109 7.5 -16.75 0.75 -41.25 2 -32.25 -2.5 -19 -1.5 -28.75 -4.5 -26.5 -16.75 rrcurveto
          27.75 137 293.25 0 24 149 -453 0 -94.75 -457.5 157 0 rlineto
          6 36.75 22.25 15.75 33.75 0 rrcurveto
          70.5 hlineto
          50 0 3.25 -32.5 -5 -32 rrcurveto
          -8 -49.25 rlineto
          -3.75 -24.5 -8.5 -38.5 -63.75 0 rrcurveto
          -274 hlineto
          endchar
        </CharString>
        <CharString name="five.smcp">
          17 -1 146.5 -122.5 122.5 93.5 125.25 56.75 149 hstemhm
          hintmask 01110000
          54.25 23 rmoveto
          hintmask 10110000
          79 -23 88.75 -2 99.25 1 92 1 78.75 24.75 18.75 119.75 rrcurveto
          7.75 48 rlineto
          16 103.5 -37.5 68.75 -118 0 -28 0 -12.25 0.75 -8.75 -1.25 -24 -1 -28.75 -4.5 -22.75 -20.75 rrcurveto
          19.25 83 254 0 24 149 -392.5 0 -75.75 -368.5 137.5 0 rlineto
          5.25 31.5 25.75 6 19.5 0 rrcurveto
          50.5 hlineto
          36.5 0 1 -10 -4.25 -27.25 rrcurveto
          -3 -20 rlineto
          -4.75 -28.25 -12.5 -8 -31.5 0 rrcurveto
          -229.75 hlineto
          endchar
        </CharString>
        <CharString name="five.tnum">
          101 -3.25 154 -130 130 176.75 141.75 114.25 149 hstemhm
          hintmask 01110000
          64.25 20.75 rmoveto
          hintmask 10110000
          51 callsubr
          endchar
        </CharString>
        <CharString name="five.tosf">
          101 -103.75 154 -130 130 176.75 141.75 114.25 149 hstemhm
          hintmask 01110000
          38.25 -79.75 rmoveto
          hintmask 10110000
          51 callsubr
          endchar
        </CharString>
        <CharString name="fiveinferior">
          -94 -204.25 116 -99 99 95.25 107.75 54.5 113.75 hstemhm
          hintmask 01110000
          1.75 -187.25 rmoveto
          hintmask 10110000
          26 callsubr
          endchar
        </CharString>
        <CharString name="fivesuperior">
          -93 351.75 116 -99 99 86.75 -21 29.5 107.75 54.5 113.75 hstemhm
          hintmask 01111000
          73.75 368.75 rmoveto
          hintmask 10111000
          26 callsubr
          endchar
        </CharString>
        <CharString name="fl">
          182 0 98.75 313.25 119 136 118.5 hstem
          77.75 412 rmoveto
          78.75 0 -66 -412 164 0 66.25 412 115 0 18.75 119 -114.75 0 4.5 38.25 rlineto
          11.75 75 28 22.75 54.75 0 rrcurveto
          0 81.5 -0.75 33.75 vhcurveto
          -75.5 -477.25 rlineto
          -22 -140.75 64.75 -48.25 92 0 rrcurveto
          98 0 15.75 98.75 rlineto
          -5.5 -47.75 20.25 0 hvcurveto
          -24.75 11.25 -14.25 12.25 12.25 76.5 rrcurveto
          89.5 564.25 -299.75 2.25 rlineto
          -119 0 -105 -30.75 -28 -178 rrcurveto
          -9 -45.75 -81.5 -17.5 rlineto
          endchar
        </CharString>
        <CharString name="florin">
          48 -204 126.5 444.5 119 hstem
          -14.75 -179 rmoveto
          14.25 -11.5 52 -18.75 65.25 5.25 122.25 9 68.5 129.25 42.25 153.75 rrcurveto
          75.75 279 106.5 0 34.75 119 -106.5 0 5 20 rlineto
          25.25 90 25.75 77.5 69.25 0 rrcurveto
          50.5 0 29.5 101.5 rlineto
          -13.5 5.75 -43 25.25 -80.5 -6 -117 -7.5 -70.25 -136.5 -40.75 -150 rrcurveto
          -5 -19.75 -81 0 -34.75 -119.25 81 0 -75.75 -279 rlineto
          -20.25 -77.25 -26.75 -88.25 -70 0 rrcurveto
          -52.5 hlineto
          endchar
        </CharString>
        <CharString name="four">
          119 149.5 153 229.5 -20 220 -20 hstem
          48.25 224 rmoveto
          -94 callsubr
          endchar
        </CharString>
        <CharString name="four.denominator">
          -65 21.75 -21 21 -21 88.5 116.75 hstemhm
          hintmask 10100000
          33.5 144 rmoveto
          25 callsubr
          endchar
        </CharString>
        <CharString name="four.numerator">
          -66 345.25 116.75 hstem
          73.75 400 rmoveto
          25 callsubr
          endchar
        </CharString>
        <CharString name="four.oldstyle">
          106 49.5 153 hstem
          27.5 124 rmoveto
          -94 callsubr
          endchar
        </CharString>
        <CharString name="four.smcp">
          53 115.5 145.5 hstem
          44 197.5 rmoveto
          31 -82 267.5 0 -18 -113.5 164 0 18 113.5 63 19 19.5 126.5 -60 0 31.5 195 -127 0 -51.25 -90 -17.25 -105 -104 0 187.5 309 -172.75 0 rlineto
          endchar
        </CharString>
        <CharString name="four.tnum">
          101 149.5 153 229.5 -20 220 -20 hstem
          54 224 rmoveto
          -94 callsubr
          endchar
        </CharString>
        <CharString name="four.tosf">
          101 49.5 153 hstem
          38 124 rmoveto
          -94 callsubr
          endchar
        </CharString>
        <CharString name="fourinferior">
          -71 -110.75 116.75 hstem
          -5 -56 rmoveto
          25 callsubr
          endchar
        </CharString>
        <CharString name="foursuperior">
          -38 445.25 116.75 hstem
          97.75 500 rmoveto
          25 callsubr
          endchar
        </CharString>
        <CharString name="fraction">
          -154 21 -21 21 -21 hstemhm
          hintmask 10000000
          -60.75 hmoveto
          114.5 0 481.951004028 760.5 -114.5 0 rlineto
          endchar
        </CharString>
        <CharString name="g">
          50 -248 109 141.25 123.25 297 119 hstem
          13 -248 rmoveto
          -32 callsubr
          211.5 424.25 rmoveto
          -31 callsubr
          endchar
        </CharString>
        <CharString name="g.salt">
          9 -270 129 289 120 146 119 hstem
          12.25 -101 rmoveto
          47 callsubr
          123.75 -207.5 rmoveto
          48 callsubr
          72.25 437.5 rmoveto
          49 callsubr
          endchar
        </CharString>
        <CharString name="g.smcp">
          55 -7 148 92.25 86.5 132.75 126.5 hstem
          82 314.25 rmoveto
          77 callsubr
          endchar
        </CharString>
        <CharString name="g.superior">
          -105 196.5 84.25 82.25 94.75 183.25 92 hstem
          76.25 196.5 rmoveto
          170.75 -16 rlineto
          116.5 -12.5 59 53.5 15.75 97.5 rrcurveto
          60.75 388.75 rlineto
          -36.5 13.5 -91.75 11.75 -78.5 0 -91 0 -62.5 -34.25 -21.25 -127.75 -20.25 -124.5 28.5 -83.5 108.75 0 33.25 0 28.25 8 27 20.75 rrcurveto
          -7.75 -51.75 rlineto
          -6.25 -39.75 -26.25 -19.5 -38.5 0 rrcurveto
          -154.25 hlineto
          153.25 275.25 rmoveto
          6.5 37 7.25 48 49.25 0 rrcurveto
          56.25 0 -27.25 -173.25 rlineto
          -22.75 -8.75 -11.75 -1.25 -23.75 0 -46.5 0 2.75 38 10 60.25 rrcurveto
          endchar
        </CharString>
        <CharString name="gbreve">
          50 -248 109 141.25 123.25 297 119 60 60.25 hstem
          273.307998657 61.75 105.75 61.75 vstem
          273.307617188 714 rmoveto
          39 callsubr
          -322.057617188 -962 rmoveto
          -32 callsubr
          211.5 424.25 rmoveto
          -31 callsubr
          endchar
        </CharString>
        <CharString name="gbreve.salt">
          9 -270 129 289 120 146 119 65.25 60.25 hstem
          237.615997314 61.75 105.75 61.75 vstem
          237.616210938 710.75 rmoveto
          39 callsubr
          -287.116210938 -811.75 rmoveto
          47 callsubr
          123.75 -207.5 rmoveto
          48 callsubr
          72.25 437.5 rmoveto
          49 callsubr
          endchar
        </CharString>
        <CharString name="gbreve.smcp">
          55 -7 148 92.25 86.5 132.75 126.5 61.5 60.25 hstem
          299.557998657 61.75 105.75 61.75 vstem
          299.557617188 753 rmoveto
          39 callsubr
          -279.307617188 -438.75 rmoveto
          77 callsubr
          endchar
        </CharString>
        <CharString name="gcircumflex">
          50 -248 109 141.25 123.25 297 119 60 137.5 hstem
          215.917007446 314.5 vstem
          215.916992188 601.5 rmoveto
          12 callsubr
          -328.916992188 -987 rmoveto
          -32 callsubr
          211.5 424.25 rmoveto
          -31 callsubr
          endchar
        </CharString>
        <CharString name="gcircumflex.salt">
          9 -270 129 289 120 146 119 65.25 137.5 hstem
          182.662994385 314.5 vstem
          182.663085938 598.25 rmoveto
          12 callsubr
          -296.413085938 -836.75 rmoveto
          47 callsubr
          123.75 -207.5 rmoveto
          48 callsubr
          72.25 437.5 rmoveto
          49 callsubr
          endchar
        </CharString>
        <CharString name="gcircumflex.smcp">
          55 -7 148 92.25 86.5 132.75 126.5 61.5 137.5 hstem
          227.5 314.5 vstem
          227.5 640.5 rmoveto
          12 callsubr
          -271.5 -463.75 rmoveto
          77 callsubr
          endchar
        </CharString>
        <CharString name="gcommaaccent">
          117 -248 109 141.25 123.25 297 119 227.5 49.25 hstem
          30.5 -248 rmoveto
          -32 callsubr
          211.5 424.25 rmoveto
          -31 callsubr
          74 342.25 rmoveto
          -2 -14 3 -10 16 0 rrcurveto
          86.5 hlineto
          14.25 0 9.75 8 3 16 rrcurveto
          13.75 89.5 rlineto
          2 15 -8 7 -13 0 rrcurveto
          -10 0 1.75 8.75 rlineto
          1.25 9.25 3 13 27 -1 rrcurveto
          8 49.25 rlineto
          0 0 -120.5 36.25 -17 -105.5 rrcurveto
          endchar
        </CharString>
        <CharString name="gcommaaccent.salt">
          9 -270 129.5 288.5 120 146 119 228.5 49.25 hstem
          12.25 -101 rmoveto
          47 callsubr
          123.75 -207.5 rmoveto
          13.25 69.5 103.75 -16 rlineto
          31.5 -5.75 11 -7.25 -4.75 -32.75 rrcurveto
          -2 -15.25 rlineto
          -4 -25.25 -8.5 -14.25 -32.75 0 rrcurveto
          -67.5 hlineto
          -36 0 -11 9.75 7 37.25 rrcurveto
          72.25 437.5 rmoveto
          49 callsubr
          42.75 276 rmoveto
          -2 -14 3.25 -10 16 0 rrcurveto
          86.5 hlineto
          14.25 0 9.5 8 3 16 rrcurveto
          14 89.5 rlineto
          2 15 -8 7 -13 0 rrcurveto
          -10 0 1.5 8.75 rlineto
          1.25 9.25 3.25 13 27 -1 rrcurveto
          7 49.25 rlineto
          0 0 -119.5 36.25 -17 -105.5 rrcurveto
          endchar
        </CharString>
        <CharString name="gcommaaccent.smcp">
          55 -281.699996948 49.0500030518 225.649993896 148 92.25 86.5 132.75 126.5 hstem
          82 314.25 rmoveto
          77 callsubr
          145.375 -494.25 rmoveto
          -2.69999694824 -15.3000030518 9 -7.19999694824 12.5999908447 0 rrcurveto
          9.89999389648 0 -1.57499694824 -9 rlineto
          -1.80000305176 -9.22500610352 -2.25 -12.8249969482 -27 0.900009155273 rrcurveto
          -7.875 -49.0500030518 rlineto
          1.52587890625e-05 1.52587890625e-05 119.925003052 -35.7750091553 16.875 105.075012207 rrcurveto
          19.3500061035 121.499603271 rlineto
          1.79998779297 13.4999847412 -3.375 10.8008117676 -16.1999969482 0 rrcurveto
          -86.3999938965 hlineto
          -14.3999938965 1.52587890625e-05 -9.22500610352 -8.10060119629 -2.69999694824 -16.2002105713 rrcurveto
          endchar
        </CharString>
        <CharString name="gdotaccent">
          50 -248 109 141.25 123.25 297 119 60 132 hstem
          312.147003174 140.5 vstem
          312.147460938 624.5 rmoveto
          42 callsubr
          -312.647460938 -956.5 rmoveto
          -32 callsubr
          211.5 424.25 rmoveto
          -31 callsubr
          endchar
        </CharString>
        <CharString name="gdotaccent.salt">
          9 -270 129 289 120 146 119 65.25 132 hstem
          289.464004517 140.5 vstem
          289.463867188 621.25 rmoveto
          42 callsubr
          -290.713867188 -806.25 rmoveto
          47 callsubr
          123.75 -207.5 rmoveto
          48 callsubr
          72.25 437.5 rmoveto
          49 callsubr
          endchar
        </CharString>
        <CharString name="gdotaccent.smcp">
          55 -7 148 92.25 86.5 132.75 126.5 61.5 132 hstem
          332.897003174 140.5 vstem
          332.897460938 663.5 rmoveto
          42 callsubr
          -264.397460938 -433.25 rmoveto
          77 callsubr
          endchar
        </CharString>
        <CharString name="germandbls">
          65 -8 126.5 -97.5 -21 21 -21 635.5 146.75 hstemhm
          hintmask 01010000
          40.5 hmoveto
          164 0 78.75 498.5 rlineto
          16.5 104.25 28.25 32.75 68.5 0 49.5 0 29.25 -11 -9.25 -62 -3.75 -26.75 -12.25 -25 -34.25 -26.25 -59.5 -41.5 -27.75 -25.75 -10.25 -67 -17 -112 133.5 11.25 -10 -64.75 rrcurveto
          -2.5 -13.75 rlineto
          hintmask 10010000
          -6.5 -40 -30 -12.5 -27.75 0 -27 0 -30.25 2.75 -33.25 3 rrcurveto
          -17.25 -113.25 rlineto
          33.25 -9.25 35 -9.75 68 0 87 0 90 28.25 19.75 124.75 rrcurveto
          4 24.5 rlineto
          18.75 120 -140.5 2.5 9.5 57 6.25 38.75 38.75 7.5 34.75 34.5 117 121.5 22.5 231 -284.5 0 -182.75 0 -78.5 -100.25 -18 -116 rrcurveto
          endchar
        </CharString>
</ttFont>
